<svg width="34" height="30" viewBox="0 0 34 30" fill="none" xmlns="http://www.w3.org/2000/svg">
<path d="M22.5003 24.9333V26.9666C22.5003 28.2666 21.467 29.3 20.167 29.3H3.00033C1.70033 29.3 0.666992 28.2666 0.666992 26.9666V24.9333C0.666992 21.7 3.03366 19 6.13366 18.5V22.4333C5.06699 22.7666 4.16699 23.9333 4.16699 25.0666C4.16699 26.5666 5.40032 27.8 6.90032 27.8C8.40032 27.8 9.63366 26.5666 9.63366 25.0666C9.63366 23.9333 8.76699 22.7666 7.66699 22.4333V18.4333C7.96699 18.4666 8.46699 18.6 8.76699 18.7C9.50032 18.9666 10.767 19.1666 11.567 19.1666C12.467 19.1666 13.867 18.9 14.7003 18.5666V20.8C12.967 21.1666 11.567 22.8666 11.567 24.6333V26.7C11.567 27.0666 11.867 27.4333 12.2337 27.4666L13.767 27.6666C13.8003 27.6666 13.8337 27.6666 13.8337 27.6666C14.0003 27.6666 14.167 27.5333 14.2003 27.3666L14.367 26.6C14.367 26.5666 14.367 26.5333 14.367 26.5333C14.367 26.3666 14.2337 26.2 14.067 26.1666L13.1337 25.9666V24.7333C13.1337 23.6 13.9003 22.5666 15.0003 22.3333C15.1337 22.3 15.3337 22.3 15.467 22.3C16.767 22.3 17.8003 23.3333 17.8003 24.6333V25.9333L16.867 26.1333C16.7003 26.1666 16.567 26.3333 16.567 26.5C16.567 26.5333 16.567 26.5666 16.567 26.5666L16.7337 27.3333C16.767 27.5 16.9337 27.6333 17.1003 27.6333C17.1337 27.6333 17.167 27.6333 17.167 27.6333L18.7337 27.3333C19.067 27.2666 19.367 26.9333 19.367 26.5666V24.6C19.367 22.8333 17.967 21.1333 16.2337 20.7666V18.3666C19.7337 18.6 22.5003 21.4333 22.5003 24.9333ZM5.33366 10.6C5.33366 7.16664 8.13366 4.36664 11.567 4.36664C15.0003 4.36664 17.8003 7.16664 17.8003 10.6C17.8003 14.0333 15.0003 16.8333 11.567 16.8333C8.13366 16.8333 5.33366 14.0333 5.33366 10.6ZM6.90032 23.8666C7.53366 23.8666 8.06699 24.4 8.06699 25.0333C8.06699 25.6666 7.53366 26.2 6.90032 26.2C6.26699 26.2 5.73366 25.6666 5.73366 25.0333C5.73366 24.3666 6.26699 23.8666 6.90032 23.8666Z" fill="#3E5172"/>
<path d="M26.6001 11.2332C27.9071 11.2332 28.9667 10.1736 28.9667 8.86651C28.9667 7.55944 27.9071 6.49985 26.6001 6.49985C25.293 6.49985 24.2334 7.55944 24.2334 8.86651C24.2334 10.1736 25.293 11.2332 26.6001 11.2332Z" fill="#3E5172"/>
<path d="M29.3329 16.8999C30.2902 16.8999 31.0663 16.1238 31.0663 15.1665C31.0663 14.2092 30.2902 13.4332 29.3329 13.4332C28.3757 13.4332 27.5996 14.2092 27.5996 15.1665C27.5996 16.1238 28.3757 16.8999 29.3329 16.8999Z" fill="#3E5172"/>
<path d="M21.2997 9.26647C22.257 9.26647 23.0331 8.49043 23.0331 7.53314C23.0331 6.57584 22.257 5.7998 21.2997 5.7998C20.3425 5.7998 19.5664 6.57584 19.5664 7.53314C19.5664 8.49043 20.3425 9.26647 21.2997 9.26647Z" fill="#3E5172"/>
<path d="M27.2333 4.13317C28.1906 4.13317 28.9667 3.35713 28.9667 2.39984C28.9667 1.44254 28.1906 0.666504 27.2333 0.666504C26.276 0.666504 25.5 1.44254 25.5 2.39984C25.5 3.35713 26.276 4.13317 27.2333 4.13317Z" fill="#3E5172"/>
<path d="M31.5995 10.6332C32.5568 10.6332 33.3329 9.85713 33.3329 8.89984C33.3329 7.94254 32.5568 7.1665 31.5995 7.1665C30.6422 7.1665 29.8662 7.94254 29.8662 8.89984C29.8662 9.85713 30.6422 10.6332 31.5995 10.6332Z" fill="#3E5172"/>
<path d="M21.8661 16.4999C22.8234 16.4999 23.5995 15.7238 23.5995 14.7665C23.5995 13.8092 22.8234 13.0332 21.8661 13.0332C20.9089 13.0332 20.1328 13.8092 20.1328 14.7665C20.1328 15.7238 20.9089 16.4999 21.8661 16.4999Z" fill="#3E5172"/>
<path d="M21.8665 15.4998C21.6999 15.4998 21.5332 15.4332 21.3998 15.3332C21.0665 15.0665 21.0332 14.5998 21.2998 14.2998L26.0332 8.39985C26.2999 8.06651 26.7665 8.03318 27.0665 8.29985C27.3998 8.56651 27.4332 9.03318 27.1665 9.33318L22.4332 15.2332C22.2998 15.3998 22.0999 15.4998 21.8665 15.4998Z" fill="#3E5172"/>
<path d="M27.0336 9.59989C26.9669 9.59989 26.9336 9.59989 26.8669 9.56656L21.1336 8.23322C20.7336 8.13322 20.5002 7.73322 20.6002 7.33322C20.7002 6.93322 21.1002 6.69989 21.5002 6.79989L27.2336 8.16656C27.6336 8.26656 27.8669 8.66656 27.7669 9.06656C27.6669 9.39989 27.3669 9.59989 27.0336 9.59989Z" fill="#3E5172"/>
<path d="M31.5999 9.79983L26.5666 9.59983C26.1666 9.56649 25.8332 9.23316 25.8666 8.83316C25.8999 8.43316 26.2332 8.09983 26.6332 8.13316L31.6332 8.33316C32.0332 8.36649 32.3666 8.69983 32.3332 9.09983C32.3332 9.46649 31.9999 9.79983 31.5999 9.79983Z" fill="#3E5172"/>
<path d="M29.4662 15.4999C29.1662 15.4999 28.8995 15.3332 28.7995 15.0332L26.3329 9.1332C26.1662 8.76653 26.3662 8.3332 26.7328 8.16653C27.0995 7.99987 27.5329 8.19987 27.6995 8.56653L30.1662 14.4665C30.3329 14.8332 30.1329 15.2665 29.7662 15.4332C29.6662 15.4999 29.5662 15.4999 29.4662 15.4999Z" fill="#3E5172"/>
<path d="M26.6001 9.59981C26.5668 9.59981 26.5668 9.59981 26.5335 9.59981C26.1335 9.56648 25.8335 9.19981 25.8668 8.79981L26.4334 2.79981C26.4668 2.39981 26.8334 2.09981 27.2334 2.13315C27.6334 2.16648 27.9334 2.53314 27.9001 2.93314L27.3335 8.93314C27.3001 9.33314 27.0001 9.59981 26.6001 9.59981Z" fill="#3E5172"/>
</svg>
