<svg width="30" height="32" viewBox="0 0 30 32" fill="none" xmlns="http://www.w3.org/2000/svg">
<path d="M29.468 21.9001L27.568 19.6334C27.3346 19.7668 27.068 19.9001 26.8013 20.0334C26.5346 20.1668 26.268 20.2668 26.0013 20.3668L27.6346 22.3334L18.8013 29.6668L2.3013 9.70009L11.1346 2.36676L16.3346 8.66676C16.468 8.40009 16.6346 8.16676 16.8013 7.93342C16.968 7.70009 17.1346 7.50009 17.3346 7.26676L11.9013 0.666758C11.6013 0.300091 11.1013 0.266758 10.7346 0.566758L0.601302 8.93342C0.434635 9.06676 0.334635 9.26676 0.301302 9.50009C0.267969 9.73342 0.334636 9.93342 0.501302 10.1001L18.068 31.3334C18.2346 31.5334 18.468 31.6334 18.7013 31.6334C18.9013 31.6334 19.068 31.5668 19.2346 31.4334L29.3346 23.0668C29.5013 22.9334 29.6013 22.7334 29.6346 22.5001C29.668 22.2668 29.6013 22.0668 29.468 21.9001Z" fill="#3E5172"/>
<path d="M11.2403 1.18655L1.125 9.56299L5.8022 15.2111L15.9175 6.83468L11.2403 1.18655Z" fill="#3E5172"/>
<path d="M23.3996 6.3335C19.9329 6.3335 17.0996 9.1335 17.0996 12.6335C17.0996 16.1002 19.9329 18.9335 23.3996 18.9335C26.8663 18.9335 29.6996 16.1002 29.6996 12.6335C29.6996 9.16683 26.8996 6.3335 23.3996 6.3335ZM27.1996 13.8335H24.5996V16.4335H22.1996V13.8335H19.5996V11.4335H22.1996V8.8335H24.5996V11.4335H27.1996V13.8335Z" fill="#3E5172"/>
</svg>
