<?xml version="1.0" encoding="UTF-8"?>
<svg width="32px" height="32px" viewBox="0 0 32 32" version="1.1" xmlns="http://www.w3.org/2000/svg" xmlns:xlink="http://www.w3.org/1999/xlink">
    <!-- Generator: Sketch 63.1 (92452) - https://sketch.com -->
    <title>a1000h-icon4</title>
    <desc>Created with Sketch.</desc>
    <g id="Page-1" stroke="none" stroke-width="1" fill="none" fill-rule="evenodd">
        <g id="a1000h-icon4" fill="#FFFFFF" fill-rule="nonzero">
            <path d="M29.3006,12.1 L15.1006,12.1 C13.7339,12.1 12.6006,13.2333 12.6006,14.6 L12.6006,28.8333 C12.6006,30.2 13.7006,31.3333 15.1006,31.3333 L29.3006,31.3333 C30.6672,31.3333 31.8006,30.2 31.8006,28.8333 L31.8006,14.6 C31.8006,13.2333 30.6672,12.1 29.3006,12.1 Z M22.2006,26.4 C19.6006,26.4 17.5006,24.3 17.5006,21.7 C17.5006,21 17.6339,20.3333 17.9339,19.7333 C18.2006,19.8333 18.5006,19.9 18.7673,19.9 C20.1006,19.9 21.1673,18.8333 21.1673,17.5 C21.1673,17.3667 21.1672,17.2333 21.1339,17.1 C21.4672,17.0333 21.8339,16.9667 22.2006,16.9667 C24.2006,16.9667 25.9006,18.2 26.5673,19.9667 C26.1006,20.3 25.8006,20.8333 25.8006,21.4333 C25.8006,22.1 26.1672,22.6667 26.7006,23 C26.1339,24.9667 24.3339,26.4 22.2006,26.4 Z" id="Shape"></path>
            <polygon id="Path" points="9.50098 5.76663 8.00098 5.76663 8.00098 14.8 9.50098 14.8"></polygon>
            <polygon id="Path" points="6.30135 8.56662 5.40137 7.36662 8.7347 4.83328 12.068 7.36662 11.168 8.56662 8.7347 6.73328"></polygon>
            <path d="M15.733398,0.699982 L3.16673,0.699982 C1.53339,0.699982 0.233398,1.99998 0.233398,3.63332 L0.233398,16.2 C0.233398,17.8333 1.56673,19.1333 3.16673,19.1333 L10.4667,19.1333 L10.4667,17.6666 L3.16673,17.6666 C2.36673,17.6666 1.70005,17 1.70005,16.2 L1.70005,3.63332 C1.70005,2.83332 2.36673,2.16665 3.16673,2.16665 L15.733398,2.16665 C16.5334,2.16665 17.2001,2.83332 17.2001,3.63332 L17.2001,9.93332 L18.6667,9.93332 L18.6667,3.63332 C18.6667,1.99998 17.3334,0.699982 15.733398,0.699982 Z" id="Path"></path>
        </g>
    </g>
</svg>