<svg width="30" height="28" viewBox="0 0 30 28" fill="none" xmlns="http://www.w3.org/2000/svg">
<path d="M28.2333 13.2664L23.6667 5.56637C23.5333 5.33304 23.3 5.19971 23.0333 5.19971H19.1V6.66637H22.6333L27 13.9997C27.7 15.1664 28.0667 16.533 28.0667 17.8997V25.9664H2V17.8997C2 17.1997 2.1 16.533 2.26666 15.8997C2.43333 15.2664 2.7 14.5997 3.06667 14.033L7.43333 6.69971H10.9667V5.23304H7C6.73333 5.23304 6.49999 5.36637 6.36666 5.59971L1.76666 13.2664C0.933329 14.6664 0.5 16.2664 0.5 17.8997V26.6997C0.5 27.0997 0.833337 27.433 1.23334 27.433H28.7667C29.1667 27.433 29.5 27.0997 29.5 26.6997V17.8997C29.5333 16.2664 29.0667 14.6664 28.2333 13.2664Z" fill="white"/>
<path d="M20.5331 13.3995H9.46647C9.06647 13.3995 8.79981 12.9995 8.96647 12.6328L10.6331 8.63281H19.3998L21.0665 12.6328C21.1998 12.9995 20.9331 13.3995 20.5331 13.3995Z" fill="white"/>
<path d="M19.1002 12.1331H10.9335C10.5335 12.1331 10.2002 11.7997 10.2002 11.3997V1.29974C10.2002 0.89974 10.5335 0.566406 10.9335 0.566406H19.1002C19.5002 0.566406 19.8335 0.89974 19.8335 1.29974V11.3997C19.8335 11.7997 19.5002 12.1331 19.1002 12.1331ZM11.6669 10.6664H18.3669V2.03307H11.6669V10.6664Z" fill="white"/>
<path d="M28.7664 17.9664H1.19973C0.866394 17.9664 0.566406 17.6997 0.566406 17.333C0.566406 16.9664 0.833061 16.6997 1.19973 16.6997H28.7664C29.0997 16.6997 29.3997 16.9664 29.3997 17.333C29.3997 17.6997 29.1331 17.9664 28.7664 17.9664Z" fill="white"/>
<path d="M28.8 17.333H1.2334V26.6997H28.8V17.333Z" fill="white"/>
</svg>
