<svg width="32" height="32" viewBox="0 0 32 32" fill="none" xmlns="http://www.w3.org/2000/svg">
<path d="M25.8665 26.9334L22.8999 18.7667H21.3332L24.2332 26.7334L15.9332 29.7667L11.8999 18.7667H10.3332L14.7999 30.9667C14.8999 31.2667 15.1999 31.4667 15.4999 31.4667C15.5999 31.4667 15.6665 31.4334 15.7665 31.4334L25.4332 27.9C25.5999 27.8334 25.7665 27.7 25.8332 27.5334C25.9332 27.3 25.9332 27.1 25.8665 26.9334ZM6.99988 5.26671L15.2999 2.23337L19.7999 14.6667H21.3665L16.3999 1.03337C16.2665 0.666705 15.8332 0.466705 15.4665 0.600038L5.79988 4.13337C5.59988 4.20004 5.46655 4.33337 5.36655 4.50004C5.29988 4.66671 5.26655 4.86671 5.33321 5.06671L8.86655 14.6667H10.4332L6.99988 5.26671Z" fill="#3E5172"/>
<path d="M15.7246 1.28589L6.0498 4.81982L8.56587 11.708L18.2407 8.17409L15.7246 1.28589Z" fill="#3E5172"/>
<path d="M31.1007 14.9336H26.0674V18.7669H31.1007V14.9336Z" fill="#3E5172"/>
<path d="M31.0674 19.5002H26.0341C25.6341 19.5002 25.3008 19.1669 25.3008 18.7669V14.9335C25.3008 14.5335 25.6341 14.2002 26.0341 14.2002H31.0674C31.4674 14.2002 31.8008 14.5335 31.8008 14.9335V18.7669C31.8008 19.1669 31.5008 19.5002 31.0674 19.5002ZM26.8008 18.0335H30.3674V15.6669H26.8008V18.0335Z" fill="#3E5172"/>
<path d="M5.96693 14.9336H0.933594V18.7669H5.96693V14.9336Z" fill="#3E5172"/>
<path d="M5.93353 19.5002H0.933528C0.533528 19.5002 0.200195 19.1669 0.200195 18.7669V14.9335C0.200195 14.5335 0.533528 14.2002 0.933528 14.2002H5.96686C6.36686 14.2002 6.70019 14.5335 6.70019 14.9335V18.7669C6.66686 19.1669 6.33353 19.5002 5.93353 19.5002ZM1.63353 18.0335H5.20019V15.6669H1.63353V18.0335Z" fill="#3E5172"/>
<path d="M7.80013 17.6667H5.80013C5.33346 17.6667 4.9668 17.3 4.9668 16.8333C4.9668 16.3667 5.33346 16 5.80013 16H7.80013C8.2668 16 8.63346 16.3667 8.63346 16.8333C8.63346 17.3 8.2668 17.6667 7.80013 17.6667Z" fill="#3E5172"/>
<path d="M21.3995 17.6667H17.9995C17.5329 17.6667 17.1662 17.3 17.1662 16.8333C17.1662 16.3667 17.5662 16 17.9995 16H21.3995C21.8662 16 22.2329 16.3667 22.2329 16.8333C22.2329 17.3 21.8662 17.6667 21.3995 17.6667ZM14.5995 17.6667H11.1995C10.7329 17.6667 10.3662 17.3 10.3662 16.8333C10.3662 16.3667 10.7329 16 11.1995 16H14.5995C15.0662 16 15.4329 16.3667 15.4329 16.8333C15.4329 17.3 15.0662 17.6667 14.5995 17.6667Z" fill="#3E5172"/>
<path d="M26.8001 17.6667H24.8001C24.3335 17.6667 23.9668 17.3 23.9668 16.8333C23.9668 16.3667 24.3335 16 24.8001 16H26.8001C27.2668 16 27.6335 16.3667 27.6335 16.8333C27.6335 17.3 27.2668 17.6667 26.8001 17.6667Z" fill="#3E5172"/>
</svg>
