<svg width="30" height="32" viewBox="0 0 30 32" fill="none" xmlns="http://www.w3.org/2000/svg">
<path d="M29.4665 21.9L27.5665 19.6333C27.3332 19.7666 27.0665 19.9 26.7998 20.0333C26.5332 20.1666 26.2665 20.2666 25.9998 20.3666L27.6332 22.3333L18.7998 29.6666L2.29984 9.69997L11.1332 2.36664L16.3332 8.66663C16.4665 8.39997 16.6332 8.16663 16.7998 7.9333C16.9665 7.69997 17.1332 7.49997 17.3332 7.26663L11.8998 0.666636C11.5998 0.299969 11.0998 0.266636 10.7332 0.566636L0.599837 8.9333C0.43317 9.06664 0.333171 9.26663 0.299837 9.49997C0.266504 9.7333 0.333171 9.9333 0.499837 10.1L18.0665 31.3333C18.2332 31.5333 18.4665 31.6333 18.6998 31.6333C18.8998 31.6333 19.0665 31.5666 19.2332 31.4333L29.3332 23.0666C29.4998 22.9333 29.5998 22.7333 29.6332 22.5C29.6665 22.2666 29.5998 22.0666 29.4665 21.9Z" fill="#3E5172"/>
<path d="M11.2403 1.18667L1.125 9.56311L5.8022 15.2112L15.9175 6.8348L11.2403 1.18667Z" fill="#3E5172"/>
<path d="M23.4001 6.33337C19.9334 6.33337 17.1001 9.13337 17.1001 12.6334C17.1001 16.1 19.9334 18.9334 23.4001 18.9334C26.8668 18.9334 29.7001 16.1 29.7001 12.6334C29.7001 9.16671 26.9001 6.33337 23.4001 6.33337ZM27.2001 13.8334H24.6001V16.4334H22.2001V13.8334H19.6001V11.4334H22.2001V8.83337H24.6001V11.4334H27.2001V13.8334Z" fill="#3E5172"/>
</svg>
