<?xml version="1.0" encoding="UTF-8"?>
<svg width="33px" height="33px" viewBox="0 0 33 33" version="1.1" xmlns="http://www.w3.org/2000/svg" xmlns:xlink="http://www.w3.org/1999/xlink">
    <!-- Generator: Sketch 63.1 (92452) - https://sketch.com -->
    <title>a1000h-icon3</title>
    <desc>Created with Sketch.</desc>
    <g id="Page-1" stroke="none" stroke-width="1" fill="none" fill-rule="evenodd">
        <g id="a1000h-icon3" transform="translate(-1.000000, 0.000000)" fill="#FFFFFF" fill-rule="nonzero">
            <path d="M15.6332,25.3 C15.6332,25.2667 15.6332,25.2333 15.5998,25.2333 L2.93316,18.5 L6.36649,12 C6.19983,11.9667 5.99983,11.9667 5.83316,11.9333 C5.46649,11.9 5.13317,11.6667 4.79983,11.4 L1.0665,18.4667 C0.866496,18.8667 0.999829,19.3667 1.39983,19.6 L17.2665,28.0333 C16.4998,27.1 15.8998,26.1333 15.6332,25.3 Z" id="Path"></path>
            <path d="M32.3666,23.0667 L30.4666,20.7667 C30.2,20.9 29.9333,21.0333 29.6666,21.1333 C29.4,21.2333 29.1,21.3333 28.8,21.4 L30.5333,23.4667 L21.4,31.0333 L4.36663,10.4667 L13.5,2.89999 L19.4,9.99999 C19.5333,9.73333 19.6666,9.46666 19.8333,9.23333 C19.9666,8.99999 20.1333,8.76666 20.3333,8.53332 L14.2666,1.19999 C13.9666,0.833325 13.4666,0.799991 13.1,1.09999 L2.69996,9.73333 C2.33329,10.0333 2.29996,10.5667 2.59996,10.9 L20.7,32.7333 C20.8666,32.9333 21.1,33.0333 21.3333,33.0333 C21.5333,33.0333 21.7,32.9667 21.8666,32.8333 L32.2666,24.2 C32.4333,24.0667 32.5333,23.8667 32.5666,23.6333 C32.6,23.4667 32.5333,23.2333 32.3666,23.0667 Z" id="Path"></path>
            <polygon id="Path" points="13.3307 2.42406 3.95996 10.184 8.297 15.4213 17.6678 7.66142"></polygon>
            <path d="M26.7658,7.26666 C23.2992,7.26666 20.4658,10.1 20.4658,13.5667 C20.4658,17.0333 23.2658,19.8667 26.7658,19.8667 C30.2325,19.8667 33.0658,17.0333 33.0658,13.5667 C33.0325,10.1 30.2325,7.26666 26.7658,7.26666 Z M30.5325,14.7667 L27.9325,14.7667 L27.9325,17.3667 L25.5325,17.3667 L25.5325,14.7667 L22.9325,14.7667 L22.9325,12.3667 L25.5325,12.3667 L25.5325,9.76666 L27.9325,9.76666 L27.9325,12.3667 L30.5325,12.3667 L30.5325,14.7667 Z" id="Shape"></path>
        </g>
    </g>
</svg>