<svg width="80" height="80" viewBox="0 0 80 80" fill="none" xmlns="http://www.w3.org/2000/svg">
<path d="M45.9552 71.4177H43.7079C43.3679 71.4177 43.0469 71.38 42.7258 71.3046L16.4569 64.8579C15.8714 64.7071 15.3426 64.4432 14.8894 64.0474L14.0018 63.2745C13.3597 62.7279 12.982 61.9173 12.9442 61.0879L12 35.8479C12 35.7725 12 35.6971 12.0189 35.6406L16.0792 22.2571C16.1925 21.8424 16.4946 21.522 16.8912 21.3335C17.2878 21.145 17.741 21.1638 18.1187 21.3523L19.7995 22.1629L46.6917 28.3833L50.1099 28.7415C50.7519 28.798 51.3374 29.1373 51.7151 29.6651C52.0928 30.1929 52.225 30.8338 52.0928 31.4747C52.0928 31.4936 52.0739 31.5124 52.0739 31.5313L47.4282 45.9514L48.3347 68.9295C48.3536 69.5892 48.1269 70.2113 47.6548 70.7014C47.2393 71.1538 46.635 71.4177 45.9552 71.4177ZM13.3408 35.9044L14.2662 61.0314C14.2851 61.5026 14.4928 61.955 14.8705 62.2755L15.7581 63.0483C16.0414 63.2934 16.4002 63.4819 16.7779 63.5761L43.0469 70.0039C43.2735 70.0605 43.5001 70.0793 43.7079 70.0793H45.9552C46.2573 70.0793 46.5406 69.9662 46.7483 69.74C46.9561 69.5327 47.0694 69.2499 47.0505 68.9483L46.144 45.8572C46.144 45.7818 46.144 45.7064 46.1818 45.631L50.8464 31.1354C50.903 30.8904 50.8464 30.6265 50.6953 30.4191C50.5442 30.1929 50.2987 30.061 50.0343 30.0421L46.5784 29.684C46.5595 29.684 46.5217 29.684 46.5028 29.6651L19.4973 23.4258C19.4407 23.407 19.4029 23.407 19.3651 23.3693L17.6088 22.521C17.5522 22.5022 17.5144 22.5022 17.4955 22.521C17.4766 22.5399 17.4389 22.5587 17.42 22.6153L13.3408 35.9044Z" fill="#061F4A"/>
<path d="M42.2351 45.9325C41.8574 45.9325 41.4986 45.8759 41.1398 45.7817L16.0983 39.1653C15.0785 38.9014 14.2098 38.2605 13.6244 37.3935L12.6046 35.8666C12.5668 35.8289 12.5857 35.7724 12.6235 35.7347C12.6612 35.697 12.7179 35.7158 12.7557 35.7535L13.7754 37.2804C14.3231 38.1097 15.1729 38.7129 16.1361 38.9768L41.1964 45.5932C41.5363 45.6874 41.8952 45.7251 42.254 45.7251H46.8241C46.8808 45.7251 46.9186 45.7628 46.9186 45.8194C46.9186 45.8759 46.8808 45.9136 46.8241 45.9136L42.2351 45.9325Z" fill="#061F4A"/>
<path d="M51.1103 30.551C50.9025 30.551 50.7137 30.4567 50.5815 30.2871C50.3549 30.0043 50.4115 29.5896 50.7137 29.3634L66.3315 17.4503C66.4449 17.3749 66.426 17.2618 66.426 17.2052C66.4071 17.1487 66.3693 17.0544 66.2371 17.0167L37.4753 10.4004C36.6255 10.2119 35.7001 10.3627 34.9636 10.8528L17.3628 22.5963C17.0607 22.8037 16.6452 22.7094 16.4375 22.4078C16.2297 22.1062 16.3242 21.6915 16.6263 21.4842L34.246 9.75953C35.2847 9.06208 36.5688 8.83588 37.7775 9.11863L66.5393 15.7538C67.1436 15.8857 67.5779 16.357 67.7101 16.9413C67.8423 17.5445 67.6157 18.1477 67.1247 18.5059L51.5068 30.419C51.3935 30.5133 51.2425 30.551 51.1103 30.551Z" fill="#061F4A"/>
<path d="M46.3894 71.4175H44.2176C43.8588 71.4175 43.5566 71.1159 43.5566 70.7578C43.5566 70.3996 43.8588 70.098 44.2176 70.098H46.3894C47.1259 70.098 47.8435 69.8341 48.4101 69.3629L65.3121 55.1312C66.1242 54.4338 66.5963 53.4347 66.5963 52.3603L66.4074 17.1864C66.4074 16.8282 66.6907 16.5266 67.0684 16.5266C67.4272 16.5266 67.7294 16.8282 67.7294 17.1864L67.9182 52.3603C67.9182 53.8306 67.2762 55.2066 66.1619 56.1491L49.2599 70.3808C48.4667 71.0405 47.4469 71.4175 46.3894 71.4175Z" fill="#061F4A"/>
<path d="M43.2926 70.8521C43.236 70.8521 43.1982 70.8144 43.1982 70.7578L41.744 48.1568C41.6496 46.6111 41.8196 45.0654 42.2539 43.5763L46.5219 28.9865C46.5408 28.9299 46.5975 28.9111 46.6352 28.9299C46.6919 28.9488 46.7108 29.0053 46.6919 29.043L42.4428 43.6328C42.0084 45.1031 41.8385 46.63 41.9329 48.1568L43.387 70.7578C43.4059 70.7955 43.3681 70.8332 43.2926 70.8521C43.3115 70.8521 43.3115 70.8521 43.2926 70.8521Z" fill="#061F4A"/>
<path d="M15.8905 64.1226C15.8338 64.1226 15.7961 64.0849 15.7961 64.0283L14.6252 41.5215C14.5308 39.5988 14.7763 37.7138 15.3428 35.8854L19.5164 22.7282C19.5353 22.6716 19.5919 22.6528 19.6297 22.6716C19.6864 22.6905 19.7052 22.747 19.6864 22.7847L15.5317 35.9608C14.9651 37.7704 14.7196 39.6365 14.814 41.5404L15.9849 64.0472C15.9849 64.0849 15.9471 64.1226 15.8905 64.1226Z" fill="#061F4A"/>
<path d="M23.9923 48.4395C23.9357 48.4395 23.8602 48.4395 23.8035 48.4207L17.8736 46.9127C17.2882 46.7619 16.8916 46.2341 16.8916 45.6497V42.4264C16.8916 42.1814 17.0049 41.9552 17.1938 41.8044C17.3826 41.6536 17.6281 41.597 17.8736 41.6724L23.8035 43.1993C24.3889 43.3501 24.7855 43.8779 24.7855 44.4622V47.6478C24.7855 47.8929 24.6722 48.1191 24.4834 48.2699C24.3323 48.383 24.1623 48.4395 23.9923 48.4395ZM17.6848 41.8044C17.5526 41.8044 17.4204 41.8421 17.326 41.9363C17.1749 42.0494 17.0993 42.2191 17.0993 42.4076V45.6309C17.0993 46.1398 17.4393 46.5922 17.9492 46.7242L23.879 48.2322C24.0679 48.2699 24.2379 48.2322 24.3889 48.1191C24.54 48.006 24.6156 47.8363 24.6156 47.6478V44.4245C24.6156 43.9155 24.2756 43.4632 23.7657 43.3312L17.8358 41.8044C17.7792 41.8044 17.7225 41.8044 17.6848 41.8044Z" fill="#061F4A"/>
<path d="M22.2547 46.5736L19.4597 45.8573C19.2142 45.8007 19.0254 45.5557 19.0254 45.3106V43.8026C19.0254 43.5953 19.2331 43.4256 19.4409 43.4822L22.2358 44.1985C22.4813 44.255 22.6702 44.5001 22.6702 44.7451V46.2531C22.6513 46.4793 22.4436 46.6301 22.2547 46.5736Z" fill="#061F4A"/>
<path d="M22.33 46.6866C22.2922 46.6866 22.2544 46.6866 22.2166 46.6677L19.4406 45.9514C19.1384 45.876 18.9307 45.6121 18.9307 45.3105V43.8025C18.9307 43.6706 18.9873 43.5575 19.1006 43.4632C19.1951 43.3878 19.3272 43.3501 19.4594 43.3878L22.2544 44.1041C22.5566 44.1795 22.7643 44.4434 22.7643 44.745V46.253C22.7643 46.385 22.7077 46.4981 22.5943 46.5923C22.4999 46.6489 22.4244 46.6866 22.33 46.6866ZM22.2733 46.4792C22.3488 46.4981 22.4244 46.4792 22.481 46.4415C22.5377 46.4038 22.5755 46.3284 22.5755 46.253V44.745C22.5755 44.5188 22.4244 44.3303 22.2166 44.2738L19.4028 43.5763C19.3272 43.5575 19.2517 43.5763 19.1951 43.614C19.1384 43.6517 19.1006 43.7271 19.1006 43.8025V45.3105C19.1006 45.5367 19.2517 45.7252 19.4594 45.7818L22.2733 46.4792Z" fill="#061F4A"/>
<path d="M67.0874 54.1323L49.09 69.6458C48.5801 70.0982 47.7681 69.7401 47.7492 69.0615L47.0693 45.0467L51.5262 29.5898L66.7286 17.9971L67.0874 54.1323Z" fill="#061F4A"/>
<path d="M48.5613 70.117C48.4102 70.117 48.2592 70.0793 48.1081 70.0227C47.7115 69.8531 47.466 69.4761 47.4471 69.0614L46.7861 45.0278C46.7861 44.9901 46.7861 44.9712 46.805 44.9335L51.2619 29.4766C51.2808 29.42 51.3185 29.3635 51.3563 29.3258L66.5587 17.7331C66.6531 17.6765 66.7664 17.6577 66.8608 17.6954C66.9553 17.7331 67.0119 17.8462 67.0119 17.9404L67.3707 54.0757C67.3707 54.1511 67.333 54.2454 67.2763 54.3019L49.2789 69.8154C49.0712 70.0227 48.8068 70.117 48.5613 70.117ZM47.3527 45.0655L48.0137 69.0425C48.0137 69.2499 48.1458 69.4195 48.3347 69.5138C48.5235 69.5892 48.7313 69.5703 48.9012 69.4384L66.8042 54.0192L66.4643 18.5813L51.7718 29.7405L47.3527 45.0655Z" fill="#061F4A"/>
</svg>
