<svg width="34" height="34" viewBox="0 0 34 34" fill="none" xmlns="http://www.w3.org/2000/svg">
<path d="M15.6332 25.3C15.6332 25.2667 15.6332 25.2333 15.5998 25.2333L2.93316 18.5L6.36649 12C6.19983 11.9667 5.99983 11.9667 5.83316 11.9333C5.46649 11.9 5.13317 11.6667 4.79983 11.4L1.0665 18.4667C0.866496 18.8667 0.999829 19.3667 1.39983 19.6L17.2665 28.0333C16.4998 27.1 15.8998 26.1333 15.6332 25.3Z" fill="#3E5172"/>
<path d="M32.3666 23.0667L30.4666 20.7667C30.2 20.9 29.9333 21.0333 29.6666 21.1333C29.4 21.2333 29.1 21.3333 28.8 21.4L30.5333 23.4667L21.4 31.0333L4.36663 10.4667L13.5 2.89999L19.4 9.99999C19.5333 9.73333 19.6666 9.46666 19.8333 9.23333C19.9666 8.99999 20.1333 8.76666 20.3333 8.53332L14.2666 1.19999C13.9666 0.833325 13.4666 0.799991 13.1 1.09999L2.69996 9.73333C2.33329 10.0333 2.29996 10.5667 2.59996 10.9L20.7 32.7333C20.8666 32.9333 21.1 33.0333 21.3333 33.0333C21.5333 33.0333 21.7 32.9667 21.8666 32.8333L32.2666 24.2C32.4333 24.0667 32.5333 23.8667 32.5666 23.6333C32.6 23.4667 32.5333 23.2333 32.3666 23.0667Z" fill="#3E5172"/>
<path d="M13.3307 2.42406L3.95996 10.184L8.297 15.4213L17.6678 7.66142L13.3307 2.42406Z" fill="#3E5172"/>
<path d="M26.7658 7.26666C23.2992 7.26666 20.4658 10.1 20.4658 13.5667C20.4658 17.0333 23.2658 19.8667 26.7658 19.8667C30.2325 19.8667 33.0658 17.0333 33.0658 13.5667C33.0325 10.1 30.2325 7.26666 26.7658 7.26666ZM30.5325 14.7667H27.9325V17.3667H25.5325V14.7667H22.9325V12.3667H25.5325V9.76666H27.9325V12.3667H30.5325V14.7667Z" fill="#3E5172"/>
</svg>
