<?xml version="1.0" encoding="UTF-8"?>
<svg width="34px" height="30px" viewBox="0 0 34 30" version="1.1" xmlns="http://www.w3.org/2000/svg" xmlns:xlink="http://www.w3.org/1999/xlink">
    <!-- Generator: Sketch 63.1 (92452) - https://sketch.com -->
    <title>a1000h-icon5</title>
    <desc>Created with Sketch.</desc>
    <g id="Page-1" stroke="none" stroke-width="1" fill="none" fill-rule="evenodd">
        <g id="a1000h-icon5" fill="#FFFFFF" fill-rule="nonzero">
            <path d="M22.5003,24.9333 L22.5003,26.9666 C22.5003,28.2666 21.467,29.3 20.166992,29.3 L3.00033,29.3 C1.70033,29.3 0.666992,28.2666 0.666992,26.9666 L0.666992,24.9333 C0.666992,21.7 3.03366,19 6.13366,18.5 L6.13366,22.4333 C5.06699,22.7666 4.166992,23.9333 4.166992,25.0666 C4.166992,26.5666 5.40032,27.8 6.90032,27.8 C8.40032,27.8 9.63366,26.5666 9.63366,25.0666 C9.63366,23.9333 8.76699,22.7666 7.666992,22.4333 L7.666992,18.4333 C7.96699,18.4666 8.46699,18.6 8.76699,18.7 C9.50032,18.9666 10.767,19.1666 11.567,19.1666 C12.467,19.1666 13.867,18.9 14.7003,18.5666 L14.7003,20.8 C12.967,21.1666 11.567,22.8666 11.567,24.6333 L11.567,26.7 C11.567,27.0666 11.867,27.4333 12.2337,27.4666 L13.767,27.6666 C13.8003,27.6666 13.8337,27.6666 13.8337,27.6666 C14.0003,27.6666 14.166992,27.5333 14.2003,27.3666 L14.367,26.6 C14.367,26.5666 14.367,26.5333 14.367,26.5333 C14.367,26.3666 14.2337,26.2 14.067,26.1666 L13.1337,25.9666 L13.1337,24.7333 C13.1337,23.6 13.9003,22.5666 15.0003,22.3333 C15.1337,22.3 15.3337,22.3 15.467,22.3 C16.767,22.3 17.8003,23.3333 17.8003,24.6333 L17.8003,25.9333 L16.867,26.1333 C16.7003,26.1666 16.567,26.3333 16.567,26.5 C16.567,26.5333 16.567,26.5666 16.567,26.5666 L16.7337,27.3333 C16.767,27.5 16.9337,27.6333 17.1003,27.6333 C17.1337,27.6333 17.166992,27.6333 17.166992,27.6333 L18.7337,27.3333 C19.067,27.2666 19.367,26.9333 19.367,26.5666 L19.367,24.6 C19.367,22.8333 17.967,21.1333 16.2337,20.7666 L16.2337,18.3666 C19.7337,18.6 22.5003,21.4333 22.5003,24.9333 Z M5.33366,10.6 C5.33366,7.16664 8.13366,4.36664 11.567,4.36664 C15.0003,4.36664 17.8003,7.16664 17.8003,10.6 C17.8003,14.0333 15.0003,16.8333 11.567,16.8333 C8.13366,16.8333 5.33366,14.0333 5.33366,10.6 Z M6.90032,23.8666 C7.53366,23.8666 8.06699,24.4 8.06699,25.0333 C8.06699,25.6666 7.53366,26.2 6.90032,26.2 C6.26699,26.2 5.73366,25.6666 5.73366,25.0333 C5.73366,24.3666 6.26699,23.8666 6.90032,23.8666 Z" id="Shape"></path>
            <path d="M26.6001,11.2332 C27.9071,11.2332 28.9667,10.1736 28.9667,8.86651 C28.9667,7.55944 27.9071,6.49985 26.6001,6.49985 C25.293,6.49985 24.2334,7.55944 24.2334,8.86651 C24.2334,10.1736 25.293,11.2332 26.6001,11.2332 Z" id="Path"></path>
            <path d="M29.3329,16.8999 C30.2902,16.8999 31.0663,16.1238 31.0663,15.1665 C31.0663,14.2092 30.2902,13.4332 29.3329,13.4332 C28.3757,13.4332 27.5996,14.2092 27.5996,15.1665 C27.5996,16.1238 28.3757,16.8999 29.3329,16.8999 Z" id="Path"></path>
            <path d="M21.2997,9.26647 C22.257,9.26647 23.0331,8.49043 23.0331,7.53314 C23.0331,6.57584 22.257,5.7998 21.2997,5.7998 C20.3425,5.7998 19.5664,6.57584 19.5664,7.53314 C19.5664,8.49043 20.3425,9.26647 21.2997,9.26647 Z" id="Path"></path>
            <path d="M27.2333,4.13317 C28.1906,4.13317 28.9667,3.35713 28.9667,2.39984 C28.9667,1.44254 28.1906,0.666504 27.2333,0.666504 C26.276,0.666504 25.5,1.44254 25.5,2.39984 C25.5,3.35713 26.276,4.13317 27.2333,4.13317 Z" id="Path"></path>
            <path d="M31.5995,10.6332 C32.5568,10.6332 33.3329,9.85713 33.3329,8.89984 C33.3329,7.94254 32.5568,7.1665 31.5995,7.1665 C30.6422,7.1665 29.8662,7.94254 29.8662,8.89984 C29.8662,9.85713 30.6422,10.6332 31.5995,10.6332 Z" id="Path"></path>
            <path d="M21.8661,16.4999 C22.8234,16.4999 23.5995,15.7238 23.5995,14.7665 C23.5995,13.8092 22.8234,13.0332 21.8661,13.0332 C20.9089,13.0332 20.1328,13.8092 20.1328,14.7665 C20.1328,15.7238 20.9089,16.4999 21.8661,16.4999 Z" id="Path"></path>
            <path d="M21.8665,15.4998 C21.6999,15.4998 21.5332,15.4332 21.3998,15.3332 C21.0665,15.0665 21.0332,14.5998 21.2998,14.2998 L26.0332,8.39985 C26.2999,8.06651 26.7665,8.03318 27.0665,8.29985 C27.3998,8.56651 27.4332,9.03318 27.1665,9.33318 L22.4332,15.2332 C22.2998,15.3998 22.0999,15.4998 21.8665,15.4998 Z" id="Path"></path>
            <path d="M27.0336,9.59989 C26.9669,9.59989 26.9336,9.59989 26.8669,9.56656 L21.1336,8.23322 C20.7336,8.13322 20.5002,7.73322 20.6002,7.33322 C20.7002,6.93322 21.1002,6.69989 21.5002,6.79989 L27.2336,8.16656 C27.6336,8.26656 27.8669,8.66656 27.7669,9.06656 C27.6669,9.39989 27.3669,9.59989 27.0336,9.59989 Z" id="Path"></path>
            <path d="M31.5999,9.79983 L26.5666,9.59983 C26.1666,9.56649 25.8332,9.23316 25.8666,8.83316 C25.8999,8.43316 26.2332,8.09983 26.6332,8.13316 L31.6332,8.33316 C32.0332,8.36649 32.3666,8.69983 32.3332,9.09983 C32.3332,9.46649 31.9999,9.79983 31.5999,9.79983 Z" id="Path"></path>
            <path d="M29.4662,15.4999 C29.1662,15.4999 28.8995,15.3332 28.7995,15.0332 L26.3329,9.1332 C26.1662,8.76653 26.3662,8.3332 26.7328,8.16653 C27.0995,7.99987 27.5329,8.19987 27.6995,8.56653 L30.1662,14.4665 C30.3329,14.8332 30.1329,15.2665 29.7662,15.4332 C29.6662,15.4999 29.5662,15.4999 29.4662,15.4999 Z" id="Path"></path>
            <path d="M26.6001,9.59981 C26.5668,9.59981 26.5668,9.59981 26.5335,9.59981 C26.1335,9.56648 25.8335,9.19981 25.8668,8.79981 L26.4334,2.79981 C26.4668,2.39981 26.8334,2.09981 27.2334,2.13315 C27.6334,2.16648 27.9334,2.53314 27.9001,2.93314 L27.3335,8.93314 C27.3001,9.33314 27.0001,9.59981 26.6001,9.59981 Z" id="Path"></path>
        </g>
    </g>
</svg>