<svg width="32" height="32" viewBox="0 0 32 32" fill="none" xmlns="http://www.w3.org/2000/svg">
<path d="M29.3006 12.1H15.1006C13.7339 12.1 12.6006 13.2333 12.6006 14.6V28.8333C12.6006 30.2 13.7006 31.3333 15.1006 31.3333H29.3006C30.6672 31.3333 31.8006 30.2 31.8006 28.8333V14.6C31.8006 13.2333 30.6672 12.1 29.3006 12.1ZM22.2006 26.4C19.6006 26.4 17.5006 24.3 17.5006 21.7C17.5006 21 17.6339 20.3333 17.9339 19.7333C18.2006 19.8333 18.5006 19.9 18.7673 19.9C20.1006 19.9 21.1673 18.8333 21.1673 17.5C21.1673 17.3667 21.1672 17.2333 21.1339 17.1C21.4672 17.0333 21.8339 16.9667 22.2006 16.9667C24.2006 16.9667 25.9006 18.2 26.5673 19.9667C26.1006 20.3 25.8006 20.8333 25.8006 21.4333C25.8006 22.1 26.1672 22.6667 26.7006 23C26.1339 24.9667 24.3339 26.4 22.2006 26.4Z" fill="#3E5172"/>
<path d="M9.50098 5.76663H8.00098V14.8H9.50098V5.76663Z" fill="#3E5172"/>
<path d="M6.30135 8.56662L5.40137 7.36662L8.7347 4.83328L12.068 7.36662L11.168 8.56662L8.7347 6.73328L6.30135 8.56662Z" fill="#3E5172"/>
<path d="M15.7334 0.699982H3.16673C1.53339 0.699982 0.233398 1.99998 0.233398 3.63332V16.2C0.233398 17.8333 1.56673 19.1333 3.16673 19.1333H10.4667V17.6666H3.16673C2.36673 17.6666 1.70005 17 1.70005 16.2V3.63332C1.70005 2.83332 2.36673 2.16665 3.16673 2.16665H15.7334C16.5334 2.16665 17.2001 2.83332 17.2001 3.63332V9.93332H18.6667V3.63332C18.6667 1.99998 17.3334 0.699982 15.7334 0.699982Z" fill="#3E5172"/>
</svg>
