<svg width="56" height="63" viewBox="0 0 56 63" fill="none" xmlns="http://www.w3.org/2000/svg">
<path d="M33.9552 62.4177H31.7079C31.3679 62.4177 31.0469 62.38 30.7258 62.3046L4.45685 55.8579C3.87142 55.7071 3.34264 55.4432 2.8894 55.0474L2.00181 54.2745C1.35972 53.7279 0.982018 52.9173 0.944248 52.0879L0 26.8479C0 26.7725 4.31961e-07 26.6971 0.0188854 26.6406L4.07915 13.2571C4.19246 12.8424 4.49462 12.522 4.89121 12.3335C5.28779 12.145 5.74103 12.1638 6.11873 12.3523L7.79949 13.1629L34.6917 19.3833L38.1099 19.7415C38.7519 19.798 39.3374 20.1373 39.7151 20.6651C40.0928 21.1929 40.225 21.8338 40.0928 22.4747C40.0928 22.4936 40.0739 22.5124 40.0739 22.5313L35.4282 36.9514L36.3347 59.9295C36.3536 60.5892 36.1269 61.2113 35.6548 61.7014C35.2393 62.1538 34.635 62.4177 33.9552 62.4177ZM1.34083 26.9044L2.2662 52.0314C2.28508 52.5026 2.49282 52.955 2.87051 53.2755L3.75811 54.0483C4.04138 54.2934 4.4002 54.4819 4.7779 54.5761L31.0469 61.0039C31.2735 61.0605 31.5001 61.0793 31.7079 61.0793H33.9552C34.2573 61.0793 34.5406 60.9662 34.7483 60.74C34.9561 60.5327 35.0694 60.2499 35.0505 59.9483L34.144 36.8572C34.144 36.7818 34.144 36.7064 34.1818 36.631L38.8464 22.1354C38.903 21.8904 38.8464 21.6265 38.6953 21.4191C38.5442 21.1929 38.2987 21.061 38.0343 21.0421L34.5784 20.684C34.5595 20.684 34.5217 20.684 34.5028 20.6651L7.49733 14.4258C7.44068 14.407 7.40291 14.407 7.36514 14.3693L5.60883 13.521C5.55218 13.5022 5.51441 13.5022 5.49552 13.521C5.47664 13.5399 5.43887 13.5587 5.41998 13.6153L1.34083 26.9044Z" fill="#004481"/>
<path d="M30.2351 36.9325C29.8574 36.9325 29.4986 36.8759 29.1398 36.7817L4.09829 30.1653C3.0785 29.9014 2.20979 29.2605 1.62436 28.3935L0.604572 26.8666C0.566802 26.8289 0.585687 26.7724 0.623457 26.7347C0.661227 26.697 0.717882 26.7158 0.755652 26.7535L1.77544 28.2804C2.3231 29.1097 3.17293 29.7129 4.13606 29.9768L29.1964 36.5932C29.5363 36.6874 29.8952 36.7251 30.254 36.7251H34.8241C34.8808 36.7251 34.9186 36.7628 34.9186 36.8194C34.9186 36.8759 34.8808 36.9136 34.8241 36.9136L30.2351 36.9325Z" fill="#004481"/>
<path d="M39.1103 21.551C38.9025 21.551 38.7137 21.4567 38.5815 21.2871C38.3549 21.0043 38.4115 20.5896 38.7137 20.3634L54.3315 8.45029C54.4449 8.37489 54.426 8.26179 54.426 8.20524C54.4071 8.14869 54.3693 8.05444 54.2371 8.01674L25.4753 1.40043C24.6255 1.21193 23.7001 1.36273 22.9636 1.85282L5.36283 13.5963C5.06067 13.8037 4.6452 13.7094 4.43747 13.4078C4.22973 13.1062 4.32416 12.6915 4.62632 12.4842L22.246 0.759529C23.2847 0.0620829 24.5688 -0.164116 25.7775 0.118633L54.5393 6.7538C55.1436 6.88575 55.5779 7.35699 55.7101 7.94134C55.8423 8.54454 55.6157 9.14774 55.1247 9.50588L39.5068 21.419C39.3935 21.5133 39.2425 21.551 39.1103 21.551Z" fill="#004481"/>
<path d="M34.3894 62.4175H32.2176C31.8588 62.4175 31.5566 62.1159 31.5566 61.7578C31.5566 61.3996 31.8588 61.098 32.2176 61.098H34.3894C35.1259 61.098 35.8435 60.8341 36.4101 60.3629L53.3121 46.1312C54.1242 45.4338 54.5963 44.4347 54.5963 43.3603L54.4074 8.18636C54.4074 7.82821 54.6907 7.52661 55.0684 7.52661C55.4272 7.52661 55.7294 7.82821 55.7294 8.18636L55.9182 43.3603C55.9182 44.8306 55.2762 46.2066 54.1619 47.1491L37.2599 61.3808C36.4667 62.0405 35.4469 62.4175 34.3894 62.4175Z" fill="#004481"/>
<path d="M31.2926 61.8521C31.236 61.8521 31.1982 61.8144 31.1982 61.7578L29.744 39.1568C29.6496 37.6111 29.8196 36.0654 30.2539 34.5763L34.5219 19.9865C34.5408 19.9299 34.5975 19.9111 34.6352 19.9299C34.6919 19.9488 34.7108 20.0053 34.6919 20.043L30.4428 34.6328C30.0084 36.1031 29.8385 37.63 29.9329 39.1568L31.387 61.7578C31.4059 61.7955 31.3681 61.8332 31.2926 61.8521C31.3115 61.8521 31.3115 61.8521 31.2926 61.8521Z" fill="#004481"/>
<path d="M3.89048 55.1226C3.83383 55.1226 3.79606 55.0849 3.79606 55.0283L2.62519 32.5215C2.53077 30.5988 2.77627 28.7138 3.34282 26.8854L7.5164 13.7282C7.53528 13.6716 7.59194 13.6528 7.6297 13.6716C7.68636 13.6905 7.70525 13.747 7.68636 13.7847L3.53167 26.9608C2.96512 28.7704 2.71962 30.6365 2.81404 32.5404L3.98491 55.0472C3.98491 55.0849 3.94714 55.1226 3.89048 55.1226Z" fill="#004481"/>
<path d="M11.9923 39.4395C11.9357 39.4395 11.8602 39.4395 11.8035 39.4207L5.87362 37.9127C5.28819 37.7619 4.8916 37.2341 4.8916 36.6497V33.4264C4.8916 33.1814 5.00491 32.9552 5.19376 32.8044C5.38261 32.6536 5.62812 32.597 5.87362 32.6724L11.8035 34.1993C12.3889 34.3501 12.7855 34.8779 12.7855 35.4622V38.6478C12.7855 38.8929 12.6722 39.1191 12.4834 39.2699C12.3323 39.383 12.1623 39.4395 11.9923 39.4395ZM5.68477 32.8044C5.55258 32.8044 5.42038 32.8421 5.32596 32.9363C5.17488 33.0494 5.09934 33.2191 5.09934 33.4076V36.6309C5.09934 37.1398 5.43927 37.5922 5.94916 37.7242L11.879 39.2322C12.0679 39.2699 12.2379 39.2322 12.3889 39.1191C12.54 39.006 12.6156 38.8363 12.6156 38.6478V35.4245C12.6156 34.9155 12.2756 34.4632 11.7657 34.3312L5.83585 32.8044C5.77919 32.8044 5.72254 32.8044 5.68477 32.8044Z" fill="#004481"/>
<path d="M10.2547 37.5736L7.45975 36.8573C7.21424 36.8007 7.02539 36.5557 7.02539 36.3106V34.8026C7.02539 34.5953 7.23312 34.4256 7.44086 34.4822L10.2358 35.1985C10.4813 35.255 10.6702 35.5001 10.6702 35.7451V37.2531C10.6513 37.4793 10.4436 37.6301 10.2547 37.5736Z" fill="#004481"/>
<path d="M10.33 37.6866C10.2922 37.6866 10.2544 37.6866 10.2166 37.6677L7.44056 36.9514C7.1384 36.876 6.93066 36.6121 6.93066 36.3105V34.8025C6.93066 34.6706 6.98732 34.5575 7.10063 34.4632C7.19505 34.3878 7.32725 34.3501 7.45944 34.3878L10.2544 35.1041C10.5566 35.1795 10.7643 35.4434 10.7643 35.745V37.253C10.7643 37.385 10.7077 37.4981 10.5943 37.5923C10.4999 37.6489 10.4244 37.6866 10.33 37.6866ZM10.2733 37.4792C10.3488 37.4981 10.4244 37.4792 10.481 37.4415C10.5377 37.4038 10.5755 37.3284 10.5755 37.253V35.745C10.5755 35.5188 10.4244 35.3303 10.2166 35.2738L7.40279 34.5763C7.32725 34.5575 7.25171 34.5763 7.19505 34.614C7.1384 34.6517 7.10063 34.7271 7.10063 34.8025V36.3105C7.10063 36.5367 7.25171 36.7252 7.45944 36.7818L10.2733 37.4792Z" fill="#004481"/>
<path d="M55.0874 45.1323L37.09 60.6458C36.5801 61.0982 35.7681 60.7401 35.7492 60.0615L35.0693 36.0467L39.5262 20.5898L54.7286 8.99707L55.0874 45.1323Z" fill="#004481"/>
<path d="M36.5613 61.117C36.4102 61.117 36.2592 61.0793 36.1081 61.0227C35.7115 60.8531 35.466 60.4761 35.4471 60.0614L34.7861 36.0278C34.7861 35.9901 34.7861 35.9712 34.805 35.9335L39.2619 20.4766C39.2808 20.42 39.3185 20.3635 39.3563 20.3258L54.5587 8.73309C54.6531 8.67655 54.7664 8.6577 54.8608 8.69539C54.9553 8.73309 55.0119 8.84619 55.0119 8.94044L55.3707 45.0757C55.3707 45.1511 55.333 45.2454 55.2763 45.3019L37.2789 60.8154C37.0712 61.0227 36.8068 61.117 36.5613 61.117ZM35.3527 36.0655L36.0137 60.0425C36.0137 60.2499 36.1458 60.4195 36.3347 60.5138C36.5235 60.5892 36.7313 60.5703 36.9012 60.4384L54.8042 45.0192L54.4643 9.58134L39.7718 20.7405L35.3527 36.0655Z" fill="#004481"/>
</svg>
