<svg width="25" height="36" viewBox="0 0 25 36" fill="none" xmlns="http://www.w3.org/2000/svg">
<path d="M16.0375 22.3448L13.9892 22.0655L13.0582 20.2035C12.7789 19.5517 12.2203 19.5517 11.941 20.2035L11.0099 22.0655L8.96164 22.3448C8.21682 22.4379 8.12371 22.9035 8.58923 23.4621L10.0789 24.9517L9.70647 27C9.61337 27.7448 9.98578 28.0241 10.6375 27.6517L12.4996 26.7207L14.3616 27.6517C15.0134 28.0241 15.3858 27.6517 15.2927 27L14.9203 24.9517L16.4099 23.4621C16.9685 22.9035 16.7823 22.4379 16.0375 22.3448ZM23.672 0H15.572C15.1996 0 14.9203 0.186207 14.7341 0.465517L9.24095 10.5207C10.2651 10.2414 11.3823 10.0552 12.4996 10.0552C14.8272 10.0552 16.9685 10.6138 18.8306 11.6379L24.5099 1.39655C24.7892 0.744828 24.3237 0 23.672 0Z" fill="#3E5172"/>
<path d="M11.103 2.23447L10.2651 0.744814C10.0789 0.465504 9.79957 0.279297 9.42715 0.279297H1.32715C0.582323 0.279297 0.209909 1.02412 0.48922 1.67585L5.88922 11.5448L11.103 2.23447ZM12.4996 12.3827C6.26163 12.3827 1.14094 17.4103 1.14094 23.7414C1.14094 29.9793 6.16853 35.1 12.4996 35.1C18.7375 35.1 23.8582 30.0724 23.8582 23.7414C23.8582 17.5034 18.7375 12.3827 12.4996 12.3827ZM12.4996 30.3517C8.77543 30.3517 5.79612 27.3724 5.79612 23.6483C5.79612 19.9241 8.77543 16.9448 12.4996 16.9448C16.2237 16.9448 19.203 19.9241 19.203 23.6483C19.203 27.3724 16.2237 30.3517 12.4996 30.3517Z" fill="#3E5172"/>
</svg>
