<svg width="31" height="29" viewBox="0 0 31 29" fill="none" xmlns="http://www.w3.org/2000/svg">
<path d="M15.7422 21.5166C15.7422 20.225 16.1459 19.014 16.7917 18.0453H6.29688C2.82552 18.0453 0 20.8708 0 24.3422V27.1677C0 27.6521 0.403646 28.1364 0.968751 28.1364H19.375C17.0339 26.1989 15.7422 23.8578 15.7422 21.5166ZM14.0469 0.204102C9.76824 0.204102 6.29688 3.67546 6.29688 7.95411C6.29688 12.2328 9.76824 15.7041 14.0469 15.7041C18.3255 15.7041 21.7969 12.2328 21.7969 7.95411C21.7969 3.67546 18.3255 0.204102 14.0469 0.204102Z" fill="#3E5172"/>
<path d="M27.8519 17.803C25.8337 17.803 24.3805 19.7405 24.3805 19.7405C24.3805 19.7405 23.654 17.803 20.9092 17.803C19.1331 17.803 17.7607 19.4983 17.7607 21.5165C17.7607 24.7457 21.1514 27.2483 23.2503 28.3785C23.9769 28.7822 24.8649 28.8629 25.6722 28.4592C27.6904 27.4098 31.0003 25.1493 31.0003 21.5165C31.0003 19.4983 29.5472 17.803 27.8519 17.803Z" fill="#3E5172"/>
</svg>
