<svg width="36" height="38" viewBox="0 0 36 38" fill="none" xmlns="http://www.w3.org/2000/svg">
<path d="M35.4789 23.4715C34.5853 22.3792 33.0959 22.1806 32.0037 23.0743L24.9539 28.5354C24.5567 28.8333 24.1595 28.9326 23.7623 28.9326H18.6984C18.0033 28.9326 17.4076 28.3368 17.4076 27.7411C17.4076 27.046 18.0033 26.4503 18.5991 26.4503H22.8687C24.2588 26.4503 25.351 25.358 25.351 23.9679C25.351 22.5778 24.2588 21.4856 22.8687 21.4856H18.2019H15.0245H13.2373H12.5422C11.2514 21.4856 9.96058 21.9821 8.86835 22.7764L5.39309 25.4573C5.1945 25.6559 5.09521 25.9538 5.29379 26.1524L11.9464 34.5923C12.0457 34.6916 12.145 34.7909 12.3436 34.7909L20.4857 34.8902H22.7694C24.1595 34.8902 25.4503 34.493 26.5425 33.5994L35.0818 26.8474C36.174 26.0531 36.2733 24.4644 35.4789 23.4715Z" fill="#3E5172"/>
<path d="M3.4073 27.7411C3.20871 27.5425 2.91083 27.4432 2.71225 27.6418L1.12356 28.8333C0.924969 29.0319 0.825676 29.3297 1.02426 29.5283L7.57761 37.7697C7.7762 37.9683 8.07408 38.0676 8.27267 37.869L9.86136 36.6774C10.0599 36.4789 10.1592 36.181 9.96065 35.9824L3.4073 27.7411ZM22.5709 0.931885C17.7055 0.931885 13.8331 4.80432 13.8331 9.66969C13.8331 14.5351 17.7055 18.4075 22.5709 18.4075C27.4363 18.4075 31.3087 14.5351 31.3087 9.66969C31.3087 4.90361 27.337 0.931885 22.5709 0.931885ZM22.0744 8.081L24.0603 9.07393C25.2518 9.66969 25.9469 10.9605 25.649 12.3506C25.4504 13.4428 24.8546 14.2372 23.8617 14.6343V14.9322C23.8617 15.6273 23.2659 16.223 22.5709 16.223C21.8758 16.223 21.2801 15.6273 21.2801 14.9322V14.7336C20.2871 14.4358 19.4928 13.7407 19.0956 12.7478C18.7977 12.152 19.0956 11.3577 19.6914 11.1591C20.2871 10.8612 21.0815 11.1591 21.2801 11.7548C21.4787 12.2513 21.9751 12.5492 22.4716 12.4499C22.8688 12.3506 22.9681 12.152 22.9681 11.9534C22.9681 11.8541 22.9681 11.457 22.6702 11.3577L20.6843 10.3647C19.4928 9.76898 18.7977 8.37888 19.0956 7.08806C19.2942 5.89655 20.1879 5.00291 21.2801 4.70503V4.40715C21.4787 3.7121 21.9751 3.11634 22.6702 3.11634C23.3652 3.11634 23.961 3.7121 23.961 4.40715V4.90361C24.7553 5.30079 25.3511 5.89655 25.7483 6.69089C26.0462 7.28665 25.7483 8.081 25.1525 8.27958C24.5568 8.57746 23.7624 8.27958 23.5638 7.68382C23.3652 7.18736 22.8688 6.88948 22.3723 6.98877C21.9751 6.98877 21.8758 7.28665 21.8758 7.48524C21.6773 7.48524 21.6773 7.88241 22.0744 8.081Z" fill="#3E5172"/>
</svg>
