<svg width="32" height="32" viewBox="0 0 32 32" fill="none" xmlns="http://www.w3.org/2000/svg">
<path d="M17.4664 31.9001C16.9998 31.9001 16.5331 31.8001 16.0998 31.6001L13.1997 30.3334C12.2997 29.9334 11.6331 29.1667 11.3331 28.2334L10.0331 24.0667C9.79975 23.2667 9.86643 22.4334 10.2331 21.7001C10.6331 20.9667 11.2664 20.4334 12.0664 20.1667L12.5664 20.0001C13.2664 19.7667 14.0331 20.1667 14.2664 20.9001L14.7331 22.4334C14.7998 22.7001 14.9998 22.9001 15.2331 23.0334L11.3331 10.5334C11.0998 9.76672 11.2331 8.93339 11.6997 8.30006C12.1664 7.66672 12.9331 7.26672 13.7664 7.26672C14.8331 7.26672 15.7998 8.03339 16.1331 9.10006L17.3998 13.1667C17.7998 12.8667 18.2664 12.6334 18.7331 12.5667C19.4664 12.4667 20.2331 12.6667 20.8331 13.1001C21.2664 12.7001 21.8331 12.4334 22.3664 12.3667C23.0664 12.2667 23.8331 12.5001 24.4331 12.9334C24.8997 12.5334 25.4331 12.2334 25.9998 12.1667C27.1998 12.0001 28.3664 12.8001 28.7664 14.0001L31.2998 22.1334C31.5664 23.0001 31.4998 23.9001 31.0664 24.7001L29.7664 27.1667C29.3331 27.9667 28.6331 28.5667 27.7664 28.8334L18.4331 31.7334C18.1664 31.8667 17.7998 31.9001 17.4664 31.9001ZM12.9331 21.4667L12.5331 21.6001C12.0997 21.7334 11.7664 22.0334 11.5664 22.4001C11.3664 22.8001 11.3331 23.2334 11.4664 23.6667L12.7664 27.8334C12.9331 28.3667 13.2998 28.8001 13.7998 29.0001L16.6997 30.2667C17.1331 30.4667 17.5997 30.4667 18.0331 30.3334L27.3664 27.4334C27.8664 27.2667 28.2664 26.9334 28.4998 26.5001L29.7998 24.0334C30.0331 23.5667 30.0997 23.0667 29.9331 22.5667L27.3998 14.4334C27.2331 13.9001 26.7331 13.5667 26.2664 13.6334C25.8664 13.7001 25.3998 14.0334 25.1331 14.4334C24.9998 14.6334 24.7664 14.7667 24.4998 14.7667C24.2331 14.7667 23.9997 14.6334 23.8664 14.4001C23.6331 14.0001 23.0998 13.7667 22.6331 13.8334C22.2331 13.9001 21.7997 14.1667 21.5331 14.5667C21.3997 14.7667 21.1664 14.9001 20.9331 14.9001C20.6664 14.9001 20.4664 14.8001 20.3331 14.6001C20.0664 14.2334 19.4664 14.0001 18.9998 14.0667C18.5331 14.1334 17.9664 14.6001 17.8331 14.9667C17.7331 15.2667 17.4331 15.4334 17.1331 15.4334C16.8331 15.4334 16.5331 15.2001 16.4664 14.9001L14.7998 9.56672C14.6664 9.10006 14.2664 8.76672 13.8331 8.76672C13.3331 8.76672 13.0664 9.03339 12.9664 9.20006C12.7664 9.46672 12.6998 9.80006 12.7998 10.1334L16.9998 23.6001C17.1331 24.0001 16.8998 24.4001 16.4998 24.5334C15.8664 24.7334 15.1998 24.6667 14.5998 24.3667C13.9998 24.0667 13.5664 23.5334 13.3664 22.9001L12.9331 21.4667Z" fill="#FCFCFC"/>
<path d="M8.1 8.93331H1.73334C1.06667 8.93331 0.5 8.36664 0.5 7.69998V1.33331C0.5 0.666642 1.06667 0.0999756 1.73334 0.0999756H8.1C8.76666 0.0999756 9.33333 0.666642 9.33333 1.33331V7.69998C9.33333 8.39997 8.8 8.93331 8.1 8.93331Z" fill="#FCFCFC"/>
</svg>
