<svg width="80" height="80" viewBox="0 0 80 80" fill="none" xmlns="http://www.w3.org/2000/svg">
<path d="M48.3347 71.4923C48.1081 71.4923 47.8814 71.4735 47.6548 71.4169L14.5684 62.369C13.0576 61.9543 12 60.5782 12 59.0137V24.82C12 24.4618 12.3022 24.1602 12.661 24.1602C13.0198 24.1602 13.3219 24.4618 13.3219 24.82V58.9948C13.3219 59.975 13.9829 60.8233 14.9083 61.0872L47.9759 70.1351C48.3913 70.2294 48.8446 70.1351 49.2034 69.8712L66.7097 56.7894C67.0874 56.5067 67.3329 56.0354 67.3329 55.5642V19.919C67.3329 19.5609 67.6351 19.2593 67.9939 19.2593C68.3527 19.2593 68.6549 19.5609 68.6549 19.919V55.583C68.6549 56.469 68.2205 57.3361 67.5029 57.8639L49.9965 70.9457C49.5055 71.3038 48.9201 71.4923 48.3347 71.4923Z" fill="#061F4A"/>
<path d="M34.6997 10.9652L33.3022 10.6448C32.3957 10.4374 31.4137 10.6259 30.6583 11.1537L13.1142 23.1988C12 23.9716 11.9622 24.7445 12.0189 25.1403C12.0755 25.5362 12.4154 26.2525 13.7185 26.5729L18.9308 27.8547C19.2896 27.9489 19.6484 27.7227 19.7239 27.3646C19.8183 27.0064 20.3094 26.8557 19.9505 26.7803L14.0207 25.2911C13.5297 25.178 13.3408 24.9895 13.3219 24.9141C13.303 24.8387 13.4163 24.5937 13.8507 24.2921L31.3948 12.247C31.867 11.9266 32.4524 11.8135 33 11.9454L33.8499 12.1339C34.0765 11.7004 34.3598 11.3234 34.6997 10.9652Z" fill="#061F4A"/>
<path d="M44.8779 14.622L46.8609 15.0744C47.1064 14.6597 47.3519 14.2639 47.6729 13.9057L44.9346 13.2837C45.029 13.4345 45.0857 13.6041 45.0668 13.7926C45.029 14.0942 44.9912 14.3581 44.8779 14.622Z" fill="#061F4A"/>
<path d="M68.6544 19.6551C68.5599 19.2592 68.2389 18.5429 66.9169 18.2413L56.7757 15.9417C56.6624 16.3752 56.4547 16.7899 56.1714 17.148L66.6148 19.5043C67.1247 19.6174 67.3324 19.8059 67.3513 19.9001C67.3702 19.9944 67.2569 20.2583 66.8414 20.5599L50.0527 33.0951C49.4295 33.5475 48.6552 33.7171 47.9187 33.5286L39.4016 31.4551C39.0427 31.3609 38.6839 31.5871 38.6084 31.9452C38.514 32.3034 38.7406 32.6615 39.0994 32.7369L47.6165 34.8104C47.9187 34.8858 48.2397 34.9235 48.5419 34.9235C49.3728 34.9235 50.1849 34.6596 50.8647 34.1507L67.6535 21.6155C68.711 20.8615 68.7299 20.0698 68.6544 19.6551Z" fill="#061F4A"/>
<path d="M31.2247 30.8329C31.168 30.8329 31.1114 30.8329 31.0736 30.8141L26.6734 29.7396C26.3146 29.6454 26.4657 29.3815 26.5412 29.0233C26.6356 28.6652 26.9944 28.4578 27.3344 28.5332L32.2067 29.7396C32.5655 29.8339 31.9612 29.9658 31.8668 30.324C31.7912 30.6444 31.5079 30.8329 31.2247 30.8329Z" fill="#061F4A"/>
<path d="M48.4852 71.0964C48.1264 71.0964 47.8242 70.7948 47.8242 70.4367V34.9046C47.8242 34.5465 48.1264 34.2449 48.4852 34.2449C48.844 34.2449 49.1462 34.5465 49.1462 34.9046V70.4367C49.1462 70.7948 48.844 71.0964 48.4852 71.0964Z" fill="#061F4A"/>
<path d="M35.7186 35.0365C35.6997 35.0365 35.6809 35.0365 35.6431 35.0365L28.6179 33.3023C28.4857 33.2646 28.4102 33.1515 28.4102 33.0196V32.5672C28.4102 32.4164 28.5424 32.2844 28.6934 32.2844C28.8445 32.2844 28.9767 32.4164 28.9767 32.5672V32.8122L35.662 34.4522L50.8077 23.1611V22.8406C50.8077 22.6898 50.9399 22.5579 51.091 22.5579C51.2421 22.5579 51.3743 22.6898 51.3743 22.8406V23.293C51.3743 23.3873 51.3365 23.4627 51.261 23.5192L35.8886 34.9799C35.8508 35.0176 35.7753 35.0365 35.7186 35.0365Z" fill="#061F4A"/>
<path d="M23.8407 31.8698C23.8218 31.8698 23.8029 31.8698 23.7652 31.8698L16.74 30.1356C16.6078 30.0979 16.5322 29.9848 16.5322 29.8528V29.4004C16.5322 29.2496 16.6644 29.1177 16.8155 29.1177C16.9666 29.1177 17.0988 29.2496 17.0988 29.4004V29.6455L23.7841 31.2854L38.9298 19.9943V19.6739C38.9298 19.5231 39.062 19.3911 39.2131 19.3911C39.3641 19.3911 39.4963 19.5231 39.4963 19.6739V20.1263C39.4963 20.2205 39.4586 20.2959 39.383 20.3525L24.0296 31.8132C23.9729 31.8509 23.9162 31.8698 23.8407 31.8698Z" fill="#061F4A"/>
<path d="M35.7195 34.5842C35.7006 34.5842 35.6817 34.5842 35.6439 34.5842L28.6187 32.85C28.5054 32.8312 28.4299 32.7369 28.411 32.6238C28.3921 32.5107 28.4299 32.3976 28.5243 32.3411L43.7456 21.0499C43.8022 20.9934 43.8966 20.9745 43.9722 20.9934L51.1296 22.5579C51.2429 22.5768 51.3184 22.671 51.3373 22.7653C51.3562 22.8784 51.3184 22.9915 51.224 23.048L35.8705 34.5088C35.8516 34.5654 35.7761 34.5842 35.7195 34.5842ZM29.3363 32.4353L35.6439 33.9999L50.3931 22.9915L43.9722 21.5778L29.3363 32.4353Z" fill="#061F4A"/>
<path d="M30.4128 28.0997L45.1809 16.884L44.331 19.1837L31.9614 28.6275C31.8292 28.7406 31.6403 28.7783 31.4704 28.7218L30.4884 28.4767C30.3184 28.4579 30.2617 28.2128 30.4128 28.0997Z" fill="#061F4A"/>
<path d="M31.6021 28.8539C31.5454 28.8539 31.4888 28.8539 31.451 28.8351L30.469 28.59C30.3557 28.5523 30.2612 28.4581 30.2235 28.345C30.2046 28.2319 30.2424 28.0999 30.3368 28.0245L45.1048 16.8088C45.1426 16.79 45.1804 16.79 45.2181 16.8088C45.2559 16.8277 45.2559 16.8842 45.2559 16.9219L44.4061 19.2216C44.4061 19.2405 44.3872 19.2593 44.3683 19.2593L31.9987 28.7031C31.8853 28.7974 31.7532 28.8539 31.6021 28.8539ZM30.469 28.1753C30.4312 28.213 30.4123 28.2507 30.4123 28.3073C30.4312 28.3638 30.4501 28.4015 30.5067 28.4015L31.4888 28.6466C31.621 28.6843 31.772 28.6466 31.8853 28.5712L44.2361 19.1274L44.9537 17.167L30.469 28.1753Z" fill="#061F4A"/>
<path d="M23.8415 31.4174C23.8226 31.4174 23.8038 31.4174 23.766 31.4174L16.7408 29.6832C16.6275 29.6644 16.5519 29.5701 16.533 29.457C16.5142 29.3439 16.5519 29.2308 16.6464 29.1743L31.8676 17.8832C31.9243 17.8266 32.0187 17.8078 32.0943 17.8266L39.2517 19.3912C39.365 19.41 39.4405 19.5043 39.4594 19.5985C39.4783 19.7116 39.4405 19.8247 39.3461 19.8813L23.9926 31.342C23.9737 31.3985 23.9171 31.4174 23.8415 31.4174ZM17.4773 29.2685L23.7849 30.833L38.534 19.8247L32.1131 18.411L17.4773 29.2685Z" fill="#061F4A"/>
<path d="M31.7158 14.5278V16.8464L40.554 18.901V16.6013L31.7158 14.5278Z" fill="#061F4A"/>
<path d="M40.5544 19.1838C40.5355 19.1838 40.5166 19.1838 40.4977 19.1838L31.6407 17.1292C31.5085 17.0915 31.4141 16.9784 31.4141 16.8464V14.5279C31.4141 14.4336 31.4518 14.3582 31.5274 14.3017C31.6029 14.2451 31.6785 14.2263 31.7729 14.2451L40.6299 16.2998C40.7621 16.3375 40.8565 16.4506 40.8565 16.5825V18.9011C40.8565 18.9953 40.8188 19.0707 40.7432 19.1273C40.6866 19.165 40.6299 19.1838 40.5544 19.1838ZM31.9995 16.6202L40.29 18.5429V16.8087L31.9995 14.886V16.6202Z" fill="#061F4A"/>
<path d="M45.1815 11.3235V15.2254L40.5547 18.9012V16.6015L45.1815 11.3235Z" fill="#061F4A"/>
<path d="M40.5538 19.1838C40.516 19.1838 40.4782 19.1838 40.4216 19.1649C40.3272 19.1084 40.2705 19.0141 40.2705 18.901V16.5825C40.2705 16.5071 40.2894 16.4505 40.346 16.394L44.954 11.1349C45.0295 11.0406 45.1617 11.0218 45.275 11.0595C45.3883 11.0972 45.4639 11.2103 45.4639 11.3234V15.2253C45.4639 15.3196 45.4261 15.3949 45.3506 15.4515L40.7426 19.1272C40.686 19.1649 40.6104 19.1838 40.5538 19.1838ZM40.8371 16.6956V18.3167L44.8784 15.0934V12.0774L40.8371 16.6956Z" fill="#061F4A"/>
<path d="M40.5546 16.8841C40.5357 16.8841 40.5168 16.8841 40.4979 16.8841L31.6409 14.8106C31.5465 14.7917 31.4709 14.7163 31.4332 14.6221C31.3954 14.5278 31.4332 14.4147 31.4898 14.3582L36.0978 9.09905C36.1733 9.02365 36.2677 8.98595 36.381 9.0048L45.2381 11.0594C45.3325 11.0783 45.408 11.1537 45.4458 11.2479C45.4836 11.3422 45.4458 11.4553 45.3892 11.5118L40.7812 16.771C40.7246 16.8464 40.6301 16.8841 40.5546 16.8841ZM32.2263 14.377L40.4413 16.2809L44.6338 11.493L36.4188 9.58915L32.2263 14.377Z" fill="#061F4A"/>
<path d="M44.3301 17.8643V20.1639L53.1682 22.2186V19.9189L44.3301 17.8643Z" fill="#061F4A"/>
<path d="M53.1686 22.5014C53.1498 22.5014 53.1309 22.5014 53.112 22.5014L44.2549 20.4468C44.1227 20.4091 44.0283 20.296 44.0283 20.164V17.8455C44.0283 17.7512 44.0661 17.6758 44.1416 17.6193C44.2172 17.5627 44.2927 17.5439 44.3871 17.5627L53.2442 19.6174C53.3764 19.6551 53.4708 19.7682 53.4708 19.9001V22.2187C53.4708 22.3129 53.433 22.3883 53.3575 22.4449C53.3008 22.4826 53.2442 22.5014 53.1686 22.5014ZM44.6138 19.9378L52.9043 21.8605V20.1263L44.6138 18.2036V19.9378Z" fill="#061F4A"/>
<path d="M57.7948 14.6409V18.5616L53.168 22.2185V19.9188L57.7948 14.6409Z" fill="#061F4A"/>
<path d="M53.168 22.5014C53.1303 22.5014 53.0925 22.5014 53.0358 22.4826C52.9414 22.426 52.8848 22.3318 52.8848 22.2187V19.9001C52.8848 19.8247 52.9036 19.7682 52.9603 19.7116L57.5682 14.4525C57.6438 14.3582 57.776 14.3394 57.8893 14.3771C58.0026 14.4148 58.0781 14.5279 58.0781 14.641V18.5429C58.0781 18.6372 58.0404 18.7126 57.9648 18.7691L53.3569 22.4449C53.3002 22.4826 53.2436 22.5014 53.168 22.5014ZM53.4513 20.0132V21.6343L57.4927 18.411V15.395L53.4513 20.0132Z" fill="#061F4A"/>
<path d="M53.1698 20.2016C53.151 20.2016 53.1321 20.2016 53.1132 20.2016L44.2561 18.147C44.1617 18.1282 44.0862 18.0528 44.0484 17.9585C44.0106 17.8643 44.0484 17.7512 44.1051 17.6946L48.713 12.4355C48.7885 12.3601 48.883 12.3224 48.9963 12.3412L57.8533 14.3959C57.9477 14.4147 58.0233 14.4901 58.061 14.5844C58.0988 14.6786 58.0611 14.7917 58.0044 14.8483L53.3965 20.1074C53.3398 20.1639 53.2643 20.2016 53.1698 20.2016ZM44.8605 17.6946L53.0754 19.5984L57.2679 14.8106L49.0529 12.9067L44.8605 17.6946Z" fill="#061F4A"/>
<path d="M41.4609 15.6214H41.442L32.6039 13.5479C32.5472 13.529 32.5283 13.4913 32.5283 13.4348C32.5283 13.3782 32.585 13.3594 32.6416 13.3594L41.4798 15.4329C41.5365 15.4517 41.5553 15.4894 41.5553 15.546C41.5365 15.5837 41.4987 15.6214 41.4609 15.6214Z" fill="#061F4A"/>
<path d="M42.4804 14.5845H42.4616L33.6234 12.511C33.5667 12.4922 33.5479 12.4545 33.5479 12.3979C33.5667 12.3414 33.6045 12.3225 33.6612 12.3225L42.4993 14.396C42.556 14.4148 42.5749 14.4526 42.5749 14.5091C42.556 14.5468 42.5182 14.5845 42.4804 14.5845Z" fill="#061F4A"/>
<path d="M43.499 13.5476H43.4801L34.6419 11.4741C34.5853 11.4553 34.5664 11.4176 34.5664 11.361C34.5853 11.3045 34.6231 11.2856 34.6797 11.2856L43.5179 13.3591C43.5745 13.378 43.5934 13.4157 43.5934 13.4722C43.5934 13.5099 43.5556 13.5476 43.499 13.5476Z" fill="#061F4A"/>
<path d="M44.2746 12.4545H44.2558L35.682 10.4375C35.6253 10.4187 35.6064 10.381 35.6064 10.3244C35.6253 10.2679 35.6631 10.249 35.7198 10.249L44.2935 12.266C44.3502 12.2848 44.3691 12.3225 44.3691 12.3791C44.3502 12.4168 44.3124 12.4545 44.2746 12.4545Z" fill="#061F4A"/>
<path d="M53.9619 18.939H53.943L45.1048 16.8655C45.0482 16.8467 45.0293 16.809 45.0293 16.7524C45.0482 16.6959 45.086 16.677 45.1426 16.677L53.9808 18.7505C54.0374 18.7693 54.0563 18.807 54.0563 18.8636C54.0374 18.9201 53.9997 18.939 53.9619 18.939Z" fill="#061F4A"/>
<path d="M54.9814 17.9021H54.9625L46.1244 15.8286C46.0677 15.8098 46.0488 15.7721 46.0488 15.7155C46.0677 15.659 46.1055 15.6401 46.1621 15.6401L55.0003 17.7136C55.0569 17.7325 55.0758 17.7702 55.0758 17.8267C55.0758 17.8833 55.0381 17.9021 54.9814 17.9021Z" fill="#061F4A"/>
<path d="M56.0019 16.8655H55.983L47.1449 14.792C47.0882 14.7732 47.0693 14.7355 47.0693 14.6789C47.0882 14.6224 47.126 14.6035 47.1826 14.6035L56.0208 16.677C56.0775 16.6959 56.0964 16.7336 56.0964 16.7901C56.0964 16.8278 56.0586 16.8655 56.0019 16.8655Z" fill="#061F4A"/>
<path d="M57.04 15.8286H57.0211L48.183 13.7551C48.1263 13.7363 48.1074 13.6986 48.1074 13.642C48.1263 13.5855 48.1641 13.5667 48.2207 13.5667L57.0589 15.6401C57.1156 15.659 57.1344 15.6967 57.1344 15.7532C57.1156 15.7909 57.0778 15.8286 57.04 15.8286Z" fill="#061F4A"/>
<path d="M19.1948 27.6287L18.6849 29.853L18.4961 29.8153L18.9682 27.7983L19.1948 27.6287Z" fill="#061F4A"/>
<path d="M21.5739 25.8567L20.5541 30.3053L20.3652 30.2676L21.3473 26.0452L21.5739 25.8567Z" fill="#061F4A"/>
<path d="M23.9357 24.1226L22.3871 30.7577L22.1982 30.72L23.6902 24.2922L23.9357 24.1226Z" fill="#061F4A"/>
<path d="M26.3143 22.3506L24.3692 30.7388L24.1426 30.9084L26.0688 22.5202L26.3143 22.3506Z" fill="#061F4A"/>
<path d="M28.6747 20.5977L26.7484 28.967L26.5029 29.1367L28.4481 20.7673L28.6747 20.5977Z" fill="#061F4A"/>
<path d="M31.0921 18.8069L29.0336 27.2516L28.7881 27.4401L30.8654 18.9765L31.0921 18.8069Z" fill="#061F4A"/>
<path d="M33.1323 18.3356L31.4893 25.4231L31.2627 25.5928L32.9435 18.2979L33.1323 18.3356Z" fill="#061F4A"/>
<path d="M35.0017 18.7503L33.8686 23.6513L33.623 23.821L34.8128 18.7126L35.0017 18.7503Z" fill="#061F4A"/>
<path d="M31.0357 30.6633L30.5069 32.8876L30.3369 32.8499L30.7902 30.833L31.0357 30.6633Z" fill="#061F4A"/>
<path d="M33.3961 28.9104L32.3763 33.3401L32.1875 33.3024L33.1695 29.0801L33.3961 28.9104Z" fill="#061F4A"/>
<path d="M35.757 27.1575L34.2084 33.7926L34.0195 33.7549L35.5114 27.3271L35.757 27.1575Z" fill="#061F4A"/>
<path d="M38.1366 25.3855L36.1915 33.7737L35.9648 33.9434L37.91 25.574L38.1366 25.3855Z" fill="#061F4A"/>
<path d="M40.4986 23.6321L38.5723 32.0014L38.3457 32.1711L40.272 23.8017L40.4986 23.6321Z" fill="#061F4A"/>
<path d="M42.9332 21.8416L40.8559 30.2863L40.6104 30.4748L42.6877 22.0112L42.9332 21.8416Z" fill="#061F4A"/>
<path d="M44.9546 21.3702L43.3116 28.4578L43.085 28.6274L44.7657 21.3325L44.9546 21.3702Z" fill="#061F4A"/>
<path d="M46.8249 21.7848L45.6918 26.6858L45.4463 26.8743L46.636 21.7471L46.8249 21.7848Z" fill="#061F4A"/>
<path d="M67.9945 56.8834L48.4863 70.4365V34.3012L67.9945 20.9932V56.8834Z" fill="#061F4A"/>
<path d="M48.4864 70.7193C48.4486 70.7193 48.392 70.7005 48.3542 70.6816C48.2598 70.625 48.2031 70.5308 48.2031 70.4365V34.3201C48.2031 34.2259 48.2409 34.1316 48.3353 34.0939L67.8435 20.767C67.9379 20.7105 68.0512 20.7105 68.1268 20.7482C68.2212 20.8047 68.2778 20.899 68.2778 20.9932V56.9023C68.2778 56.9966 68.2401 57.0908 68.1645 57.1285L48.6564 70.6627C48.5997 70.7004 48.5431 70.7193 48.4864 70.7193ZM48.7697 34.4521V69.8899L67.7113 56.7515V21.521L48.7697 34.4521Z" fill="#061F4A"/>
</svg>
