<svg width="99" height="89" viewBox="0 0 99 89" fill="none" xmlns="http://www.w3.org/2000/svg">
<path d="M88.7998 2H29.2998V36.7H88.7998V2Z" fill="#A1B9C5" fill-opacity="0.5" stroke="#3E5172" stroke-width="4" stroke-miterlimit="10" stroke-linecap="round" stroke-linejoin="round"/>
<path d="M59.0001 29.2C64.4677 29.2 68.9001 24.7676 68.9001 19.3C68.9001 13.8324 64.4677 9.40002 59.0001 9.40002C53.5325 9.40002 49.1001 13.8324 49.1001 19.3C49.1001 24.7676 53.5325 29.2 59.0001 29.2Z" fill="#6FCF97" stroke="#3E5172" stroke-width="2" stroke-miterlimit="10" stroke-linecap="round" stroke-linejoin="round"/>
<path d="M83.7998 11.9C80.8998 11.9 78.7998 9.80002 78.7998 6.90002" stroke="#3E5172" stroke-width="2" stroke-miterlimit="10" stroke-linecap="round" stroke-linejoin="round"/>
<path d="M34.2002 26.8C37.1002 26.8 39.2002 28.9 39.2002 31.8" stroke="#3E5172" stroke-width="2" stroke-miterlimit="10" stroke-linecap="round" stroke-linejoin="round"/>
<path d="M34.2002 11.9C37.1002 11.9 39.2002 9.80002 39.2002 6.90002" stroke="#3E5172" stroke-width="2" stroke-miterlimit="10" stroke-linecap="round" stroke-linejoin="round"/>
<path d="M83.7998 26.8C80.8998 26.8 78.7998 28.9 78.7998 31.8" stroke="#3E5172" stroke-width="2" stroke-miterlimit="10" stroke-linecap="round" stroke-linejoin="round"/>
<path d="M71.5998 60.8L90.9998 56.6C92.8998 56.1 95.1998 57.1 95.9998 59C96.7998 61 95.3998 63.1 93.4998 64.1L59.5998 78.3C54.0998 80.4 47.4998 81.3 41.5998 81.3C37.5998 81.3 34.3998 80.9 30.5998 80L26.7998 78.9" fill="white"/>
<path d="M71.5998 60.8L90.9998 56.6C92.8998 56.1 95.1998 57.1 95.9998 59C96.7998 61 95.3998 63.1 93.4998 64.1L59.5998 78.3C54.0998 80.4 47.4998 81.3 41.5998 81.3C37.5998 81.3 34.3998 80.9 30.5998 80L26.7998 78.9" stroke="#3E5172" stroke-width="4" stroke-miterlimit="10" stroke-linecap="round" stroke-linejoin="round"/>
<path d="M26.8 81.3L19.3 86.3L2 54L9.4 49.1L26.8 81.3Z" fill="white" stroke="#3E5172" stroke-width="4" stroke-miterlimit="10" stroke-linecap="round" stroke-linejoin="round"/>
<path d="M41.7 66.4H65.2C68.6 66.4 71.4 63.6 71.4 60.2C71.4 56.8 68.6 54 65.2 54H49.1L47 52.5C41.9 48.7 35.8 46.7 29.5 46.7C25.5 46.7 21.6 47.4999 17.9 49.0999L12 51.7" fill="white"/>
<path d="M41.7 66.4H65.2C68.6 66.4 71.4 63.6 71.4 60.2C71.4 56.8 68.6 54 65.2 54H49.1L47 52.5C41.9 48.7 35.8 46.7 29.5 46.7C25.5 46.7 21.6 47.4999 17.9 49.0999L12 51.7" stroke="#3E5172" stroke-width="4" stroke-miterlimit="10" stroke-linecap="round" stroke-linejoin="round"/>
</svg>
