<svg width="28" height="41" viewBox="0 0 28 41" fill="none" xmlns="http://www.w3.org/2000/svg">
<path d="M27.5576 25.3426C27.1455 24.7245 26.3214 24.3124 25.4972 24.2094C25.9093 23.4883 25.9093 22.3551 25.3942 21.634C24.9821 21.0158 24.158 20.6038 23.4368 20.6038C23.8489 19.8826 23.7459 18.7494 23.2308 18.0283C22.8187 17.4102 21.7885 16.9981 21.0674 16.9981C20.9644 16.9981 20.9644 16.9981 20.8614 16.9981L25.4972 12.3623C26.1153 11.7441 26.4244 10.714 25.9093 9.8898C25.4972 9.16867 24.7761 8.75659 24.055 8.75659C23.5399 8.75659 23.0248 8.96263 22.6127 9.3747L10.9716 21.1189C10.1474 20.2947 10.1474 19.0585 10.9716 18.2343L12.3108 16.8951C12.6199 16.586 12.6199 16.174 12.3108 15.8649L11.8987 15.4528C11.3836 14.9377 10.6625 14.6287 9.94136 14.6287C9.22023 14.6287 8.4991 14.9377 7.984 15.4528L4.37834 19.0585C3.76023 19.6766 3.45117 20.6038 3.45117 21.4279L3.65721 25.1366C3.65721 25.8577 4.06928 26.5789 4.58438 27.094L12.6199 35.1294C13.238 35.7475 13.9591 36.0566 14.7832 36.0566H18.0799C18.904 36.0566 19.7282 35.7475 20.2433 35.1294L27.2485 28.1241C27.9697 27.403 28.1757 26.2698 27.5576 25.3426Z" fill="#3E5172"/>
<path d="M2.31792 28.4332C2.11189 28.2272 1.80283 28.2272 1.59679 28.4332L0.154528 29.8755C-0.0515094 30.0815 -0.0515094 30.3906 0.154528 30.5966L10.3534 40.7955C10.5594 41.0015 10.8685 41.0015 11.0745 40.7955L12.5168 39.3532C12.7228 39.1472 12.7228 38.8381 12.5168 38.6321L2.31792 28.4332ZM22.2006 0L14.4742 7.72642L10.8685 4.12076L7.77793 7.21132L14.4742 13.9076L25.2911 3.09057L22.2006 0Z" fill="#3E5172"/>
</svg>
