<svg width="23" height="31" viewBox="0 0 23 31" fill="none" xmlns="http://www.w3.org/2000/svg">
<path d="M20.6022 15.7703C19.9714 15.6802 19.1603 15.9506 18.6196 16.4011C18.4394 15.6802 17.7185 15.0494 16.9975 14.8692C16.3667 14.779 15.6458 14.9593 15.1051 15.4099C14.8347 14.6889 14.1138 14.0581 13.3929 13.968C12.672 13.8779 11.6807 14.2383 11.3202 14.779V9.10173C11.3202 8.29068 10.8696 7.56975 10.1487 7.2994C8.88708 6.93894 7.71557 7.8401 7.71557 9.01161V23.4302C6.72429 23.4302 5.91324 22.6192 5.91324 21.6279V20.0058C5.91324 19.6453 5.64289 19.375 5.28243 19.375H4.74173C3.38999 19.375 2.30859 20.4564 2.30859 21.8081V26.2238C2.30859 27.0349 2.66906 27.7558 3.20976 28.2965L5.64289 30.3692C6.09347 30.8197 6.72429 31 7.44522 31H17.358C18.0789 31 18.7999 30.7296 19.2504 30.1889L21.233 28.2064C21.7737 27.6657 22.044 27.0349 22.044 26.3139V17.5726C22.1342 16.7616 21.5033 15.8604 20.6022 15.7703Z" fill="#3E5172"/>
<path d="M1.85819 10.8139H4.56168C5.10238 10.8139 5.46284 10.4535 5.46284 9.91278V7.2093C5.46284 6.6686 5.10238 6.30813 4.56168 6.30813H1.85819C1.3175 6.30813 0.957031 6.6686 0.957031 7.2093V9.91278C0.957031 10.3634 1.3175 10.8139 1.85819 10.8139ZM4.56168 12.6163H1.85819C1.3175 12.6163 0.957031 12.9767 0.957031 13.5174V16.2209C0.957031 16.7616 1.3175 17.1221 1.85819 17.1221H4.56168C5.10238 17.1221 5.46284 16.7616 5.46284 16.2209V13.5174C5.46284 12.9767 5.10238 12.6163 4.56168 12.6163ZM17.1779 0H14.4745C13.9338 0 13.5733 0.360465 13.5733 0.901162V3.60465C13.5733 4.14535 13.9338 4.50581 14.4745 4.50581H17.1779C17.7186 4.50581 18.0791 4.14535 18.0791 3.60465V0.901162C18.0791 0.360465 17.6285 0 17.1779 0ZM1.85819 4.50581H4.56168C5.10238 4.50581 5.46284 4.14535 5.46284 3.60465V0.901162C5.46284 0.360465 5.10238 0 4.56168 0H1.85819C1.3175 0 0.957031 0.360465 0.957031 0.901162V3.60465C0.957031 4.05523 1.3175 4.50581 1.85819 4.50581ZM10.8698 0H8.16633C7.62563 0 7.26516 0.360465 7.26516 0.901162V3.60465C7.26516 4.14535 7.62563 4.50581 8.16633 4.50581H10.8698C11.4105 4.50581 11.771 4.14535 11.771 3.60465V0.901162C11.771 0.360465 11.3204 0 10.8698 0ZM17.1779 6.30813H14.4745C13.9338 6.30813 13.5733 6.6686 13.5733 7.2093V9.91278C13.5733 10.4535 13.9338 10.8139 14.4745 10.8139H17.1779C17.7186 10.8139 18.0791 10.4535 18.0791 9.91278V7.2093C18.0791 6.6686 17.6285 6.30813 17.1779 6.30813Z" fill="#3E5172"/>
</svg>
