<svg width="30" height="27" viewBox="0 0 30 27" fill="none" xmlns="http://www.w3.org/2000/svg">
<path d="M20.7891 4.51562C20.5859 4.3125 20.2812 4.3125 20.0781 4.51562L9.00781 15.5859L8.5 20.3086C8.39844 20.918 8.95703 21.4766 9.56641 21.375L14.2891 20.8672L25.3594 9.79688C25.5625 9.59375 25.5625 9.28906 25.3594 9.08594L20.7891 4.51562ZM29.0156 3.34766L26.5273 0.859375C25.7656 0.0976562 24.4961 0.0976562 23.7344 0.859375L21.957 2.63672C21.7539 2.83984 21.7539 3.14453 21.957 3.34766L26.5273 7.91797C26.7305 8.12109 27.0352 8.12109 27.2383 7.91797L29.0156 6.14062C29.7773 5.37891 29.7773 4.10938 29.0156 3.34766ZM19.875 17.8711V23H3.625V6.75H15.2539C15.457 6.75 15.6094 6.69922 15.7109 6.59766L17.7422 4.56641C18.0977 4.16016 17.8438 3.5 17.2852 3.5H2.8125C1.44141 3.5 0.375 4.61719 0.375 5.9375V23.8125C0.375 25.1836 1.44141 26.25 2.8125 26.25H20.6875C22.0078 26.25 23.125 25.1836 23.125 23.8125V15.8398C23.125 15.2812 22.4648 15.0273 22.0586 15.3828L20.0273 17.4141C19.9258 17.5156 19.875 17.668 19.875 17.8711Z" fill="#FCFCFC"/>
</svg>
