<svg width="33" height="37" viewBox="0 0 33 37" fill="none" xmlns="http://www.w3.org/2000/svg">
<path d="M16.5947 21.3142C18.1472 21.3142 19.4058 20.0557 19.4058 18.5032C19.4058 16.9507 18.1472 15.6921 16.5947 15.6921C15.0422 15.6921 13.7837 16.9507 13.7837 18.5032C13.7837 20.0557 15.0422 21.3142 16.5947 21.3142Z" fill="#3E5172"/>
<path d="M29.2443 18.4095C29.5254 18.0347 29.9002 17.7536 30.1813 17.3788C32.7113 14.1929 33.4609 11.3819 32.2427 9.32046C31.5868 8.28974 30.1813 6.97793 26.9955 6.88423C26.2459 6.88423 25.59 7.44643 25.59 8.28975C25.59 9.03935 26.1522 9.69526 26.9955 9.69526C28.4947 9.69526 29.5254 10.0701 29.8065 10.726C30.3687 11.663 29.6191 13.537 27.9325 15.5984C27.7451 15.8795 27.464 16.1606 27.1829 16.4417C26.2459 15.5984 25.2152 14.8488 24.1844 14.0055C23.5285 7.07163 20.9049 0.231445 16.5947 0.231445C13.6899 0.231445 11.5348 3.22988 10.223 7.35273C9.75447 7.25903 9.28596 7.16533 8.81746 7.07163C4.78831 6.41572 1.97727 7.25903 0.759156 9.32046C0.103247 10.4449 -0.365258 12.4126 1.41506 15.411C1.78987 16.0669 2.63318 16.348 3.38279 15.8795C4.0387 15.5047 4.3198 14.6614 3.85129 13.9118C3.00798 12.5063 2.82058 11.2882 3.19539 10.6323C3.75759 9.69526 5.72532 9.32046 8.34895 9.78896C8.72375 9.88266 9.09856 9.88266 9.47336 9.97637C9.19226 11.1945 9.00486 12.4126 8.91116 13.7244C3.10169 18.0347 -1.58337 23.7504 0.571753 27.5922C1.50877 29.2788 3.57019 30.0284 6.10012 30.0284C7.31824 30.0284 8.72376 29.841 10.1293 29.5599C11.4411 33.7765 13.5962 36.8686 16.5947 36.8686C17.9065 36.8686 19.8742 36.2127 21.6545 33.0268C22.0293 32.3709 21.7482 31.5276 21.0923 31.1528C20.4364 30.778 19.5931 31.0591 19.2183 31.715C18.375 33.2142 17.438 34.1513 16.6884 34.1513C15.4702 34.1513 14.0647 32.2772 12.9403 28.904C14.1584 28.5292 15.2828 28.0607 16.5009 27.4985C20.0616 29.0914 23.9033 30.2158 26.9955 30.2158C29.5254 30.2158 31.4931 29.4662 32.5238 27.7796C33.8357 25.0623 32.3364 21.689 29.2443 18.4095ZM3.00798 26.1867C2.16467 24.7811 4.1324 21.2205 8.53635 17.5662C8.53635 17.8473 8.53635 18.2221 8.53635 18.5032C8.53635 21.3142 8.81746 24.2189 9.37966 26.7489C6.00642 27.4985 3.66389 27.2174 3.00798 26.1867ZM16.5947 3.04248C18.1876 3.04248 20.249 6.41572 21.186 11.9441C20.9986 11.8504 20.7175 11.663 20.5301 11.5693C18.0002 10.0701 15.3765 8.94565 12.8466 8.10234C13.971 4.9165 15.3765 3.04248 16.5947 3.04248ZM12.097 25.9993C11.6285 23.8441 11.3474 21.3142 11.3474 18.5032C11.3474 15.5984 11.6285 13.0685 12.097 10.8197C14.3458 11.5693 16.6884 12.6 19.1246 14.0055C21.5608 15.411 23.6222 16.9102 25.3089 18.4095C23.5285 20.0024 21.3734 21.5016 19.0309 22.9071C16.5947 24.3126 14.2521 25.3434 12.097 25.9993ZM29.9939 26.2804C29.1506 27.6859 25.2152 27.7796 19.7805 25.7182C19.9679 25.6245 20.249 25.4371 20.4364 25.3434C23.06 23.8441 25.4026 22.1575 27.2766 20.3772C29.6191 23.0008 30.5561 25.2497 29.9939 26.2804Z" fill="#3E5172"/>
</svg>
