<svg width="26" height="27" viewBox="0 0 26 27" fill="none" xmlns="http://www.w3.org/2000/svg">
<path d="M8.9375 11.2188H17.0625C17.4688 11.2188 17.875 10.8633 17.875 10.4062V9.59375C17.875 9.1875 17.4688 8.78125 17.0625 8.78125H8.9375C8.48047 8.78125 8.125 9.1875 8.125 9.59375V10.4062C8.125 10.8633 8.48047 11.2188 8.9375 11.2188ZM8.125 15.2812C8.125 15.7383 8.48047 16.0938 8.9375 16.0938H17.0625C17.4688 16.0938 17.875 15.7383 17.875 15.2812V14.4688C17.875 14.0625 17.4688 13.6562 17.0625 13.6562H8.9375C8.48047 13.6562 8.125 14.0625 8.125 14.4688V15.2812ZM13 21.4766C12.1367 21.4766 11.3242 21.2227 10.6133 20.6641L0 12.9961V23.8125C0 25.1836 1.06641 26.25 2.4375 26.25H23.5625C24.8828 26.25 26 25.1836 26 23.8125V12.9961L15.3359 20.6641C14.625 21.2227 13.8125 21.4766 13 21.4766ZM25.0352 8.52734C24.5781 8.22266 24.1719 7.86719 23.5625 7.41016V5.125C23.5625 3.80469 22.4453 2.6875 21.125 2.6875H17.1641C17.0117 2.58594 16.8594 2.48438 16.707 2.38281C15.8438 1.77344 14.168 0.25 13 0.25C11.7812 0.25 10.1055 1.77344 9.24219 2.38281C9.08984 2.48438 8.9375 2.58594 8.78516 2.6875H4.875C3.50391 2.6875 2.4375 3.80469 2.4375 5.125V7.41016C1.77734 7.86719 1.37109 8.22266 0.914062 8.52734C0.40625 8.93359 0 9.79688 0 10.457V11.0156L4.875 14.5195V5.125H21.125V14.5195L26 11.0156V10.457C26 9.69531 25.6445 9.03516 25.0352 8.52734Z" fill="#FCFCFC"/>
</svg>
