<svg width="36" height="33" viewBox="0 0 36 33" fill="none" xmlns="http://www.w3.org/2000/svg">
<path d="M14.4447 15.0643C18.5869 15.0643 21.8287 11.7325 21.8287 7.68034C21.8287 3.53812 18.4969 0.296387 14.4447 0.296387C10.3025 0.296387 7.06078 3.62817 7.06078 7.68034C7.06078 11.7325 10.3025 15.0643 14.4447 15.0643ZM22.6391 17.4055C22.369 17.4055 22.0988 17.3155 21.8287 17.3155H19.2173C18.5869 17.3155 18.0467 17.5856 17.7765 18.1259L15.8855 20.7373C15.1651 21.7279 13.6343 21.7279 12.9139 20.7373L11.1129 18.1259C10.7527 17.6757 10.2125 17.3155 9.58212 17.3155H6.97073C3.63894 17.3155 0.9375 20.0169 0.9375 23.3487V26.0502C0.9375 26.5905 1.29769 26.9506 1.83798 26.9506H19.3073L22.5491 22.2681V17.4055H22.6391ZM9.13188 24.4293H5.52996C4.89962 24.4293 4.35933 23.889 4.35933 23.2587C4.35933 22.6283 4.89962 22.1781 5.52996 22.1781H9.13188C9.76222 22.1781 10.3025 22.7184 10.3025 23.2587C10.2125 23.9791 9.76222 24.4293 9.13188 24.4293ZM35.606 29.3819L31.5539 23.5288C31.2837 23.1686 31.1937 22.7184 31.1937 22.2681V15.9648C31.1937 15.7847 31.1036 15.6946 30.9235 15.6946H25.1605C24.9804 15.6946 24.8903 15.7847 24.8903 15.9648V22.2681C24.8903 22.7184 24.8003 23.1686 24.5301 23.5288L20.478 29.3819C19.4874 30.8227 20.478 32.8038 22.2789 32.8038H33.8951C35.606 32.8038 36.5966 30.8227 35.606 29.3819Z" fill="#3E5172"/>
<path d="M30.7434 11.1921H25.3405C24.6201 11.1921 23.9897 11.8225 23.9897 12.5429C23.9897 13.2632 24.6201 13.8936 25.3405 13.8936H30.7434C31.4637 13.8936 32.0941 13.2632 32.0941 12.5429C32.0941 11.8225 31.4637 11.1921 30.7434 11.1921Z" fill="#3E5172"/>
</svg>
