<svg width="22" height="22" viewBox="0 0 22 22" fill="none" xmlns="http://www.w3.org/2000/svg">
<path d="M11.7278 21.6667H1.51044C0.859973 21.6667 0.333008 21.1394 0.333008 20.4892V1.5108C0.333008 0.860418 0.860056 0.333374 1.51044 0.333374H20.489C21.1392 0.333374 21.6663 0.860418 21.6663 1.5108V20.4892C21.6663 21.1395 21.1391 21.6667 20.489 21.6667H15.0527V13.4053H17.8257L18.2409 10.1856H15.0527V8.1301C15.0527 7.19795 15.3115 6.56271 16.6482 6.56271L18.3531 6.56197V3.6823C18.0583 3.64307 17.0462 3.55541 15.8688 3.55541C13.4107 3.55541 11.7278 5.05583 11.7278 7.81124V10.1856H8.94773V13.4053H11.7278V21.6667Z" fill="#FCFCFC"/>
</svg>
