<svg width="22" height="22" viewBox="0 0 22 22" fill="none" xmlns="http://www.w3.org/2000/svg">
<path d="M21.6663 11C21.6663 16.8934 16.893 21.6667 10.9997 21.6667C5.10634 21.6667 0.333008 16.8934 0.333008 11C0.333008 5.10671 5.10634 0.333374 10.9997 0.333374C16.893 0.333374 21.6663 5.10671 21.6663 11ZM9.2219 13.1689L13.5241 16.3423C14.013 16.6089 14.3686 16.4756 14.493 15.8889L16.2441 7.64004C16.4219 6.92004 15.9686 6.60004 15.4975 6.81337L5.2219 10.7778C4.51967 11.0623 4.52856 11.4534 5.09745 11.6223L7.73745 12.4489L13.8441 8.60004C14.1286 8.42226 14.3952 8.52004 14.1819 8.7156L9.2219 13.1689Z" fill="#FCFCFC"/>
</svg>
