<svg width="16" height="16" viewBox="0 0 16 16" fill="none" xmlns="http://www.w3.org/2000/svg">
<path d="M5 5.59375V5.5C5 5.53125 4.96875 5.5625 4.96875 5.59375C4.96875 5.59375 4.96875 5.59375 5 5.59375ZM15.9062 8.59375C15.25 7.125 14.375 3.875 13.625 2.78125C12.5312 1.25 10.1562 0 8.3125 0H6C2.6875 0 0 2.6875 0 6V6.03125C0 7.5 0.875 9.5 2 10.4688V16H10V14H12C13.0938 14 14 13.125 14 12V10H15C15.5312 10 15.9688 9.5625 15.9688 9C15.9688 8.90625 15.9375 8.71875 15.9062 8.59375ZM10.5 6.5H8.90625C8.9375 6.65625 8.96875 6.875 9 7C9 7.84375 8.3125 8.5 7.5 8.5C7.34375 8.5 7.125 8.46875 7 8.4375V10H5V8.4375C4.84375 8.46875 4.625 8.5 4.5 8.5C3.65625 8.5 3 7.84375 3 7C3 6.96875 3 6.96875 3 6.9375C2.4375 6.75 2 6.09375 2 5.5C2 4.6875 2.65625 4 3.46875 4H3.5C3.5 3.1875 4.15625 2.5 5 2.5C5.1875 2.53125 5.53125 2.59375 5.71875 2.71875C5.96875 2.34375 6.53125 2.03125 7 2.03125C7.4375 2.03125 8 2.34375 8.25 2.71875C8.4375 2.59375 8.78125 2.5 9 2.5C9.5625 2.5 10.2188 2.96875 10.4062 3.5H10.5C11.3125 3.5 12 4.1875 12 5C12 5.84375 11.3125 6.5 10.5 6.5Z" fill="#3E5172"/>
</svg>
