<svg width="80" height="80" viewBox="0 0 80 80" fill="none" xmlns="http://www.w3.org/2000/svg">
<path d="M45.5199 71.4073C45.3122 71.4073 45.1233 71.3885 44.9156 71.3319L15.1529 63.1322C13.8876 62.7741 13 61.6242 13 60.3047V26.5257C13 24.4711 14.0009 22.5107 15.6628 21.2854L32.2249 9.12724C32.376 9.01414 32.5837 8.97644 32.7537 9.01414L66.1989 16.5918C66.4444 16.6483 66.6522 16.8557 66.7088 17.1007C66.7655 17.3458 66.6522 17.6097 66.4444 17.7605L49.8823 29.9187C48.5604 30.8989 47.7672 32.4446 47.7672 34.0845V69.1265C47.7672 69.8239 47.4462 70.4837 46.8796 70.9172C46.483 71.2377 46.0109 71.4073 45.5199 71.4073ZM32.7537 10.3902L16.4371 22.3599C15.1151 23.3401 14.3219 24.8858 14.3219 26.5257V60.3047C14.3219 61.021 14.813 61.6619 15.5117 61.8504L45.2744 70.0501C45.5577 70.1255 45.841 70.069 46.0865 69.8993C46.3131 69.7297 46.4453 69.4469 46.4453 69.1642V34.1222C46.4453 32.0676 47.4462 30.1072 49.1081 28.8819L64.5182 17.5908L32.7537 10.3902Z" fill="#061F4A"/>
<path d="M46.3885 71.5958C46.0485 71.5958 45.7275 71.5581 45.3876 71.4639L44.0467 71.0869C43.6879 70.9926 43.4802 70.6345 43.5935 70.2763C43.6879 69.9182 44.0467 69.7108 44.4056 69.8239L45.7464 70.2009C46.5018 70.4083 47.3138 70.2386 47.9182 69.7485L64.4236 56.4216C65.0468 55.9315 65.3868 55.1964 65.3868 54.4047V17.2515C65.3868 16.8934 65.6889 16.5918 66.0477 16.5918C66.4065 16.5918 66.7087 16.8934 66.7087 17.2515V54.367C66.7087 55.5546 66.1799 56.6667 65.2546 57.4207L48.7491 70.7476C48.0692 71.2942 47.2383 71.5958 46.3885 71.5958Z" fill="#061F4A"/>
<path d="M49.1272 29.8053H49.1083L16.0218 21.926C15.9652 21.9072 15.9463 21.8695 15.9463 21.8129C15.9652 21.7564 16.0029 21.7375 16.0596 21.7375L49.146 29.6168C49.2027 29.6357 49.2216 29.6734 49.2216 29.7299C49.2027 29.7676 49.1649 29.8053 49.1272 29.8053Z" fill="#061F4A"/>
<path d="M48.5041 30.4086H48.4852L15.3988 22.5293C15.3421 22.5105 15.3232 22.4728 15.3232 22.4162C15.3421 22.3597 15.3799 22.3408 15.4366 22.3408L48.523 30.2201C48.5797 30.2389 48.5986 30.2766 48.5986 30.3332C48.5797 30.3709 48.5419 30.4086 48.5041 30.4086Z" fill="#061F4A"/>
<path d="M47.5979 31.8602H47.579L14.4925 23.981C14.4359 23.9621 14.417 23.9244 14.417 23.8679C14.4359 23.8113 14.4736 23.7925 14.5303 23.7925L47.6168 31.6717C47.6734 31.6906 47.6923 31.7283 47.6923 31.7848C47.6734 31.8414 47.6356 31.8602 47.5979 31.8602Z" fill="#061F4A"/>
<path d="M47.1067 33.745H47.0878L14.0013 25.8657C13.9447 25.8469 13.9258 25.8092 13.9258 25.7527C13.9447 25.6961 13.9824 25.6772 14.0391 25.6772L47.1256 33.5565C47.1822 33.5753 47.2011 33.6131 47.2011 33.6696C47.1822 33.7073 47.1444 33.745 47.1067 33.745Z" fill="#061F4A"/>
<path d="M47.1067 35.2907H47.0878L14.0013 27.4114C13.9447 27.3925 13.9258 27.3548 13.9258 27.2983C13.9447 27.2417 13.9824 27.2229 14.0391 27.2229L47.1256 35.1022C47.1822 35.121 47.2011 35.1587 47.2011 35.2153C47.1822 35.253 47.1444 35.2907 47.1067 35.2907Z" fill="#061F4A"/>
<path d="M57.3986 17.0817L38.948 12.8782C38.287 12.7274 37.6071 12.8593 37.0595 13.2363L30.0531 17.93C29.7699 18.1185 29.8643 18.5332 30.1853 18.6086L49.1836 23.076C49.6557 23.1891 50.1656 23.0949 50.5622 22.7933L57.5497 17.7415C57.7763 17.553 57.7007 17.1571 57.3986 17.0817ZM51.8842 16.8555L47.9183 19.7207C47.6917 19.8904 47.4084 19.9469 47.144 19.8715L36.3985 17.3456C36.2096 17.3079 36.1719 17.0629 36.3229 16.9498L40.2888 14.2919C40.6098 14.0846 40.9875 14.0092 41.3652 14.1034L51.8086 16.4974C51.9786 16.5162 52.0352 16.7424 51.8842 16.8555Z" fill="#061F4A"/>
<path d="M49.5425 23.1891C49.4103 23.1891 49.2592 23.1702 49.127 23.1325L30.1476 18.684C29.9588 18.6463 29.8266 18.4955 29.7888 18.307C29.7511 18.1185 29.8266 17.93 29.9966 17.8357L37.0029 13.1421C37.5694 12.7651 38.2871 12.6332 38.9669 12.784L57.4175 17.0063C57.5875 17.044 57.7197 17.176 57.7575 17.3645C57.7952 17.5341 57.7197 17.7226 57.5686 17.8169L50.5623 22.8686C50.279 23.076 49.9013 23.1891 49.5425 23.1891ZM38.4004 12.8971C37.9471 12.8971 37.475 13.029 37.0973 13.2929L30.091 17.9865C29.9777 18.0619 29.9588 18.1939 29.9777 18.2693C29.9966 18.3635 30.0532 18.4578 30.1854 18.4955L49.1837 22.9629C49.6369 23.076 50.109 22.9817 50.4867 22.699L57.4931 17.6472C57.5875 17.5907 57.6253 17.4776 57.6064 17.3833C57.5875 17.2891 57.5119 17.1948 57.3986 17.176L38.9103 12.9536C38.7403 12.9159 38.5703 12.8971 38.4004 12.8971Z" fill="#061F4A"/>
<path d="M32.5274 23.2082L33.2261 22.7558C33.3205 22.6992 33.4338 22.6804 33.5472 22.6992L39.0805 23.9433C39.1371 23.9622 39.1371 24.0187 39.0993 24.0564L38.4006 24.5654C38.3439 24.6219 38.2495 24.6219 38.174 24.6031L32.5463 23.3024C32.4896 23.3024 32.4707 23.227 32.5274 23.2082Z" fill="#061F4A"/>
<path d="M38.23 24.6971C38.1922 24.6971 38.1734 24.6971 38.1356 24.6783L32.5079 23.3776C32.4512 23.3588 32.3946 23.3211 32.3946 23.2457C32.3757 23.1891 32.4134 23.1137 32.4701 23.0949L33.1688 22.6425C33.2822 22.5671 33.4143 22.5483 33.5465 22.5671L39.0798 23.8112C39.1365 23.83 39.1931 23.8677 39.1931 23.9243C39.212 23.9808 39.1743 24.0374 39.1365 24.0751L38.4377 24.584C38.3811 24.6783 38.3056 24.6971 38.23 24.6971ZM32.6401 23.2457L38.1922 24.5275C38.2489 24.5463 38.3056 24.5275 38.3433 24.4898L38.9854 24.0374L33.5277 22.8121C33.4521 22.7933 33.3577 22.8122 33.2822 22.8498L32.6401 23.2457Z" fill="#061F4A"/>
<path d="M64.8017 56.9116L47.5408 70.5024C47.3708 70.6343 47.1064 70.5212 47.1064 70.295V34.7253L48.5039 30.3144L66.0481 17.2703V54.3669C66.0481 55.3471 65.5948 56.2895 64.8017 56.9116Z" fill="#061F4A"/>
<path d="M47.3712 70.8418C47.2957 70.8418 47.2013 70.823 47.1257 70.7853C46.9369 70.691 46.8047 70.5025 46.8047 70.2952V34.7254C46.8047 34.6877 46.8047 34.6689 46.8236 34.6312L48.2211 30.2203C48.2399 30.1637 48.2777 30.1072 48.3155 30.0883L65.8596 17.0442C65.954 16.9877 66.0674 16.9688 66.1618 17.0254C66.2562 17.0819 66.3129 17.1762 66.3129 17.2704V54.367C66.3129 55.4603 65.8218 56.4782 64.9531 57.1568L47.7112 70.7099C47.6167 70.7853 47.5034 70.8418 47.3712 70.8418ZM47.3901 34.7631V70.2575L64.6321 56.6856C65.3497 56.1201 65.7652 55.2718 65.7652 54.3482V17.817L48.7498 30.4842L47.3901 34.7631Z" fill="#061F4A"/>
</svg>
