<svg width="32" height="32" viewBox="0 0 32 32" fill="none" xmlns="http://www.w3.org/2000/svg">
<path d="M12.3195 20.9886C12.3195 15.7673 16.0147 11.3492 20.995 10.3853C18.9868 7.73443 16.577 5.16391 14.7294 1.87044C14.0064 0.58518 12.1589 0.58518 11.4359 1.87044C7.74081 8.53771 1.5555 12.4738 0.993203 19.3821C0.511231 26.3707 6.29489 31.9937 13.0425 31.9937C14.9704 31.9937 16.7376 31.5117 18.4245 30.7084C14.8097 29.0215 12.3195 25.3264 12.3195 20.9886ZM6.53588 13.2771C6.77686 12.8755 7.09818 12.4738 7.33917 12.0722C7.66048 11.5902 8.30311 11.5099 8.70475 11.8312C9.18672 12.1525 9.26705 12.7951 8.94574 13.1968C8.70475 13.5984 8.38344 13.9197 8.14245 14.3214C7.98179 14.6427 7.66048 14.8033 7.33917 14.8033C7.17851 14.8033 6.93752 14.723 6.77686 14.6427C6.37522 14.3214 6.21456 13.7591 6.53588 13.2771ZM9.02607 27.3346C8.86541 27.6559 8.46377 27.8166 8.14245 27.8166C7.98179 27.8166 7.82114 27.7363 7.66048 27.6559C7.01785 27.2543 6.37522 26.7723 5.89325 26.2903C4.44733 24.6838 3.72438 22.5952 3.88503 20.105C3.96536 19.3821 4.04569 18.7394 4.20635 18.0165C4.36701 17.4542 4.92931 17.1329 5.41128 17.2935C5.97358 17.4542 6.29489 18.0165 6.13424 18.4985C5.97358 19.0608 5.89325 19.6231 5.89325 20.1854C5.73259 22.0329 6.29489 23.6395 7.33917 24.8444C7.74081 25.2461 8.14245 25.5674 8.62442 25.8887C9.18672 26.2903 9.34738 26.8526 9.02607 27.3346Z" fill="#3E5172"/>
<path d="M23.164 12.1526C18.264 12.1526 14.3279 16.0887 14.3279 20.9887C14.3279 25.8888 18.264 29.8249 23.164 29.8249C28.0641 29.8249 32.0002 25.8888 32.0002 20.9887C32.0002 16.0887 28.0641 12.1526 23.164 12.1526ZM27.0198 21.0691L21.1558 26.5314C20.8345 26.8527 20.3525 26.5314 20.5132 26.1298L21.7984 22.3543C21.8788 22.1133 21.7181 21.792 21.3968 21.792H19.0673C18.6656 21.792 18.505 21.3101 18.8263 21.0691L24.7706 15.687C25.0919 15.3657 25.5739 15.687 25.4132 16.0887L24.128 19.8641C24.0476 20.1051 24.2083 20.4264 24.5296 20.4264H26.8591C27.1001 20.4264 27.3411 20.8281 27.0198 21.0691Z" fill="#3E5172"/>
</svg>
