<svg width="22" height="20" viewBox="0 0 22 20" fill="none" xmlns="http://www.w3.org/2000/svg">
<path d="M21.6663 19.7273H16.9514V12.9096C16.9514 11.125 16.2138 9.90678 14.592 9.90678C13.3515 9.90678 12.6616 10.7289 12.3405 11.5212C12.2201 11.8056 12.2389 12.2017 12.2389 12.5979V19.7273H7.56788C7.56788 19.7273 7.62808 7.65034 7.56788 6.55255H12.2389V8.62023C12.5149 7.71616 14.0075 6.42588 16.3895 6.42588C19.3446 6.42588 21.6663 8.32094 21.6663 12.4017V19.7273ZM2.84414 4.90462H2.81404C1.30886 4.90462 0.333008 3.89748 0.333008 2.62086C0.333008 1.3194 1.33771 0.333374 2.87299 0.333374C4.40701 0.333374 5.35025 1.31692 5.38036 2.61713C5.38036 3.89375 4.40701 4.90462 2.84414 4.90462ZM0.871108 6.55255H5.02915V19.7273H0.871108V6.55255Z" fill="#FCFCFC"/>
</svg>
