<svg width="54" height="15" viewBox="0 0 54 15" fill="none" xmlns="http://www.w3.org/2000/svg">
<path d="M8.42353 10.3675H4.53575C4.29276 10.3675 4.04977 10.1245 4.04977 9.88156V0.972057C4.04977 0.72907 3.80679 0.486084 3.5638 0.486084H0.485973C0.242986 0.486084 0 0.648075 0 0.972057V13.2834C0 13.5264 0.242986 13.7693 0.485973 13.7693H8.42353C8.66651 13.7693 8.9095 13.5264 8.9095 13.2834V10.8535C8.9095 10.6105 8.66651 10.3675 8.42353 10.3675Z" fill="white"/>
<path d="M35.3946 0.486084H32.2358C31.9928 0.486084 31.8308 0.648075 31.7498 0.810066L29.4819 9.1526C29.3199 9.63857 28.672 9.63857 28.51 9.1526L26.1611 0.810066C26.0801 0.567079 25.9181 0.486084 25.6751 0.486084H22.5163C22.1923 0.486084 21.9494 0.810066 22.0303 1.13405L25.6751 13.5264C25.7561 13.7693 25.9181 13.8503 26.1611 13.8503H31.5878C31.8308 13.8503 31.9928 13.6883 32.0738 13.5264L35.7186 1.21504C35.8806 0.810066 35.6376 0.486084 35.3946 0.486084Z" fill="white"/>
<path d="M17.1712 0.486084H14.0934C13.8504 0.486084 13.6074 0.72907 13.6074 0.972057V13.2834C13.6074 13.5264 13.8504 13.7693 14.0934 13.7693H17.1712C17.4142 13.7693 17.6572 13.5264 17.6572 13.2834V0.972057C17.6572 0.648075 17.4142 0.486084 17.1712 0.486084Z" fill="white"/>
<path d="M46.5719 0C42.6032 0 39.4443 3.15882 39.4443 7.1276C39.4443 11.0964 42.6032 14.2552 46.5719 14.2552C50.5407 14.2552 53.6995 11.0964 53.6995 7.1276C53.6995 3.15882 50.5407 0 46.5719 0ZM50.3787 9.07149C50.3787 9.15249 50.2977 9.23348 50.2167 9.23348H48.8398C48.7588 9.31448 48.7588 9.31448 48.6778 9.39547V10.7724C48.6778 10.8534 48.5968 10.9344 48.5158 10.9344H44.628C44.547 10.9344 44.4661 10.8534 44.4661 10.7724V9.39547C44.3851 9.31448 44.3851 9.31448 44.3041 9.23348H42.9271C42.8461 9.23348 42.7651 9.15249 42.7651 9.07149V5.18371C42.7651 5.10271 42.8461 5.02172 42.9271 5.02172H44.3041C44.3851 4.94072 44.3851 4.94072 44.4661 4.85973V3.48281C44.4661 3.40181 44.547 3.32081 44.628 3.32081H48.5158C48.5968 3.32081 48.6778 3.40181 48.6778 3.48281V4.85973C48.7588 4.94072 48.7588 4.94072 48.8398 5.02172H50.2167C50.2977 5.02172 50.3787 5.10271 50.3787 5.18371V9.07149Z" fill="#F05355"/>
</svg>
