<svg width="22" height="19" viewBox="0 0 22 19" fill="none" xmlns="http://www.w3.org/2000/svg">
<path d="M21.4326 3.92803C21.4632 3.952 21.4733 3.99434 21.4521 4.0287L15.067 14.3266L10.4765 6.92308L14.1344 1.02326C14.2656 0.811922 14.5077 0.690674 14.751 0.690674C14.8098 0.690674 14.8684 0.699663 14.9257 0.714244C14.9714 0.72583 15.0165 0.740212 15.0594 0.761585L21.4131 3.91464L21.4203 3.91824C21.4254 3.92064 21.4286 3.92483 21.4326 3.92803ZM8.46174 5.57916L14.4761 15.2796L8.46174 12.295V5.57916ZM15.3798 15.7281L21.497 5.86201V17.685C21.497 18.2807 20.9747 18.5046 20.3305 18.1848L15.3798 15.7281ZM7.41761 3.93762C7.44076 3.949 7.45545 3.97257 7.45545 3.99814V17.685C7.45545 18.1229 7.21716 18.3838 6.87744 18.3838C6.75688 18.3838 6.62345 18.3508 6.48338 18.2813L1.01782 15.5691C0.697011 15.4099 0.43457 14.9884 0.43457 14.6324V1.33507C0.43457 0.984906 0.625162 0.776167 0.89686 0.776167C0.993463 0.776167 1.10013 0.802534 1.21223 0.858065L7.41761 3.93762Z" fill="#FCFCFC"/>
</svg>
