<svg width="12" height="9" viewBox="0 0 12 9" fill="none" xmlns="http://www.w3.org/2000/svg">
<path d="M11.2711 1.86672C11.2861 1.87847 11.291 1.89923 11.2807 1.91607L8.15074 6.96408L5.9005 3.33489L7.69357 0.442817C7.75789 0.339221 7.87657 0.279785 7.99585 0.279785C8.02465 0.279785 8.05336 0.284191 8.08148 0.291339C8.10388 0.297019 8.12597 0.304069 8.14699 0.314546L11.2616 1.86016L11.2651 1.86193C11.2676 1.8631 11.2691 1.86516 11.2711 1.86672ZM4.91285 2.6761L7.86108 7.43124L4.91285 5.96816V2.6761ZM8.30405 7.65106L11.3027 2.81475V8.61035C11.3027 8.90234 11.0467 9.0121 10.7309 8.85534L8.30405 7.65106ZM4.40103 1.87142C4.41237 1.877 4.41957 1.88856 4.41957 1.90109V8.61035C4.41957 8.82499 4.30277 8.95287 4.13623 8.95287C4.07714 8.95287 4.01173 8.93671 3.94307 8.90263L1.26387 7.57312C1.10661 7.49508 0.977966 7.28848 0.977966 7.11399V0.595665C0.977966 0.424017 1.07139 0.321694 1.20458 0.321694C1.25193 0.321694 1.30422 0.334619 1.35917 0.361839L4.40103 1.87142Z" fill="#3E5172"/>
</svg>
