<svg width="61" height="62" viewBox="0 0 61 62" fill="none" xmlns="http://www.w3.org/2000/svg">
<path d="M23.338 35.9736C22.9884 35.9736 22.6388 35.9002 22.2891 35.7717C21.1666 35.3129 20.3385 34.2301 20.1913 33.0005C19.9337 30.8349 21.369 28.9813 22.4732 27.7884C23.5589 26.6139 24.7734 25.2925 24.8286 23.6041C24.847 23.1269 24.7366 22.7232 24.5526 22.5213C24.3133 22.2644 23.8901 22.3011 23.1172 22.6314L20.6698 23.6959C19.8417 24.0629 19.0504 24.5034 18.9216 25.3476C18.8664 25.6596 18.9032 26.0633 18.94 26.4304C19.0136 27.2379 19.1056 28.1555 18.4063 28.7244C17.7623 29.2566 17.063 28.9997 16.5293 28.7978C16.3637 28.7428 16.1981 28.6694 16.0693 28.651C15.4436 28.5225 14.7812 29.0731 14.3947 29.6787C13.8979 30.4679 13.6586 31.5323 13.4746 32.4683L13.4562 32.5234C13.3458 33.1106 13.217 33.7163 12.9042 34.2485C12.4625 35.0193 11.6712 35.3863 10.9904 35.1477C10.3831 34.9275 10.0887 34.3769 9.81264 33.8814C9.68383 33.6428 9.55502 33.4043 9.42621 33.2574C9.03976 32.817 8.35889 32.8904 7.86204 33.0372C7.67802 33.0923 7.51241 33.1473 7.30999 33.2207C6.72112 33.4226 6.09546 33.6245 5.41459 33.5694C4.36568 33.4777 3.31677 32.5234 3.39038 31.257C3.40878 30.9451 3.68481 30.6881 4.01604 30.7065C4.32888 30.7248 4.5865 31.0001 4.5681 31.3304C4.5313 31.9544 5.10176 32.3765 5.5434 32.4132C5.98505 32.4499 6.4451 32.2848 6.96035 32.1196C7.16277 32.0462 7.36519 31.9911 7.56761 31.9177C8.72693 31.5874 9.70223 31.7893 10.3279 32.4866C10.5671 32.7436 10.7143 33.0372 10.88 33.3309C11.0456 33.6428 11.2296 33.9915 11.4136 34.0466C11.524 34.0833 11.7632 33.9365 11.9289 33.6612C12.1497 33.2942 12.2417 32.817 12.3337 32.3031L12.3521 32.2481C12.5545 31.2203 12.8122 30.0458 13.4194 29.0731C14.1371 27.9169 15.278 27.2929 16.3085 27.5132C16.5293 27.5682 16.7502 27.6416 16.9526 27.715C17.3758 27.8802 17.5783 27.9169 17.6703 27.8435C17.8911 27.66 17.8359 27.0911 17.7807 26.5405C17.7439 26.0817 17.6887 25.6229 17.7623 25.1641C17.9831 23.7509 19.1792 23.0719 20.2097 22.6314L22.6572 21.567C23.154 21.3468 24.4974 20.7778 25.3991 21.7138C25.9511 22.3011 26.0063 23.1453 26.0063 23.6041C25.9511 25.733 24.5158 27.2929 23.3564 28.5409C22.3259 29.6604 21.1666 31.1469 21.369 32.817C21.4611 33.6428 22.0131 34.3586 22.7308 34.6522C23.0436 34.7807 23.6509 34.9275 24.1845 34.4871C25.0494 33.7897 25.3071 32.4316 25.5831 31.0001C25.8223 29.7705 26.0799 28.5042 26.724 27.4948C27.3681 26.5038 28.3434 26.0633 29.153 26.3937C30.3124 26.8708 30.5516 28.5042 30.294 29.8256C30.2388 30.1008 30.1652 30.3761 30.1099 30.6514C29.9259 31.4039 29.7603 32.1012 29.8891 32.7619C30.1468 33.9548 31.3245 34.4504 32.2814 34.5238C32.6494 34.5421 32.907 34.5238 33.1463 34.4504C34.1584 34.12 34.7472 32.5234 34.7472 31.1653C34.7288 29.8256 34.3056 28.5042 33.9007 27.2379C33.8271 27.036 33.7719 26.8341 33.7167 26.6322C33.2383 25.0906 32.7966 23.2921 33.1647 21.567C33.4039 20.3924 34.1216 19.3463 35.0233 18.8325C35.6305 18.4838 36.2746 18.4104 36.8818 18.6123C37.9676 18.9793 38.63 20.1171 38.9797 21.0164C39.5133 22.3745 39.7341 23.861 39.955 25.2925C40.1942 26.9075 40.415 28.4124 41.0407 29.7338C41.3167 30.3027 41.6663 30.578 41.7952 30.5229C41.832 30.5046 41.924 30.4495 42.0896 30.211C43.0465 28.8345 42.8993 26.7607 42.7153 25.6412C42.6969 25.5127 42.66 25.3659 42.6416 25.2375C42.476 24.3382 42.3104 23.2921 42.6232 22.3378C42.8809 21.5486 43.4697 20.943 44.2242 20.6677C44.9787 20.3741 45.8068 20.4475 46.4876 20.8329C47.6102 21.4752 48.4198 22.87 48.7143 24.6685C48.7879 25.1273 48.8431 25.5862 48.8799 26.045C49.0087 27.2195 49.1191 28.3207 49.6896 29.0731C49.8736 29.3117 50.0392 29.4218 50.1496 29.4218C50.1864 29.4218 50.2416 29.4218 50.352 29.33C50.6281 29.0731 50.8121 28.4491 50.8121 27.8986C50.8121 27.5866 50.7753 27.2746 50.7385 26.9442C50.6649 26.2468 50.5913 25.5495 50.7753 24.8337C50.9777 24.0629 51.4746 23.4022 52.1554 23.0535C52.7259 22.7599 53.3332 22.7048 53.8852 22.9067C54.1796 23.0168 54.3453 23.3472 54.2349 23.6592C54.1244 23.9711 53.7932 24.118 53.4804 24.0079C53.2411 23.9161 52.9651 23.9528 52.6891 24.0813C52.3027 24.2831 52.0082 24.6685 51.8978 25.1273C51.769 25.6412 51.8242 26.2285 51.8794 26.8525C51.9162 27.2012 51.953 27.5499 51.953 27.9169C51.953 28.6143 51.7506 29.6237 51.1433 30.211C50.8305 30.5046 50.4625 30.6514 50.076 30.6331C49.5976 30.6147 49.1375 30.3211 48.7695 29.8256C47.9966 28.8162 47.8678 27.4948 47.739 26.2101C47.6838 25.7513 47.647 25.3292 47.5734 24.9071C47.3341 23.4756 46.7085 22.3378 45.8988 21.879C45.5307 21.6587 45.0523 21.622 44.6291 21.7872C44.2058 21.9524 43.8746 22.2827 43.7274 22.7415C43.5065 23.4206 43.6353 24.2281 43.7826 25.0723C43.801 25.2191 43.8378 25.3476 43.8562 25.4944C44.0586 26.7791 44.2426 29.2016 43.0465 30.9083C42.8809 31.1469 42.6048 31.4773 42.2 31.6424C41.3903 31.9361 40.5438 31.4039 39.9918 30.266C39.2741 28.7978 39.0349 27.1094 38.7957 25.4944C38.5932 24.118 38.3908 22.7048 37.894 21.4752C37.5259 20.5393 37.0291 19.9153 36.4954 19.7501C36.201 19.6583 35.9065 19.695 35.5937 19.8786C35.0049 20.2273 34.4712 21.0164 34.3056 21.8423C33.9928 23.3105 34.3976 24.9438 34.8392 26.3386C34.8944 26.5405 34.9681 26.7424 35.0233 26.9442C35.4649 28.3023 35.9065 29.7154 35.9249 31.2203C35.9434 33.0189 35.1337 35.0927 33.5327 35.6249C33.0543 35.7901 32.5574 35.7717 32.2262 35.7534C30.8828 35.6616 29.1714 34.8908 28.785 33.0739C28.601 32.1563 28.8034 31.2937 29.0242 30.4495C29.0978 30.1742 29.153 29.9357 29.2083 29.6787C29.3923 28.7061 29.1899 27.715 28.7666 27.5315C28.4722 27.403 28.0305 27.7701 27.7545 28.1738C27.2208 28.9997 27 30.1559 26.7792 31.2754C26.4664 32.8537 26.1535 34.4871 24.9758 35.4414C24.479 35.7901 23.9269 35.9736 23.338 35.9736Z" fill="#061F4A"/>
<path d="M17.7206 35.8944C17.7723 34.8415 17.2628 33.9611 16.5827 33.9279C15.9026 33.8946 15.3094 34.7212 15.2577 35.7741C15.206 36.8269 15.7154 37.7073 16.3955 37.7406C17.0756 37.7738 17.6689 36.9472 17.7206 35.8944Z" fill="#061F4A"/>
<path d="M48.0171 41.4278C48.1095 39.5448 47.197 37.9701 45.9789 37.9106C44.7608 37.8512 43.6984 39.3294 43.6059 41.2124C43.5134 43.0954 44.4259 44.6701 45.6441 44.7295C46.8622 44.789 47.9246 43.3108 48.0171 41.4278Z" fill="#061F4A"/>
<path d="M51.8752 36.8976C51.9215 35.9561 51.4652 35.1688 50.8561 35.139C50.2471 35.1093 49.7159 35.8484 49.6696 36.7899C49.6234 37.7314 50.0797 38.5187 50.6887 38.5485C51.2978 38.5782 51.829 37.8391 51.8752 36.8976Z" fill="#061F4A"/>
<path d="M32.3508 38.2397C32.397 37.2982 31.9408 36.5108 31.3317 36.4811C30.7227 36.4513 30.1915 37.1905 30.1452 38.1319C30.099 39.0734 30.5553 39.8608 31.1643 39.8905C31.7734 39.9203 32.3046 39.1812 32.3508 38.2397Z" fill="#061F4A"/>
<path d="M54.6399 54.693C54.4191 54.693 54.2167 54.6563 53.9959 54.6012L3.11461 40.58C1.18241 40.0478 -0.0873196 38.286 0.00468997 36.3039L1.66086 4.16892C1.69767 3.36141 2.10251 2.62732 2.74657 2.15016C3.39064 1.673 4.20033 1.50782 4.99161 1.7097L56.5537 14.4646C57.9155 14.7949 58.854 16.0613 58.7804 17.456L57.0506 52.4173C57.0138 53.1514 56.6458 53.8121 56.0569 54.2525C55.6337 54.5462 55.1552 54.693 54.6399 54.693ZM4.32914 2.9026C4.03471 2.9026 3.74028 2.99437 3.50105 3.17789C3.16982 3.43482 2.9674 3.80187 2.949 4.22397L1.29282 36.359C1.21922 37.7538 2.10251 38.9834 3.44585 39.3504L54.3271 53.3716C54.6584 53.4634 55.008 53.4083 55.284 53.2064C55.56 53.0046 55.7257 52.6926 55.7441 52.3622L57.4738 17.401C57.5106 16.6118 56.977 15.9144 56.2225 15.7126L4.67877 2.95766C4.56836 2.92096 4.45795 2.9026 4.32914 2.9026Z" fill="#061F4A"/>
<path d="M55.1549 54.638C55.1365 54.638 55.0997 54.638 55.0813 54.638C54.7317 54.6196 54.4556 54.3076 54.474 53.9589C54.4925 53.6102 54.8053 53.335 55.1549 53.3533C55.3573 53.3717 56.1486 53.0046 56.9767 52.2705C57.676 51.6465 57.9152 51.1877 57.9336 51.0593L59.6634 15.7493C59.7002 14.9602 59.1665 14.2444 58.4121 14.0609L6.04022 1.28763C5.92981 1.25093 5.58017 1.30599 4.99131 1.67303C3.99761 2.29702 3.13272 3.3064 3.02231 3.78356C2.9487 4.13225 2.61747 4.35248 2.26783 4.27907C1.91819 4.20566 1.69737 3.87532 1.77098 3.52662C1.9734 2.5723 3.22473 1.28763 4.31044 0.590245C5.10172 0.0947306 5.801 -0.0887931 6.35305 0.0396735L58.7065 12.7946C60.0682 13.1249 61.0067 14.3912 60.9331 15.786L59.2033 51.096C59.1665 51.8484 58.4489 52.6376 57.8416 53.1881C57.584 53.4451 56.2038 54.638 55.1549 54.638Z" fill="#061F4A"/>
<path d="M29.3556 55.4454C29.0427 55.4454 28.7851 55.2252 28.7299 54.9132L27.2946 46.8749C27.2394 46.5262 27.4602 46.1958 27.8098 46.1224C28.1595 46.0674 28.4907 46.2876 28.5643 46.6363L29.9996 54.6746C30.0548 55.0233 29.834 55.3537 29.4844 55.4271C29.4476 55.4271 29.3924 55.4454 29.3556 55.4454Z" fill="#061F4A"/>
<path d="M24.0742 45.4067L24.5343 47.8843C24.6263 48.3798 24.9943 48.8019 25.4912 48.9304L31.3982 50.5638C31.8582 50.6922 32.2815 50.3068 32.2263 49.848L31.9134 47.5723L24.0742 45.4067Z" fill="#061F4A"/>
<path d="M35.8149 60.7676L16.4561 55.4087L20.2284 52.9312L39.6241 58.2533L35.8149 60.7676Z" fill="#061F4A"/>
<path d="M35.8146 61.41C35.7594 61.41 35.7042 61.41 35.649 61.3916L16.2717 56.0327C16.0325 55.9593 15.8485 55.7575 15.8117 55.5189C15.7749 55.262 15.8853 55.0234 16.0877 54.8766L19.8601 52.399C20.0073 52.2889 20.2098 52.2705 20.3938 52.3072L39.8078 57.6294C40.047 57.7028 40.231 57.9047 40.2678 58.1433C40.3046 58.4002 40.1942 58.6388 39.9918 58.7856L36.1642 61.2999C36.0722 61.3733 35.9434 61.41 35.8146 61.41ZM17.9831 55.1702L35.7042 60.0519L38.078 58.492L20.3202 53.6286L17.9831 55.1702Z" fill="#061F4A"/>
<path d="M3.61133 1.94828L55.1919 14.7766L57.3633 15.6024L58.1362 18.0433L56.4616 51.2244L56.388 53.5001L58.1362 51.9952L58.6698 49.1139L60.3076 16.5751V14.9601L59.6083 14.0058L57.3081 13.1249L7.14449 0.902197L5.37791 0.645264L3.61133 1.94828Z" fill="#061F4A"/>
</svg>
