<svg width="37" height="31" viewBox="0 0 37 31" fill="none" xmlns="http://www.w3.org/2000/svg">
<path d="M23.143 7.73473C21.9735 7.78552 21.2199 8.8729 20.0505 8.14911C18.881 7.43802 16.0688 6.19826 15.297 7.73473C14.1392 10.0331 11.0588 20.7445 11.0004 21.354C10.9419 21.9635 17.9933 22.2255 18.4727 21.7684C19.3381 20.9303 28 8.56347 28 8.56347C28 8.56347 24.3124 7.69664 23.143 7.73473ZM17.0333 14.7585C16.9631 15.076 16.6825 15.3172 16.3901 15.3172C16.1094 15.3172 15.9223 15.0633 15.9925 14.7585C16.0626 14.4411 16.3433 14.1998 16.6357 14.1998C16.9163 14.1998 17.0918 14.4537 17.0333 14.7585ZM17.5478 17.7807C17.5245 17.8949 17.4192 17.9838 17.314 17.9838C17.2087 17.9838 17.1502 17.8949 17.1736 17.7807C17.197 17.6664 17.3023 17.5775 17.4075 17.5775C17.5128 17.5775 17.5712 17.6664 17.5478 17.7807ZM17.0216 13.057C16.1913 13.057 15.6767 12.3332 15.8755 11.4316C16.0743 10.53 16.893 9.80624 17.7233 9.80624C18.5536 9.80624 19.0681 10.53 18.8693 11.4316C18.6705 12.3332 17.8402 13.057 17.0216 13.057ZM19.0564 14.9236C18.6822 14.9236 18.4483 14.5934 18.5302 14.1871C18.612 13.7807 18.9863 13.4506 19.3605 13.4506C19.7347 13.4506 19.9686 13.7807 19.8867 14.1871C19.8049 14.5934 19.4307 14.9236 19.0564 14.9236ZM20.2727 16.3839C20.2376 16.5616 20.0739 16.7013 19.9101 16.7013C19.7464 16.7013 19.6412 16.5616 19.6879 16.3839C19.723 16.2061 19.8867 16.0664 20.0505 16.0664C20.2025 16.0537 20.3077 16.2061 20.2727 16.3839ZM22.8104 11.8506C22.67 12.4982 22.0853 13.0189 21.4889 13.0189C20.8925 13.0189 20.5299 12.4982 20.6586 11.8506C20.7989 11.203 21.3836 10.6824 21.9801 10.6824C22.5765 10.6951 22.9507 11.2157 22.8104 11.8506Z" fill="#3E5172"/>
<path d="M19.4603 29.75H1.60543C1.30216 29.75 1.01785 29.5984 0.866213 29.333C0.714579 29.0676 0.714579 28.7454 0.847259 28.4801L15.8022 1.18595C15.9538 0.920588 16.2571 0.75 16.5603 0.75H34.4152C34.7185 0.75 35.0028 0.901634 35.1544 1.16699C35.3061 1.43235 35.3061 1.75458 35.1734 2.01993L20.2185 29.3141C20.0669 29.5794 19.7826 29.75 19.4603 29.75ZM3.04595 28.0441H18.9675L32.9747 2.45588H17.0721L3.04595 28.0441Z" fill="#3E5172"/>
<path fill-rule="evenodd" clip-rule="evenodd" d="M16.4547 1.5558L1.51442 28.8232C1.4921 28.8739 1.49764 28.9264 1.51738 28.9609C1.52251 28.9699 1.53009 28.9781 1.54318 28.9854C1.55723 28.9932 1.57839 29 1.60542 29H19.4603C19.5105 29 19.5463 28.9763 19.5655 28.945L34.5062 1.67677C34.5285 1.62612 34.523 1.57365 34.5033 1.5391C34.4981 1.53012 34.4905 1.52187 34.4775 1.5146C34.4634 1.5068 34.4422 1.5 34.4152 1.5H16.5603C16.5197 1.5 16.4706 1.5311 16.4547 1.5558ZM15.151 0.813843C15.4399 0.308137 15.9957 0 16.5603 0H34.4152C34.9656 0 35.5099 0.277355 35.8056 0.794889C36.0881 1.28929 36.0831 1.87761 35.8442 2.35534L35.8379 2.36796L20.8698 29.6862C20.5852 30.1841 20.053 30.5 19.4603 30.5H1.60542C1.05501 30.5 0.510752 30.2226 0.215017 29.7051C-0.0674995 29.2107 -0.0624414 28.6224 0.176425 28.1447L0.182731 28.132L15.151 0.813843ZM16.6279 1.70588H34.2403L19.412 28.7941H1.77954L16.6279 1.70588ZM14 9.5L4.31233 27.2941H18.523L28.1929 9.5H14Z" fill="#3E5172"/>
</svg>
