<svg width="26" height="27" viewBox="0 0 26 27" fill="none" xmlns="http://www.w3.org/2000/svg">
<path d="M25.2383 18.6328L19.5508 16.1953C19.3984 16.1445 19.1953 16.0938 19.043 16.0938C18.7383 16.0938 18.332 16.2969 18.1289 16.5508L15.5898 19.6484C12.2383 18.0234 8.17578 14.0117 6.60156 10.6602L9.69922 8.12109C9.95312 7.91797 10.1562 7.51172 10.1562 7.15625C10.1562 7.05469 10.1055 6.85156 10.0547 6.69922L7.61719 1.01172C7.41406 0.605469 6.90625 0.300781 6.44922 0.300781C6.39844 0.300781 6.29688 0.300781 6.19531 0.300781L0.914062 1.51953C0.40625 1.62109 0 2.17969 0 2.6875C0 15.7383 10.5117 26.25 23.5625 26.25C24.0703 26.25 24.6289 25.8438 24.7305 25.3359L25.9492 20.0547C25.9492 19.9531 25.9492 19.8516 25.9492 19.8008C25.9492 19.3438 25.6445 18.8359 25.2383 18.6328Z" fill="#FCFCFC"/>
</svg>
