<svg width="62" height="62" viewBox="0 0 62 62" fill="none" xmlns="http://www.w3.org/2000/svg">
<path d="M19.4172 40.0295L16.5434 39.2403C16.3209 39.1853 16.1355 38.965 16.0984 38.7265C16.0984 38.6898 15.9686 37.5886 15.913 36.6159C15.8944 36.2305 15.6905 35.9736 15.3382 35.5515C15.0972 35.2762 14.8932 34.9826 14.7078 34.6706C14.1331 33.5511 15.2826 31.4956 15.8017 31.1102C16.0242 30.9818 16.3209 30.9634 16.599 31.0552C17.1552 31.202 17.6558 31.569 18.0081 32.0829C18.1379 32.3031 18.1935 32.5417 18.1564 32.7619L18.4345 32.9455C18.5828 33.0372 18.7312 33.129 18.898 33.2391C18.9907 33.184 19.0649 33.129 19.1391 33.0556C19.343 32.7803 19.6582 32.6335 20.029 32.6518C20.1032 32.6518 20.1959 32.6885 20.2701 32.7069C20.6594 32.9271 22.3095 34.2118 22.5691 35.0927C22.6433 35.3496 22.6062 35.5882 22.4579 35.7534C22.1612 36.0103 21.7348 36.1204 21.3083 36.047C20.8819 35.992 20.4925 36.0654 20.1403 36.2489C19.7695 36.4875 19.7138 38.1392 19.8992 39.5156C19.9363 39.7909 19.7509 39.9928 19.4913 39.9744C19.4543 39.9744 19.4357 39.9744 19.3986 39.9561L19.4172 40.0295ZM31.8951 36.7628C31.0237 36.5425 30.6714 36.047 30.6529 35.4414C30.6529 34.8358 31.2091 34.5972 32.0249 34.4871C32.3957 34.432 32.7295 34.3035 33.0076 34.1017C33.6936 33.6979 34.3054 33.1657 34.7875 32.5234L34.8431 32.3582C35.1583 31.8994 34.9914 31.1836 34.4723 30.7615C34.4537 30.7432 34.4167 30.7248 34.3796 30.6881C34.2127 30.5413 34.0088 30.4312 33.8048 30.3761C33.3598 30.3027 32.9334 30.3027 32.5255 30.3761C31.7468 30.5046 30.931 30.4862 30.0967 30.3027C29.2623 30.0641 28.4651 29.6604 27.7234 29.1465C27.3341 28.8712 26.9076 28.6327 26.4627 28.4858C26.2587 28.4308 26.0548 28.4308 25.8694 28.5042C25.2946 28.596 25.0165 29.1832 25.2204 29.7889C25.239 29.8256 25.239 29.8623 25.2575 29.8806L25.2946 30.0825C25.7025 30.9451 26.2402 31.7709 26.8706 32.5234C27.1301 32.8721 27.4453 33.1657 27.7976 33.4043C28.5949 33.9365 29.0584 34.3586 28.9842 35.0193C28.9101 35.68 28.5949 35.9185 27.7234 35.68C27.3526 35.5882 27.0189 35.3863 26.7222 35.0927C26.2031 34.5605 25.5727 34.1567 24.9052 33.8998C24.7755 33.8814 24.6457 33.8998 24.5159 33.9181C24.3119 33.9732 24.108 33.9732 23.8855 33.9365C23.5518 33.8264 23.2366 33.6061 23.0141 33.2942C22.3095 32.5784 21.5123 31.9544 20.6779 31.4589L20.2886 31.1836C20.1403 31.0735 19.788 30.8349 19.8065 30.4495C19.8436 30.0641 20.1959 30.0641 20.3813 30.0458C20.5482 30.0641 20.715 30.0091 20.8448 29.9173C20.4369 29.5319 19.9919 29.2016 19.5284 28.9263C18.5643 28.3757 17.6743 27.6233 16.9698 26.7424C15.6534 24.6318 19.0278 22.0625 20.3071 21.3284C21.4381 20.6861 22.8287 20.5393 24.2378 20.888C25.2761 21.1449 26.2773 21.7322 27.0745 22.558L27.6678 23.2187C28.9657 24.5951 29.559 25.2375 30.2635 25.421C30.9681 25.6045 31.617 25.2925 33.0261 24.5951L33.675 24.2464C34.5279 23.8427 35.5662 23.7693 36.6045 24.0629C38.0136 24.4483 39.3485 25.3109 40.3868 26.5038C41.5734 27.8619 44.6141 32.0829 43.1123 33.4777C42.3336 33.9915 41.4251 34.2668 40.4239 34.3219C39.9418 34.3586 39.4968 34.4687 39.0704 34.6339C39.1816 34.7807 39.3485 34.9092 39.5154 34.9826C39.7008 35.111 40.0345 35.2946 40.0345 35.6616C40.0345 36.0287 39.6637 36.1021 39.4968 36.1204L39.0889 36.1755C38.2175 36.2489 37.3832 36.4508 36.623 36.7811C36.382 36.983 36.0483 37.0564 35.7145 36.983C35.492 36.9096 35.2881 36.7995 35.1027 36.6526C34.9914 36.5609 34.8802 36.4875 34.7504 36.4324C34.0829 36.3407 33.4155 36.4324 32.8592 36.671C32.6182 36.8362 32.2474 36.8545 31.8951 36.7628ZM39.6266 45.2232C39.3671 45.1498 39.1631 44.8745 39.1816 44.6176C39.1816 44.5992 39.1816 44.5625 39.2002 44.5442C39.5154 43.2962 39.6266 41.6628 39.2929 41.2407C38.9777 40.892 38.5883 40.6168 38.1804 40.4516C37.754 40.3048 37.3461 39.9928 37.0865 39.589C36.9568 39.3504 36.9382 39.0935 37.0495 38.8916C37.3646 38.1575 39.1075 37.7538 39.4968 37.7354C39.571 37.7354 39.6637 37.7721 39.7379 37.7905C40.1087 37.919 40.4239 38.2126 40.6278 38.5796C40.702 38.6898 40.7762 38.7815 40.8503 38.8733C41.0172 38.8366 41.184 38.8182 41.3138 38.8182L41.6105 38.7815C41.5919 38.5429 41.6661 38.3411 41.8144 38.1942C42.1852 37.8823 42.7229 37.7721 43.2606 37.9006C43.5573 37.9557 43.8539 38.1392 44.0579 38.4145C44.5399 39.0568 45.4484 41.6812 44.7624 42.452C44.5585 42.6722 44.336 42.8557 44.0579 43.0026C43.6871 43.2411 43.446 43.388 43.3904 43.755C43.2421 44.6543 43.001 45.6637 43.001 45.7004C42.9454 45.9206 42.7415 46.0307 42.519 45.9757L39.6266 45.2783V45.2232ZM30.7641 17.6763C29.6702 17.4928 28.7432 16.4467 28.7061 15.3272C28.7061 15.2721 28.7061 15.2354 28.7061 15.1804C28.7246 14.7032 28.0201 14.3912 28.0201 14.3912C27.7976 14.2994 27.6493 14.0609 27.6493 13.8223L27.7234 12.2073C27.742 11.9503 27.9645 11.7852 28.224 11.8586C28.3167 11.8769 28.3909 11.932 28.4651 11.987C29.2252 12.6661 30.0781 13.2167 30.9681 13.6021C31.8766 13.6755 32.748 13.5654 33.5452 13.2901C33.7863 13.2167 34.0644 13.3635 34.1942 13.6204C34.2313 13.7122 34.2498 13.8039 34.2498 13.8773L34.1756 15.4924C34.1571 15.7309 33.9531 15.8961 33.7121 15.841C33.3598 15.7309 33.0632 15.9328 33.0261 16.2815C32.9519 17.4928 32.0805 18.025 30.7641 17.6763ZM30.4675 23.4756C29.3736 23.2921 28.4465 22.246 28.4095 21.1265C28.4095 21.0715 28.4095 21.0164 28.4095 20.9797C28.428 20.5209 27.7234 20.1906 27.7234 20.1906C27.501 20.0988 27.3526 19.8602 27.3526 19.6216L27.4268 18.025C27.4453 17.768 27.6678 17.6029 27.9274 17.6763C28.0201 17.6946 28.0943 17.7497 28.1684 17.8048C28.9286 18.4838 29.7815 19.0527 30.6714 19.4565C31.5799 19.5115 32.4513 19.4014 33.2486 19.1078C33.4896 19.0344 33.7677 19.1812 33.8975 19.4381C33.9346 19.5299 33.9531 19.6216 33.9531 19.695L33.879 21.3101C33.8604 21.567 33.6565 21.7138 33.4155 21.6771C33.0632 21.567 32.7665 21.7689 32.7295 22.1176C32.6553 23.2738 31.8024 23.8243 30.4675 23.4756Z" fill="#061F4A"/>
<path d="M55.0523 54.693C54.8298 54.693 54.6258 54.6563 54.4033 54.6012L3.13812 40.58C1.19133 40.0478 -0.0879785 38.286 0.00472536 36.3039L1.67339 4.16892C1.71048 3.36141 2.11837 2.62732 2.7673 2.15016C3.41623 1.673 4.23202 1.50782 5.02927 1.7097L56.9805 14.4646C58.3525 14.7949 59.2981 16.0613 59.2239 17.456L57.4811 52.4173C57.444 53.1514 57.0732 53.8121 56.4799 54.2525C56.0535 54.5462 55.5714 54.693 55.0523 54.693ZM4.36181 2.9026C4.06515 2.9026 3.7685 2.99437 3.52747 3.17789C3.19374 3.43482 2.98979 3.80187 2.97125 4.22397L1.30258 36.359C1.22842 37.7538 2.11837 38.9834 3.47185 39.3504L54.7371 53.3716C55.0708 53.4634 55.4231 53.4083 55.7012 53.2064C55.9793 53.0046 56.1462 52.6926 56.1647 52.3622L57.9076 17.401C57.9446 16.6118 57.407 15.9144 56.6468 15.7126L4.71408 2.95766C4.60284 2.92096 4.49159 2.9026 4.36181 2.9026Z" fill="#061F4A"/>
<path d="M55.5715 54.638C55.553 54.638 55.5159 54.638 55.4974 54.638C55.1451 54.6196 54.867 54.3076 54.8855 53.9589C54.9041 53.6102 55.2193 53.335 55.5715 53.3533C55.7755 53.3717 56.5727 53.0046 57.4071 52.2705C58.1116 51.6465 58.3526 51.1877 58.3712 51.0593L60.114 15.7493C60.1511 14.9602 59.6134 14.2444 58.8532 14.0609L6.08622 1.28763C5.97497 1.25093 5.6227 1.30599 5.02939 1.67303C4.02819 2.29701 3.15677 3.3064 3.04553 3.78356C2.97137 4.13225 2.63763 4.35248 2.28536 4.27907C1.93308 4.20566 1.71059 3.87532 1.78476 3.52662C1.98871 2.5723 3.24948 1.28763 4.34338 0.590245C5.14064 0.0947306 5.84519 -0.0887931 6.40141 0.0396735L59.1499 12.7946C60.5219 13.1249 61.4675 14.3912 61.3933 15.786L59.6505 51.096C59.6134 51.8484 58.8903 52.6376 58.2785 53.1881C58.0189 53.4451 56.6284 54.638 55.5715 54.638Z" fill="#061F4A"/>
<path d="M29.5772 55.4454C29.2621 55.4454 29.0025 55.2252 28.9469 54.9132L27.5007 46.8749C27.4451 46.5262 27.6676 46.1958 28.0198 46.1224C28.3721 46.0674 28.7058 46.2876 28.78 46.6363L30.2262 54.6746C30.2818 55.0233 30.0593 55.3537 29.707 55.4271C29.6699 55.4271 29.6143 55.4454 29.5772 55.4454Z" fill="#061F4A"/>
<path d="M24.2559 45.4067L24.7194 47.8843C24.8121 48.3798 25.1829 48.8019 25.6835 48.9304L31.6351 50.5638C32.0986 50.6922 32.525 50.3068 32.4694 49.848L32.1542 47.5723L24.2559 45.4067Z" fill="#061F4A"/>
<path d="M36.085 60.7676L16.5801 55.4087L20.3809 52.9312L39.9229 58.2533L36.085 60.7676Z" fill="#061F4A"/>
<path d="M36.0847 61.41C36.0291 61.41 35.9735 61.41 35.9178 61.3917L16.3944 56.0328C16.1534 55.9593 15.968 55.7575 15.9309 55.5189C15.8938 55.262 16.0051 55.0234 16.209 54.8766L20.0099 52.399C20.1582 52.2889 20.3621 52.2705 20.5475 52.3072L40.1081 57.6294C40.3491 57.7028 40.5345 57.9047 40.5716 58.1433C40.6087 58.3819 40.4974 58.6388 40.2935 58.7856L36.437 61.2999C36.3443 61.3733 36.2145 61.41 36.0847 61.41ZM18.1187 55.1702L35.9735 60.0519L38.3652 58.492L20.4734 53.6286L18.1187 55.1702Z" fill="#061F4A"/>
<path d="M3.63867 1.94828L55.6084 14.7766L57.7963 15.6024L58.575 18.0433L56.8878 51.2244L56.8136 53.5001L58.575 51.9952L59.1126 49.1139L60.7628 16.5751V14.9601L60.0582 14.0058L57.7406 13.1249L7.1985 0.902197L5.41859 0.645264L3.63867 1.94828Z" fill="#061F4A"/>
</svg>
