<svg width="34" height="29" viewBox="0 0 34 29" fill="none" xmlns="http://www.w3.org/2000/svg">
<path d="M17.4902 4.63989C14.3316 4.63989 11.8047 7.16678 11.8047 10.3254C11.8047 13.484 14.3316 16.0109 17.4902 16.0109C20.6488 16.0109 23.1757 13.484 23.1757 10.3254C23.1757 7.16678 20.5698 4.63989 17.4902 4.63989ZM16.7005 13.405L13.6999 10.4044L15.2792 8.82505L16.7005 10.2464L19.7012 7.24574L21.2805 8.82505L16.7005 13.405Z" fill="#3E5172"/>
<path d="M32.4933 0.138916H2.48653C1.61791 0.138916 0.907227 0.849603 0.907227 1.71822V21.4595C0.907227 22.3281 1.61791 23.0388 2.48653 23.0388H14.2523L13.6206 26.5923H10.7779C10.1462 26.5923 9.5934 27.145 9.5934 27.7767C9.5934 28.4085 10.1462 28.9612 10.7779 28.9612H24.202C24.8337 28.9612 25.3864 28.4085 25.3864 27.7767C25.3864 27.145 24.8337 26.5923 24.202 26.5923H21.2802L20.6485 23.0388H32.4143C33.283 23.0388 33.9936 22.3281 33.9936 21.4595V1.71822C34.0726 0.770637 33.3619 0.138916 32.4933 0.138916ZM17.4899 21.8543C16.8582 21.8543 16.3054 21.3016 16.3054 20.6699C16.3054 20.0381 16.8582 19.4854 17.4899 19.4854C18.1216 19.4854 18.6744 20.0381 18.6744 20.6699C18.6744 21.3016 18.1216 21.8543 17.4899 21.8543ZM30.914 17.5113H4.06583V3.29752H30.914V17.5113Z" fill="#3E5172"/>
</svg>
