<svg width="33" height="27" viewBox="0 0 33 27" fill="none" xmlns="http://www.w3.org/2000/svg">
<path d="M0.910156 12.3359C1.0625 12.2852 1.16406 12.2344 1.31641 12.2344C1.62109 12.1328 1.92578 12.082 2.28125 12.082C3.75391 12.082 5.125 13.0469 5.63281 14.418L11.9805 12.6914C11.8789 11.8789 12.0312 11.0664 12.4375 10.3555C12.8945 9.49219 13.707 8.88281 14.6719 8.62891C14.7734 8.57812 14.9258 8.57812 15.0781 8.57812L15.0273 8.52734C14.5703 6.80078 12.793 5.78516 11.0664 6.24219L3.19531 8.32422C1.46875 8.78125 0.453125 10.5586 0.910156 12.3359ZM0.605469 17.4648L1.46875 20.5625L5.37891 19.5469L14.7734 17.0078L15.5352 16.8047L16.5 16.5508V10.3555C16.043 10.1523 15.5859 10.1016 15.0781 10.2031C14.0117 10.5078 13.3516 11.625 13.6562 12.6914L13.9609 13.8594L6.69922 15.8398L6.08984 15.9922L4.51562 16.3984L4.21094 15.2305C3.90625 14.1133 2.78906 13.5039 1.72266 13.7578C0.65625 14.0625 -0.00390625 15.1797 0.300781 16.2461L0.605469 17.4648ZM32.75 2.6875V0.25H19.75C18.8359 0.25 18.125 1.01172 18.125 1.875V19.1914L0.503906 23.9141C0.300781 23.9648 0.199219 24.168 0.25 24.4219L0.65625 25.9961C0.707031 26.1992 0.960938 26.3008 1.16406 26.25L21.375 20.8164C21.5273 23.8633 23.9648 26.25 27.0625 26.25C30.1602 26.25 32.75 23.7109 32.75 20.5625C32.75 17.4648 30.1602 14.875 27.0625 14.875C24.7773 14.875 22.8477 16.2461 21.9336 18.125H20.5625V2.6875H32.75ZM27.0625 17.3125C28.8398 17.3125 30.3125 18.7852 30.3125 20.5625C30.3125 22.3906 28.8398 23.8125 27.0625 23.8125C25.2344 23.8125 23.8125 22.3906 23.8125 20.5625C23.8125 18.7852 25.2344 17.3125 27.0625 17.3125Z" fill="#061F4A"/>
</svg>
