<?xml version="1.0" encoding="UTF-8"?>
<svg width="849px" height="48px" viewBox="0 0 849 48" version="1.1" xmlns="http://www.w3.org/2000/svg" xmlns:xlink="http://www.w3.org/1999/xlink">
    <!-- Generator: Sketch 63.1 (92452) - https://sketch.com -->
    <title>Group</title>
    <desc>Created with Sketch.</desc>
    <g id="Page-1" stroke="none" stroke-width="1" fill="none" fill-rule="evenodd">
        <g id="Group" transform="translate(0.000300, 0.000000)">
            <line x1="23.9997" y1="24" x2="823.9997" y2="24" id="Path" stroke="#FF6567" stroke-width="2" stroke-dasharray="4"></line>
            <ellipse id="Oval" fill="#FF6567" fill-rule="nonzero" cx="24.3077" cy="24" rx="24.3077" ry="24"></ellipse>
            <ellipse id="Oval" fill="#3E5172" fill-rule="nonzero" cx="224.3077" cy="24" rx="24.3077" ry="24"></ellipse>
            <ellipse id="Oval" fill="#3E5172" fill-rule="nonzero" cx="424.3077" cy="24" rx="24.3077" ry="24"></ellipse>
            <ellipse id="Oval" fill="#3E5172" fill-rule="nonzero" cx="624.3077" cy="24" rx="24.3077" ry="24"></ellipse>
            <ellipse id="Oval" fill="#3E5172" fill-rule="nonzero" cx="824.3077" cy="24" rx="24.3077" ry="24"></ellipse>
            <polygon id="Path" fill="#FCFCFC" fill-rule="nonzero" points="23.8477 33 26.8707 33 26.8707 16.09 23.8587 16.09 19.4407 19.184 19.4407 22.09 23.6477 19.137 23.8477 19.137"></polygon>
            <path d="M218.6047,21.117 L221.4407,21.117 C221.4407,19.359 222.6127,18.152 224.4527,18.152 C226.2227,18.152 227.2767,19.312 227.2767,20.824 C227.2767,22.09 226.7617,22.898 224.6287,25.031 L218.7697,30.902 L218.7697,33 L230.5117,33 L230.5117,30.434 L222.8707,30.434 L222.8707,30.234 L226.5037,26.695 C229.4097,23.883 230.2657,22.5 230.2657,20.531 C230.2657,17.719 227.9797,15.668 224.6167,15.668 C221.0897,15.668 218.6047,17.906 218.6047,21.117 Z" id="Path" fill="#FCFCFC" fill-rule="nonzero"></path>
            <path d="M421.6597,25.477 L423.7807,25.477 C425.8667,25.477 427.1327,26.508 427.1327,28.172 C427.1327,29.789 425.7617,30.879 423.8157,30.879 C421.8587,30.879 420.5347,29.883 420.4057,28.324 L417.5117,28.324 C417.6517,31.406 420.1717,33.422 423.8517,33.422 C427.5077,33.422 430.2267,31.312 430.2267,28.395 C430.2267,26.098 428.7847,24.609 426.4877,24.258 L426.4877,24.059 C428.2807,23.59 429.5587,22.23 429.5697,20.191 C429.5817,17.754 427.5547,15.668 423.9567,15.668 C420.2887,15.668 417.9917,17.742 417.8397,20.73 L420.6757,20.73 C420.8047,19.066 421.9527,18.129 423.7927,18.129 C425.5857,18.129 426.6517,19.219 426.6517,20.602 C426.6517,22.113 425.4567,23.168 423.7227,23.168 L421.6597,23.168 L421.6597,25.477 Z" id="Path" fill="#FCFCFC" fill-rule="nonzero"></path>
            <path d="M625.6087,33 L628.5037,33 L628.5037,29.777 L630.7887,29.777 L630.7887,27.223 L628.5037,27.223 L628.5037,16.09 L624.2377,16.09 C621.9407,19.582 619.5387,23.438 617.3477,27.258 L617.3477,29.777 L625.6087,29.777 L625.6087,33 Z M620.1477,27.129 C621.8007,24.281 623.7577,21.176 625.4917,18.551 L625.6557,18.551 L625.6557,27.293 L620.1477,27.293 L620.1477,27.129 Z" id="Shape" fill="#FCFCFC" fill-rule="nonzero"></path>
            <path d="M823.9097,33.422 C827.6017,33.422 830.0737,30.996 830.0737,27.445 C830.0737,24.047 827.7297,21.879 824.8357,21.879 C823.1127,21.879 821.8707,22.477 821.1207,23.52 L820.9217,23.52 L821.3907,18.633 L829.1717,18.633 L829.1717,16.09 L819.0347,16.09 L818.1087,25.934 L820.8517,25.934 C821.4257,24.844 822.5387,24.176 823.9797,24.176 C825.8437,24.176 827.1557,25.512 827.1557,27.504 C827.1557,29.543 825.8437,30.902 823.8977,30.902 C822.1757,30.902 820.8747,29.883 820.6877,28.312 L817.8627,28.312 C817.9917,31.289 820.4177,33.422 823.9097,33.422 Z" id="Path" fill="#FCFCFC" fill-rule="nonzero"></path>
        </g>
    </g>
</svg>