<svg width="80" height="89" viewBox="0 0 80 89" fill="none" xmlns="http://www.w3.org/2000/svg">
<path d="M39.7 86.3C60.5211 86.3 77.4 69.4212 77.4 48.6C77.4 27.7789 60.5211 10.9 39.7 10.9C18.8789 10.9 2 27.7789 2 48.6C2 69.4212 18.8789 86.3 39.7 86.3Z" fill="#FF6567" fill-opacity="0.4" stroke="#3E5172" stroke-width="4" stroke-miterlimit="10" stroke-linecap="round" stroke-linejoin="round"/>
<path d="M39.6999 77.4001C55.6057 77.4001 68.4999 64.5058 68.4999 48.6C68.4999 32.6942 55.6057 19.8 39.6999 19.8C23.7941 19.8 10.8999 32.6942 10.8999 48.6C10.8999 64.5058 23.7941 77.4001 39.6999 77.4001Z" fill="white" stroke="#3E5172" stroke-width="2" stroke-miterlimit="10" stroke-linecap="round" stroke-linejoin="round"/>
<path d="M28.6001 2H50.8001" stroke="#3E5172" stroke-width="4" stroke-miterlimit="10" stroke-linecap="round" stroke-linejoin="round"/>
<path d="M45.1 9.6V2H34V9.6" fill="#3E5172"/>
<path d="M45.1 9.6V2H34V9.6" stroke="#3E5172" stroke-width="2" stroke-miterlimit="10" stroke-linecap="round" stroke-linejoin="round"/>
<path d="M39.7002 26.4V28.6" stroke="#3E5172" stroke-width="2" stroke-miterlimit="10" stroke-linecap="round" stroke-linejoin="round"/>
<path d="M39.7002 68.5V70.7" stroke="#3E5172" stroke-width="2" stroke-miterlimit="10" stroke-linecap="round" stroke-linejoin="round"/>
<path d="M19.8001 48.6H17.6001" stroke="#3E5172" stroke-width="2" stroke-miterlimit="10" stroke-linecap="round" stroke-linejoin="round"/>
<path d="M29.3999 43.6L39.9999 50.6L60.7999 27.5" stroke="#3E5172" stroke-width="4" stroke-miterlimit="10" stroke-linecap="round" stroke-linejoin="round"/>
</svg>
