<svg width="22" height="18" viewBox="0 0 22 18" fill="none" xmlns="http://www.w3.org/2000/svg">
<path d="M21.6663 2.0367C20.8813 2.38325 20.0375 2.61585 19.1518 2.72182C20.0555 2.18398 20.7493 1.33158 21.0765 0.318567C20.2315 0.815745 19.2937 1.1763 18.2974 1.3729C17.499 0.527835 16.3613 0 15.1031 0C12.6858 0 10.7258 1.94473 10.7258 4.34464C10.7258 4.68254 10.7644 5.01643 10.8391 5.33433C7.20219 5.15172 3.9772 3.42293 1.81788 0.796418C1.44199 1.43755 1.2254 2.18265 1.2254 2.9784C1.2254 4.4866 1.99849 5.81485 3.17279 6.59394C2.45568 6.57195 1.78056 6.37534 1.19074 6.05011C1.19007 6.0681 1.19007 6.0861 1.19007 6.10543C1.19007 8.2101 2.69893 9.96488 4.70098 10.3641C4.33376 10.4634 3.94721 10.5154 3.548 10.5154C3.26609 10.5154 2.99151 10.4894 2.72426 10.4381C3.28075 12.1642 4.89758 13.4198 6.81298 13.4538C5.31478 14.6188 3.42737 15.3139 1.37735 15.3139C1.02346 15.3139 0.675567 15.2932 0.333008 15.2519C2.26974 16.4848 4.57035 17.204 7.04224 17.204C15.0924 17.204 19.4944 10.586 19.4944 4.84715C19.4944 4.65921 19.4904 4.47127 19.4824 4.28533C20.3381 3.67219 21.0792 2.90776 21.6663 2.0367Z" fill="#FCFCFC"/>
</svg>
