<svg width="33" height="27" viewBox="0 0 33 27" fill="none" xmlns="http://www.w3.org/2000/svg">
<path d="M32.2422 18.7852L27.6719 14.2148C27.0625 13.6055 26.25 13.25 25.3867 13.25H21.3242C20.4609 13.25 19.6992 14.0117 19.6992 14.875V18.9375C19.6992 19.8008 20.0547 20.6133 20.6641 21.2227L25.2344 25.793C25.8945 26.4531 26.9102 26.4531 27.5703 25.793L32.2422 21.1211C32.9023 20.4609 32.9023 19.4453 32.2422 18.7852ZM22.9492 17.7188C22.2891 17.7188 21.7305 17.2109 21.7305 16.5C21.7305 15.8398 22.2891 15.2812 22.9492 15.2812C23.6602 15.2812 24.168 15.8398 24.168 16.5C24.168 17.2109 23.6602 17.7188 22.9492 17.7188ZM11.625 13.25C15.1797 13.25 18.125 10.3555 18.125 6.75C18.125 3.19531 15.1797 0.25 11.625 0.25C8.01953 0.25 5.125 3.19531 5.125 6.75C5.125 10.3555 8.01953 13.25 11.625 13.25ZM18.0742 18.9375V15.1797C17.4648 15.0273 16.8047 14.875 16.1445 14.875H15.2812C14.1641 15.3828 12.9453 15.6875 11.625 15.6875C10.3047 15.6875 9.03516 15.3828 7.91797 14.875H7.05469C3.29688 14.875 0.25 17.9727 0.25 21.7305V23.8125C0.25 25.1836 1.31641 26.25 2.6875 26.25H20.5625C21.3242 26.25 22.0352 25.8945 22.4414 25.2852L19.4961 22.3398C18.582 21.4258 18.0742 20.207 18.0742 18.9375Z" fill="#FCFCFC"/>
</svg>
