<svg width="26" height="24" viewBox="0 0 26 24" fill="none" xmlns="http://www.w3.org/2000/svg">
<path d="M26 11.3359C26 10.8789 25.7969 10.4727 25.4922 10.168L23.207 7.88281C22.9023 7.57812 22.4961 7.375 22.0391 7.375H19.5V3.3125C19.5 1.99219 18.3828 0.875 17.0625 0.875H8.9375C7.56641 0.875 6.5 1.99219 6.5 3.3125V7.375H3.91016C3.45312 7.375 3.04688 7.57812 2.74219 7.88281L0.457031 10.168C0.152344 10.4727 0 10.8789 0 11.3359V14.6875V22C0 22.9141 0.710938 23.625 1.625 23.625H24.375C25.2383 23.625 26 22.9141 26 22V11.3359ZM8.9375 3.3125H17.0625V7.375H8.9375V3.3125ZM2.4375 11.6406L4.21484 9.8125H21.7344L23.5625 11.6406V14.6875H19.0938V13.875C19.0938 13.4688 18.6875 13.0625 18.2812 13.0625H17.4688C17.0117 13.0625 16.6562 13.4688 16.6562 13.875V14.6875H9.34375V13.875C9.34375 13.4688 8.9375 13.0625 8.53125 13.0625H7.71875C7.26172 13.0625 6.90625 13.4688 6.90625 13.875V14.6875H2.4375V11.6406ZM23.5625 21.1875H2.4375V17.125H6.90625V17.9375C6.90625 18.3945 7.26172 18.75 7.71875 18.75H8.53125C8.9375 18.75 9.34375 18.3945 9.34375 17.9375V17.125H16.6562V17.9375C16.6562 18.3945 17.0117 18.75 17.4688 18.75H18.2812C18.6875 18.75 19.0938 18.3945 19.0938 17.9375V17.125H23.5625V21.1875Z" fill="#061F4A"/>
</svg>
