<svg width="32" height="32" viewBox="0 0 32 32" fill="none" xmlns="http://www.w3.org/2000/svg">
<path d="M18.3829 28.5671H17.4839C17.348 28.5671 17.2195 28.552 17.0911 28.5218L6.58352 25.9432C6.34935 25.8828 6.13784 25.7773 5.95654 25.6189L5.6015 25.3098C5.34467 25.0911 5.19359 24.7669 5.17848 24.4352L4.80078 14.3392C4.80078 14.309 4.80078 14.2788 4.80834 14.2562L6.43244 8.90285C6.47777 8.73697 6.59863 8.60879 6.75726 8.53339C6.9159 8.45799 7.09719 8.46553 7.24827 8.54093L7.92058 8.86515L18.6775 11.3533L20.0447 11.4966C20.3016 11.5192 20.5357 11.6549 20.6868 11.8661C20.8379 12.0772 20.8908 12.3335 20.8379 12.5899C20.8379 12.5974 20.8303 12.605 20.8303 12.6125L18.9721 18.3806L19.3347 27.5718C19.3422 27.8357 19.2516 28.0845 19.0627 28.2806C18.8965 28.4615 18.6548 28.5671 18.3829 28.5671ZM5.33711 14.3618L5.70726 24.4125C5.71481 24.601 5.79791 24.782 5.94899 24.9102L6.30402 25.2193C6.41733 25.3173 6.56086 25.3927 6.71194 25.4304L17.2195 28.0016C17.3102 28.0242 17.4008 28.0317 17.4839 28.0317H18.3829C18.5037 28.0317 18.617 27.9865 18.7001 27.896C18.7832 27.8131 18.8285 27.7 18.821 27.5793L18.4584 18.3429C18.4584 18.3127 18.4584 18.2826 18.4735 18.2524L20.3393 12.4542C20.362 12.3562 20.3393 12.2506 20.2789 12.1677C20.2185 12.0772 20.1203 12.0244 20.0145 12.0169L18.6321 11.8736C18.6246 11.8736 18.6095 11.8736 18.6019 11.8661L7.79971 9.37033C7.77705 9.36279 7.76194 9.36279 7.74684 9.34771L7.04432 9.00841C7.02165 9.00087 7.00655 9.00087 6.99899 9.00841C6.99144 9.01595 6.97633 9.02349 6.96878 9.04611L5.33711 14.3618Z" fill="#FCFCFC"/>
<path d="M16.8956 18.373C16.7445 18.373 16.601 18.3504 16.4575 18.3127L6.44088 15.6661C6.03296 15.5606 5.68548 15.3042 5.45131 14.9574L5.04339 14.3466C5.02828 14.3316 5.03584 14.3089 5.05095 14.2939C5.06605 14.2788 5.08872 14.2863 5.10382 14.3014L5.51174 14.9121C5.7308 15.2439 6.07073 15.4852 6.45599 15.5907L16.4801 18.2373C16.6161 18.275 16.7596 18.29 16.9031 18.29H18.7312C18.7539 18.29 18.769 18.3051 18.769 18.3277C18.769 18.3504 18.7539 18.3654 18.7312 18.3654L16.8956 18.373Z" fill="#FCFCFC"/>
<path d="M20.4449 12.2205C20.3618 12.2205 20.2863 12.1828 20.2334 12.1149C20.1427 12.0018 20.1654 11.8359 20.2863 11.7455L26.5334 6.98021C26.5787 6.95005 26.5712 6.90481 26.5712 6.88219C26.5636 6.85957 26.5485 6.82187 26.4956 6.80679L14.9909 4.16027C14.651 4.08487 14.2808 4.14519 13.9862 4.34123L6.94591 9.03862C6.82505 9.12156 6.65886 9.08386 6.57577 8.96322C6.49267 8.84258 6.53044 8.6767 6.65131 8.59376L13.6992 3.90391C14.1146 3.62493 14.6283 3.53445 15.1118 3.64755L26.6165 6.30162C26.8582 6.3544 27.032 6.54289 27.0848 6.77663C27.1377 7.01791 27.0471 7.25919 26.8507 7.40245L20.6035 12.1677C20.5582 12.2054 20.4978 12.2205 20.4449 12.2205Z" fill="#FCFCFC"/>
<path d="M18.5569 28.5672H17.6882C17.5447 28.5672 17.4238 28.4466 17.4238 28.3033C17.4238 28.1601 17.5447 28.0394 17.6882 28.0394H18.5569C18.8515 28.0394 19.1386 27.9339 19.3652 27.7454L26.126 22.0527C26.4508 21.7737 26.6397 21.3741 26.6397 20.9443L26.5642 6.87474C26.5642 6.73148 26.6775 6.61084 26.8285 6.61084C26.9721 6.61084 27.0929 6.73148 27.0929 6.87474L27.1685 20.9443C27.1685 21.5324 26.9116 22.0828 26.466 22.4598L19.7051 28.1525C19.3879 28.4164 18.9799 28.5672 18.5569 28.5672Z" fill="#FCFCFC"/>
<path d="M17.317 28.3408C17.2944 28.3408 17.2793 28.3257 17.2793 28.3031L16.6976 19.2627C16.6598 18.6444 16.7278 18.0261 16.9016 17.4305L18.6088 11.5945C18.6163 11.5719 18.639 11.5644 18.6541 11.5719C18.6768 11.5795 18.6843 11.6021 18.6768 11.6172L16.9771 17.4531C16.8034 18.0412 16.7354 18.6519 16.7732 19.2627L17.3548 28.3031C17.3624 28.3182 17.3473 28.3332 17.317 28.3408C17.3246 28.3408 17.3246 28.3408 17.317 28.3408Z" fill="#FCFCFC"/>
<path d="M6.35776 25.6491C6.33509 25.6491 6.31999 25.634 6.31999 25.6114L5.85164 16.6087C5.81387 15.8396 5.91207 15.0856 6.13869 14.3543L7.80812 9.09137C7.81568 9.06875 7.83834 9.06121 7.85344 9.06875C7.87611 9.07629 7.88366 9.09891 7.87611 9.11399L6.21423 14.3844C5.98761 15.1083 5.88941 15.8547 5.92718 16.6162L6.39553 25.619C6.39553 25.634 6.38042 25.6491 6.35776 25.6491Z" fill="#FCFCFC"/>
<path d="M9.59811 19.3759C9.57545 19.3759 9.54523 19.3759 9.52257 19.3684L7.15062 18.7652C6.91645 18.7049 6.75781 18.4937 6.75781 18.26V16.9707C6.75781 16.8726 6.80314 16.7822 6.87868 16.7218C6.95422 16.6615 7.05242 16.6389 7.15062 16.6691L9.52257 17.2798C9.75675 17.3401 9.91538 17.5512 9.91538 17.785V19.0592C9.91538 19.1573 9.87006 19.2477 9.79452 19.3081C9.73408 19.3533 9.6661 19.3759 9.59811 19.3759ZM7.07508 16.7218C7.0222 16.7218 6.96932 16.7369 6.93155 16.7746C6.87112 16.8199 6.84091 16.8877 6.84091 16.9631V18.2525C6.84091 18.456 6.97688 18.637 7.18084 18.6898L9.55279 19.293C9.62833 19.3081 9.69631 19.293 9.75675 19.2477C9.81718 19.2025 9.84739 19.1346 9.84739 19.0592V17.7699C9.84739 17.5663 9.71142 17.3854 9.50746 17.3326L7.13551 16.7218C7.11285 16.7218 7.09019 16.7218 7.07508 16.7218Z" fill="#FCFCFC"/>
<path d="M8.90111 18.6296L7.78312 18.3431C7.68492 18.3205 7.60938 18.2225 7.60938 18.1245V17.5213C7.60938 17.4383 7.69247 17.3705 7.77556 17.3931L8.89355 17.6796C8.99175 17.7022 9.06729 17.8002 9.06729 17.8983V18.5014C9.05974 18.5919 8.97665 18.6522 8.90111 18.6296Z" fill="#FCFCFC"/>
<path d="M8.93198 18.6748C8.91687 18.6748 8.90177 18.6748 8.88666 18.6672L7.77622 18.3807C7.65536 18.3506 7.57227 18.245 7.57227 18.1244V17.5212C7.57227 17.4684 7.59493 17.4231 7.64025 17.3854C7.67802 17.3553 7.7309 17.3402 7.78378 17.3553L8.90177 17.6418C9.02263 17.672 9.10572 17.7775 9.10572 17.8982V18.5014C9.10572 18.5541 9.08306 18.5994 9.03774 18.6371C8.99997 18.6597 8.96975 18.6748 8.93198 18.6748ZM8.90932 18.5918C8.93954 18.5994 8.96975 18.5918 8.99241 18.5768C9.01508 18.5617 9.03018 18.5315 9.03018 18.5014V17.8982C9.03018 17.8077 8.96975 17.7323 8.88666 17.7097L7.76112 17.4307C7.7309 17.4231 7.70068 17.4307 7.67802 17.4458C7.65536 17.4608 7.64025 17.491 7.64025 17.5212V18.1244C7.64025 18.2148 7.70068 18.2902 7.78378 18.3129L8.90932 18.5918Z" fill="#FCFCFC"/>
<path d="M26.8354 21.6528L19.6364 27.8582C19.4324 28.0392 19.1076 27.8959 19.1001 27.6245L18.8281 18.0186L20.6109 11.8358L26.6918 7.19873L26.8354 21.6528Z" fill="#FCFCFC"/>
<path d="M19.4249 28.0468C19.3645 28.0468 19.3041 28.0317 19.2436 28.0091C19.085 27.9412 18.9868 27.7904 18.9792 27.6246L18.7148 18.0111C18.7148 17.996 18.7148 17.9885 18.7224 17.9734L20.5051 11.7906C20.5127 11.768 20.5278 11.7454 20.5429 11.7303L26.6239 7.09324C26.6616 7.07062 26.707 7.06308 26.7447 7.07816C26.7825 7.09324 26.8052 7.13848 26.8052 7.17618L26.9487 21.6303C26.9487 21.6604 26.9336 21.6981 26.9109 21.7208L19.712 27.9262C19.6289 28.0091 19.5231 28.0468 19.4249 28.0468ZM18.9415 18.0262L19.2059 27.617C19.2059 27.7 19.2587 27.7678 19.3343 27.8055C19.4098 27.8357 19.4929 27.8281 19.5609 27.7754L26.7221 21.6077L26.5861 7.43254L20.7091 11.8962L18.9415 18.0262Z" fill="#FCFCFC"/>
</svg>
