<svg width="32" height="32" viewBox="0 0 32 32" fill="none" xmlns="http://www.w3.org/2000/svg">
<path d="M19.3346 28.5971C19.244 28.5971 19.1534 28.5895 19.0627 28.5669L5.82812 24.9477C5.2238 24.7819 4.80078 24.2314 4.80078 23.6056V9.92814C4.80078 9.78488 4.92165 9.66424 5.06517 9.66424C5.2087 9.66424 5.32956 9.78488 5.32956 9.92814V23.5981C5.32956 23.9902 5.59395 24.3295 5.9641 24.435L19.1911 28.0542C19.3573 28.0919 19.5386 28.0542 19.6821 27.9486L26.6847 22.7159C26.8358 22.6028 26.934 22.4143 26.934 22.2258V7.96776C26.934 7.8245 27.0548 7.70386 27.1983 7.70386C27.3419 7.70386 27.4627 7.8245 27.4627 7.96776V22.2333C27.4627 22.5877 27.289 22.9346 27.0019 23.1457L19.9994 28.3784C19.803 28.5217 19.5688 28.5971 19.3346 28.5971Z" fill="#FCFCFC"/>
<path d="M13.8814 4.38628L13.3224 4.2581C12.9599 4.17516 12.567 4.25056 12.2649 4.46168L5.24724 9.27971C4.80155 9.58884 4.78644 9.89798 4.8091 10.0563C4.83177 10.2147 4.96774 10.5012 5.48896 10.6294L7.57386 11.1421C7.71739 11.1798 7.86091 11.0893 7.89113 10.946C7.9289 10.8028 8.1253 10.7425 7.98178 10.7123L5.60983 10.1166C5.41342 10.0714 5.33788 9.996 5.33033 9.96584C5.32278 9.93568 5.3681 9.83766 5.54184 9.71702L12.5595 4.89899C12.7483 4.77082 12.9825 4.72558 13.2016 4.77836L13.5415 4.85375C13.6322 4.68034 13.7455 4.52954 13.8814 4.38628Z" fill="#FCFCFC"/>
<path d="M17.9531 5.84906L18.7463 6.03002C18.8445 5.86414 18.9427 5.7058 19.0711 5.56254L17.9758 5.31372C18.0136 5.37404 18.0362 5.4419 18.0287 5.5173C18.0136 5.63794 17.9984 5.7435 17.9531 5.84906Z" fill="#FCFCFC"/>
<path d="M27.4625 7.86233C27.4247 7.70399 27.2963 7.41747 26.7676 7.29683L22.7111 6.37695C22.6657 6.55037 22.5826 6.71625 22.4693 6.85951L26.6467 7.802C26.8506 7.84724 26.9337 7.92264 26.9413 7.96034C26.9488 7.99804 26.9035 8.1036 26.7373 8.22424L20.0218 13.2383C19.7726 13.4193 19.4629 13.4871 19.1682 13.4117L15.7614 12.5823C15.6179 12.5446 15.4744 12.6351 15.4441 12.7784C15.4064 12.9216 15.497 13.0649 15.6405 13.0951L19.0474 13.9244C19.1682 13.9546 19.2967 13.9697 19.4175 13.9697C19.7499 13.9697 20.0747 13.8641 20.3467 13.6606L27.0622 8.64648C27.4852 8.34488 27.4927 8.0282 27.4625 7.86233Z" fill="#FCFCFC"/>
<path d="M12.4903 12.3333C12.4676 12.3333 12.4449 12.3333 12.4298 12.3257L10.6697 11.896C10.5262 11.8583 10.5867 11.7527 10.6169 11.6094C10.6546 11.4662 10.7982 11.3832 10.9341 11.4134L12.8831 11.896C13.0266 11.9337 12.7849 11.9864 12.7471 12.1297C12.7169 12.2579 12.6036 12.3333 12.4903 12.3333Z" fill="#FCFCFC"/>
<path d="M19.3952 28.4386C19.2517 28.4386 19.1309 28.318 19.1309 28.1747V13.9619C19.1309 13.8186 19.2517 13.698 19.3952 13.698C19.5388 13.698 19.6596 13.8186 19.6596 13.9619V28.1747C19.6596 28.318 19.5388 28.4386 19.3952 28.4386Z" fill="#FCFCFC"/>
<path d="M14.2886 14.0146C14.2811 14.0146 14.2735 14.0146 14.2584 14.0146L11.4483 13.321C11.3955 13.3059 11.3652 13.2607 11.3652 13.2079V13.0269C11.3652 12.9666 11.4181 12.9138 11.4785 12.9138C11.539 12.9138 11.5919 12.9666 11.5919 13.0269V13.1249L14.266 13.7809L20.3243 9.26447V9.13629C20.3243 9.07597 20.3771 9.02319 20.4376 9.02319C20.498 9.02319 20.5509 9.07597 20.5509 9.13629V9.31725C20.5509 9.35495 20.5358 9.38511 20.5056 9.40773L14.3566 13.992C14.3415 14.0071 14.3113 14.0146 14.2886 14.0146Z" fill="#FCFCFC"/>
<path d="M9.53667 12.7481C9.52912 12.7481 9.52157 12.7481 9.50646 12.7481L6.69638 12.0544C6.6435 12.0393 6.61328 11.9941 6.61328 11.9413V11.7603C6.61328 11.7 6.66616 11.6472 6.72659 11.6472C6.78702 11.6472 6.8399 11.7 6.8399 11.7603V11.8583L9.51401 12.5143L15.5723 7.99787V7.86969C15.5723 7.80937 15.6252 7.75659 15.6856 7.75659C15.7461 7.75659 15.7989 7.80937 15.7989 7.86969V8.05065C15.7989 8.08835 15.7838 8.11851 15.7536 8.14113L9.61221 12.7254C9.58955 12.7405 9.56689 12.7481 9.53667 12.7481Z" fill="#FCFCFC"/>
<path d="M14.2886 13.8339C14.281 13.8339 14.2735 13.8339 14.2583 13.8339L11.4483 13.1403C11.4029 13.1327 11.3727 13.095 11.3652 13.0498C11.3576 13.0045 11.3727 12.9593 11.4105 12.9367L17.499 8.42022C17.5217 8.3976 17.5594 8.39006 17.5897 8.3976L20.4526 9.02342C20.4979 9.03096 20.5282 9.06866 20.5357 9.10636C20.5433 9.1516 20.5282 9.19684 20.4904 9.21946L14.349 13.8038C14.3414 13.8264 14.3112 13.8339 14.2886 13.8339ZM11.7353 12.9744L14.2583 13.6002L20.158 9.19684L17.5897 8.63135L11.7353 12.9744Z" fill="#FCFCFC"/>
<path d="M12.1659 11.2402L18.0731 6.75391L17.7332 7.67378L12.7853 11.4513C12.7325 11.4965 12.6569 11.5116 12.5889 11.489L12.1961 11.391C12.1281 11.3834 12.1055 11.2854 12.1659 11.2402Z" fill="#FCFCFC"/>
<path d="M12.6412 11.5417C12.6186 11.5417 12.5959 11.5417 12.5808 11.5342L12.188 11.4361C12.1427 11.4211 12.1049 11.3834 12.0898 11.3381C12.0822 11.2929 12.0973 11.2401 12.1351 11.2099L18.0423 6.72367C18.0574 6.71613 18.0725 6.71613 18.0876 6.72367C18.1028 6.73121 18.1028 6.75383 18.1028 6.76891L17.7628 7.68879C17.7628 7.69633 17.7553 7.70387 17.7477 7.70387L12.7999 11.4814C12.7545 11.5191 12.7017 11.5417 12.6412 11.5417ZM12.188 11.2703C12.1729 11.2854 12.1653 11.3004 12.1653 11.323C12.1729 11.3457 12.1804 11.3607 12.2031 11.3607L12.5959 11.4588C12.6488 11.4738 12.7092 11.4588 12.7545 11.4286L17.6948 7.65109L17.9819 6.86693L12.188 11.2703Z" fill="#FCFCFC"/>
<path d="M9.53661 12.5671C9.52906 12.5671 9.5215 12.5671 9.50639 12.5671L6.69631 11.8734C6.65099 11.8658 6.62077 11.8281 6.61322 11.7829C6.60566 11.7377 6.62077 11.6924 6.65854 11.6698L12.7471 7.15338C12.7697 7.13076 12.8075 7.12322 12.8377 7.13076L15.7007 7.75657C15.746 7.76411 15.7762 7.80181 15.7838 7.83951C15.7913 7.88475 15.7762 7.92999 15.7384 7.95261L9.59704 12.5369C9.58949 12.5595 9.56683 12.5671 9.53661 12.5671ZM6.99092 11.7075L9.51395 12.3333L15.4136 7.92999L12.8453 7.3645L6.99092 11.7075Z" fill="#FCFCFC"/>
<path d="M12.6875 5.81128V6.73869L16.2228 7.56055V6.64067L12.6875 5.81128Z" fill="#FCFCFC"/>
<path d="M16.2225 7.67362C16.215 7.67362 16.2074 7.67362 16.1999 7.67362L12.6571 6.85176C12.6042 6.83668 12.5664 6.79144 12.5664 6.73866V5.81124C12.5664 5.77354 12.5815 5.74338 12.6117 5.72076C12.6419 5.69814 12.6722 5.6906 12.7099 5.69814L16.2528 6.52C16.3056 6.53508 16.3434 6.58032 16.3434 6.6331V7.56052C16.3434 7.59822 16.3283 7.62838 16.2981 7.651C16.2754 7.66608 16.2528 7.67362 16.2225 7.67362ZM12.8006 6.64818L16.1168 7.41726V6.72358L12.8006 5.9545V6.64818Z" fill="#FCFCFC"/>
<path d="M18.0734 4.5293V6.09007L16.2227 7.56037V6.64049L18.0734 4.5293Z" fill="#FCFCFC"/>
<path d="M16.2227 7.67352C16.2076 7.67352 16.1925 7.67351 16.1698 7.66597C16.132 7.64336 16.1094 7.60566 16.1094 7.56042V6.633C16.1094 6.60284 16.1169 6.58022 16.1396 6.5576L17.9828 4.45395C18.013 4.41625 18.0659 4.40871 18.1112 4.42379C18.1565 4.43887 18.1867 4.48411 18.1867 4.52934V6.09012C18.1867 6.12782 18.1716 6.15798 18.1414 6.1806L16.2982 7.65089C16.2756 7.66597 16.2453 7.67352 16.2227 7.67352ZM16.336 6.67824V7.32668L17.9525 6.03734V4.83094L16.336 6.67824Z" fill="#FCFCFC"/>
<path d="M16.223 6.75372C16.2155 6.75372 16.2079 6.75372 16.2004 6.75372L12.6575 5.92432C12.6198 5.91678 12.5895 5.88662 12.5744 5.84893C12.5593 5.81123 12.5744 5.76599 12.5971 5.74337L14.4403 3.63972C14.4705 3.60956 14.5083 3.59448 14.5536 3.60202L18.0964 4.42387C18.1342 4.43141 18.1644 4.46157 18.1795 4.49927C18.1946 4.53697 18.1795 4.58221 18.1568 4.60483L16.3137 6.70848C16.291 6.73864 16.2532 6.75372 16.223 6.75372ZM12.8917 5.75091L16.1777 6.51244L17.8547 4.59729L14.5687 3.83576L12.8917 5.75091Z" fill="#FCFCFC"/>
<path d="M17.7324 7.146V8.06587L21.2677 8.88772V7.96785L17.7324 7.146Z" fill="#FCFCFC"/>
<path d="M21.2675 9.00076C21.2599 9.00076 21.2523 9.00076 21.2448 9.00076L17.702 8.1789C17.6491 8.16382 17.6113 8.11858 17.6113 8.0658V7.13839C17.6113 7.10069 17.6264 7.07053 17.6567 7.04791C17.6869 7.02529 17.7171 7.01775 17.7549 7.02529L21.2977 7.84714C21.3505 7.86222 21.3883 7.90746 21.3883 7.96024V8.88766C21.3883 8.92536 21.3732 8.95552 21.343 8.97814C21.3203 8.99322 21.2977 9.00076 21.2675 9.00076ZM17.8455 7.97532L21.1617 8.7444V8.05072L17.8455 7.28165V7.97532Z" fill="#FCFCFC"/>
<path d="M23.1183 5.85645V7.42475L21.2676 8.8875V7.96763L23.1183 5.85645Z" fill="#FCFCFC"/>
<path d="M21.2676 9.00066C21.2525 9.00066 21.2374 9.00067 21.2147 8.99313C21.177 8.97051 21.1543 8.9328 21.1543 8.88757V7.96015C21.1543 7.92999 21.1619 7.90737 21.1845 7.88475L23.0277 5.78109C23.0579 5.74339 23.1108 5.73585 23.1561 5.75093C23.2014 5.76601 23.2316 5.81125 23.2316 5.85649V7.41727C23.2316 7.45497 23.2165 7.48513 23.1863 7.50775L21.3431 8.97805C21.3205 8.99313 21.2978 9.00066 21.2676 9.00066ZM21.3809 8.00539V8.65383L22.9975 7.36449V6.15809L21.3809 8.00539Z" fill="#FCFCFC"/>
<path d="M21.2679 8.0809C21.2604 8.0809 21.2528 8.0809 21.2453 8.0809L17.7025 7.25904C17.6647 7.2515 17.6345 7.22134 17.6194 7.18365C17.6043 7.14595 17.6194 7.1007 17.642 7.07808L19.4852 4.97444C19.5154 4.94428 19.5532 4.9292 19.5985 4.93674L23.1413 5.75859C23.1791 5.76613 23.2093 5.79629 23.2244 5.83399C23.2395 5.87169 23.2244 5.91693 23.2018 5.93955L21.3586 8.0432C21.3359 8.06582 21.3057 8.0809 21.2679 8.0809ZM17.9442 7.07808L21.2302 7.83962L22.9072 5.92447L19.6212 5.16293L17.9442 7.07808Z" fill="#FCFCFC"/>
<path d="M16.5848 6.24855H16.5772L13.0419 5.41915C13.0193 5.41161 13.0117 5.39653 13.0117 5.37391C13.0117 5.35129 13.0344 5.34375 13.057 5.34375L16.5923 6.17315C16.615 6.18069 16.6225 6.19577 16.6225 6.21839C16.615 6.23347 16.5999 6.24855 16.5848 6.24855Z" fill="#FCFCFC"/>
<path d="M16.993 5.83375H16.9854L13.4501 5.00435C13.4275 4.99681 13.4199 4.98174 13.4199 4.95912C13.4275 4.9365 13.4426 4.92896 13.4652 4.92896L17.0005 5.75835C17.0232 5.76589 17.0307 5.78097 17.0307 5.80359C17.0232 5.81867 17.0081 5.83375 16.993 5.83375Z" fill="#FCFCFC"/>
<path d="M17.3992 5.41895H17.3917L13.8564 4.58956C13.8337 4.58202 13.8262 4.56694 13.8262 4.54432C13.8337 4.5217 13.8488 4.51416 13.8715 4.51416L17.4068 5.34356C17.4294 5.3511 17.437 5.36618 17.437 5.3888C17.437 5.40388 17.4219 5.41895 17.3992 5.41895Z" fill="#FCFCFC"/>
<path d="M17.7095 4.98179H17.7019L14.2724 4.17501C14.2497 4.16747 14.2422 4.15239 14.2422 4.12977C14.2497 4.10715 14.2648 4.09961 14.2875 4.09961L17.717 4.90639C17.7397 4.91393 17.7472 4.92902 17.7472 4.95164C17.7397 4.96672 17.7246 4.98179 17.7095 4.98179Z" fill="#FCFCFC"/>
<path d="M21.5848 7.57569H21.5772L18.0419 6.7463C18.0193 6.73876 18.0117 6.72368 18.0117 6.70106C18.0193 6.67844 18.0344 6.6709 18.057 6.6709L21.5923 7.50029C21.615 7.50783 21.6225 7.52291 21.6225 7.54553C21.615 7.56815 21.5999 7.57569 21.5848 7.57569Z" fill="#FCFCFC"/>
<path d="M21.993 7.1609H21.9854L18.4501 6.3315C18.4275 6.32396 18.4199 6.30888 18.4199 6.28626C18.4275 6.26364 18.4426 6.2561 18.4652 6.2561L22.0005 7.0855C22.0232 7.09304 22.0307 7.10812 22.0307 7.13074C22.0307 7.15336 22.0156 7.1609 21.993 7.1609Z" fill="#FCFCFC"/>
<path d="M22.4012 6.74635H22.3936L18.8583 5.91695C18.8357 5.90941 18.8281 5.89433 18.8281 5.87171C18.8357 5.84909 18.8508 5.84155 18.8734 5.84155L22.4087 6.67095C22.4314 6.67849 22.4389 6.69357 22.4389 6.71619C22.4389 6.73127 22.4238 6.74635 22.4012 6.74635Z" fill="#FCFCFC"/>
<path d="M22.8152 6.33155H22.8077L19.2724 5.50216C19.2497 5.49462 19.2422 5.47954 19.2422 5.45692C19.2497 5.4343 19.2648 5.42676 19.2875 5.42676L22.8228 6.25615C22.8454 6.26369 22.853 6.27877 22.853 6.30139C22.8454 6.31647 22.8303 6.33155 22.8152 6.33155Z" fill="#FCFCFC"/>
<path d="M7.67794 11.0515L7.47398 11.9412L7.39844 11.9262L7.58729 11.1194L7.67794 11.0515Z" fill="#FCFCFC"/>
<path d="M8.62994 10.3428L8.22202 12.1222L8.14648 12.1071L8.53929 10.4182L8.62994 10.3428Z" fill="#FCFCFC"/>
<path d="M9.57387 9.64917L8.95445 12.3032L8.87891 12.2882L9.47567 9.71703L9.57387 9.64917Z" fill="#FCFCFC"/>
<path d="M10.525 8.94043L9.7469 12.2957L9.65625 12.3636L10.4268 9.00829L10.525 8.94043Z" fill="#FCFCFC"/>
<path d="M11.4703 8.23926L10.6998 11.587L10.6016 11.6549L11.3796 8.30711L11.4703 8.23926Z" fill="#FCFCFC"/>
<path d="M12.4372 7.52295L11.6138 10.9009L11.5156 10.9763L12.3466 7.59081L12.4372 7.52295Z" fill="#FCFCFC"/>
<path d="M13.2537 7.33442L12.5965 10.1694L12.5059 10.2373L13.1782 7.31934L13.2537 7.33442Z" fill="#FCFCFC"/>
<path d="M14.0007 7.50019L13.5474 9.46058L13.4492 9.52843L13.9251 7.48511L14.0007 7.50019Z" fill="#FCFCFC"/>
<path d="M12.4143 12.2656L12.2028 13.1553L12.1348 13.1403L12.3161 12.3335L12.4143 12.2656Z" fill="#FCFCFC"/>
<path d="M13.3585 11.5645L12.9505 13.3363L12.875 13.3213L13.2678 11.6323L13.3585 11.5645Z" fill="#FCFCFC"/>
<path d="M14.3024 10.863L13.683 13.5171L13.6074 13.502L14.2042 10.9309L14.3024 10.863Z" fill="#FCFCFC"/>
<path d="M15.2554 10.1543L14.4774 13.5096L14.3867 13.5774L15.1648 10.2297L15.2554 10.1543Z" fill="#FCFCFC"/>
<path d="M16.199 9.45312L15.4285 12.8009L15.3379 12.8687L16.1084 9.52099L16.199 9.45312Z" fill="#FCFCFC"/>
<path d="M17.1733 8.73682L16.3423 12.1147L16.2441 12.1901L17.0751 8.80468L17.1733 8.73682Z" fill="#FCFCFC"/>
<path d="M17.9822 8.54828L17.325 11.3833L17.2344 11.4512L17.9067 8.5332L17.9822 8.54828Z" fill="#FCFCFC"/>
<path d="M18.7292 8.71406L18.2759 10.6744L18.1777 10.7498L18.6536 8.69897L18.7292 8.71406Z" fill="#FCFCFC"/>
<path d="M27.1978 22.7535L19.3945 28.1748V13.7207L27.1978 8.39746V22.7535Z" fill="#FCFCFC"/>
<path d="M19.3946 28.2878C19.3795 28.2878 19.3568 28.2802 19.3417 28.2727C19.3039 28.2501 19.2812 28.2124 19.2812 28.1747V13.7281C19.2812 13.6904 19.2964 13.6527 19.3341 13.6376L27.1374 8.30687C27.1752 8.28425 27.2205 8.28425 27.2507 8.29933C27.2885 8.32195 27.3111 8.35965 27.3111 8.39735V22.761C27.3111 22.7987 27.296 22.8364 27.2658 22.8515L19.4625 28.2651C19.4399 28.2802 19.4172 28.2878 19.3946 28.2878ZM19.5079 13.7809V27.956L27.0845 22.7007V8.60847L19.5079 13.7809Z" fill="#FCFCFC"/>
</svg>
