<svg width="24" height="24" viewBox="0 0 24 24" fill="none" xmlns="http://www.w3.org/2000/svg">
<path d="M13.8691 12.2802C13.5577 12.2802 13.2852 12.5527 13.2852 12.8641V18.7161C13.2852 19.0275 13.5577 19.3 13.8691 19.3C14.1806 19.3 14.4531 19.0275 14.4531 18.7161V12.8641C14.4531 12.5138 14.2195 12.2802 13.8691 12.2802ZM17.8012 7.14124C17.7233 7.02445 17.7233 6.90765 17.8012 6.79086L18.8913 5.50613C19.047 5.31147 18.9302 5.07788 18.6966 5.07788H13.5577C13.402 5.07788 13.2852 5.19467 13.2852 5.3504V8.5817C13.2852 8.73743 13.402 8.85422 13.5577 8.85422H18.6577C18.8913 8.85422 19.0081 8.5817 18.8523 8.42598L17.8012 7.14124Z" fill="#FCFCFC"/>
<path d="M7.85659 8.65954C8.8688 8.65954 9.68636 7.84199 9.68636 6.82977C9.68636 5.81756 8.8688 5 7.85659 5C6.84437 5 6.02681 5.81756 6.02681 6.82977C6.02681 7.84199 6.84437 8.65954 7.85659 8.65954ZM12.4505 9.74962H6.49399C6.10468 9.74962 5.79323 10.0221 5.71536 10.3725L5.0146 14.1878C4.97567 14.3825 5.0146 14.616 5.13139 14.7718L6.10468 16.2122C6.18254 16.329 6.22147 16.4458 6.22147 16.6015L6.45506 18.5603C6.49399 18.9496 6.84437 19.2611 7.23368 19.2611H8.28483C8.67414 19.2611 9.02453 18.9496 9.06346 18.5603L9.29705 16.5626C9.29705 16.4847 9.33598 16.3679 9.37491 16.2901L9.6085 15.784C9.64743 15.6672 9.68636 15.5504 9.68636 15.4336V11.3069H12.4116C12.8398 11.3069 13.1902 10.9565 13.1902 10.5282C13.2291 10.1 12.8787 9.74962 12.4505 9.74962Z" fill="#FCFCFC"/>
</svg>
