<svg width="24" height="24" viewBox="0 0 24 24" fill="none" xmlns="http://www.w3.org/2000/svg">
<path d="M10.25 10.6875C10.25 10.2227 9.83984 9.8125 9.375 9.8125H8.9375C7.95312 9.8125 7.1875 10.6055 7.1875 11.5625V12.875C7.1875 13.8594 7.95312 14.625 8.9375 14.625H9.375C9.83984 14.625 10.25 14.2422 10.25 13.75V10.6875ZM15.0625 14.625C16.0195 14.625 16.8125 13.8594 16.8125 12.875V11.5625C16.8125 10.6055 16.0195 9.8125 15.0625 9.8125H14.625C14.1328 9.8125 13.75 10.2227 13.75 10.6875V13.75C13.75 14.2422 14.1328 14.625 14.625 14.625H15.0625ZM12 5C8.08984 5 5.10938 8.25391 5 12V12.4375C5 12.6836 5.19141 12.875 5.4375 12.875H5.875C6.09375 12.875 6.3125 12.6836 6.3125 12.4375V12C6.3125 8.88281 8.85547 6.3125 12 6.3125C15.1172 6.3125 17.6875 8.88281 17.6875 12H17.6602C17.6602 12.082 17.6875 16.5391 17.6875 16.5391C17.6875 17.1953 17.168 17.6875 16.5117 17.6875H13.75C13.75 16.9766 13.1484 16.375 12.4375 16.375H11.5625C10.8242 16.375 10.25 16.9766 10.25 17.6875C10.25 18.4258 10.8242 19 11.5625 19H16.5117C17.8789 19 19 17.9062 19 16.5391V12C18.8633 8.25391 15.8828 5 12 5Z" fill="#FCFCFC"/>
</svg>
