<svg width="24" height="24" viewBox="0 0 24 24" fill="none" xmlns="http://www.w3.org/2000/svg">
<path d="M7.65512 17.3594V15.14C7.52457 15.14 7.3505 15.1835 7.21995 15.1835C6.91533 15.1835 6.65423 15.14 6.34961 15.053V17.3594C6.34961 18.1862 7.04588 18.8825 7.8727 18.8825H9.52635V17.577H7.8727C7.74215 17.577 7.65512 17.4899 7.65512 17.3594ZM14.0956 16.1844H11.4846C11.0059 16.1844 10.6143 16.5761 10.6143 17.0548V19.2306C10.6143 19.7093 11.0059 20.1009 11.4846 20.1009H14.0956C14.5743 20.1009 14.966 19.7093 14.966 19.2306V17.0548C14.966 16.5761 14.5743 16.1844 14.0956 16.1844Z" fill="#FCFCFC"/>
<path d="M11.484 7.91653H14.095C14.5737 7.91653 14.9654 7.52487 14.9654 7.04619V4.87034C14.9654 4.39165 14.5737 4 14.095 4H11.484C11.0053 4 10.6137 4.39165 10.6137 4.87034V7.04619C10.6137 7.52487 11.0053 7.91653 11.484 7.91653ZM12.0062 9.43962V9.87479C12.0062 10.2229 12.3109 10.5275 12.659 10.5275C13.0071 10.5275 13.3117 10.2229 13.3117 9.87479V9.43962C13.3117 9.09149 13.0071 8.78687 12.659 8.78687C12.3109 8.78687 12.0062 9.09149 12.0062 9.43962ZM19.9698 11.5284L18.0116 9.57017C17.9245 9.48314 17.794 9.43962 17.707 9.43962C17.5764 9.43962 17.4894 9.48314 17.4023 9.57017L15.7922 11.1803H9.3517C9.0906 10.2664 8.22026 9.61369 7.21937 9.61369C6.00089 9.61369 5 10.6146 5 11.8331C5 13.0515 6.00089 14.0524 7.21937 14.0524C8.22026 14.0524 9.0906 13.3997 9.3517 12.4858H15.7922L17.4023 14.0959C17.4894 14.183 17.6199 14.2265 17.707 14.2265C17.8375 14.2265 17.9245 14.183 18.0116 14.0959L19.9698 12.1377C20.1439 11.9636 20.1439 11.7025 19.9698 11.5284ZM12.572 13.5737C12.2238 13.5737 11.9192 13.8784 11.9192 14.2265V14.6617C11.9192 15.0098 12.2238 15.3144 12.572 15.3144C12.9201 15.3144 13.2247 15.0098 13.2247 14.6617V14.2265C13.2247 13.8784 12.9201 13.5737 12.572 13.5737Z" fill="#FCFCFC"/>
</svg>
