<svg width="32" height="32" viewBox="0 0 32 32" fill="none" xmlns="http://www.w3.org/2000/svg">
<path d="M18.2072 28.563C18.1241 28.563 18.0485 28.5555 17.9655 28.5329L6.06037 25.253C5.55426 25.1097 5.19922 24.6498 5.19922 24.122V10.6104C5.19922 9.78852 5.59958 9.00437 6.26433 8.51427L12.8892 3.65099C12.9496 3.60575 13.0327 3.59067 13.1007 3.60575L26.4788 6.63682C26.577 6.65944 26.6601 6.74238 26.6828 6.8404C26.7054 6.93842 26.6601 7.04398 26.577 7.1043L19.9522 11.9676C19.4234 12.3596 19.1061 12.9779 19.1061 13.6339V27.6507C19.1061 27.9297 18.9777 28.1936 18.7511 28.367C18.5924 28.4952 18.4036 28.563 18.2072 28.563ZM13.1007 4.15617L6.57404 8.94405C6.04526 9.33612 5.728 9.9544 5.728 10.6104V24.122C5.728 24.4085 5.9244 24.6649 6.2039 24.7403L18.109 28.0202C18.2223 28.0503 18.3356 28.0277 18.4338 27.9598C18.5245 27.892 18.5773 27.7789 18.5773 27.6658V13.649C18.5773 12.8271 18.9777 12.043 19.6424 11.5529L25.8065 7.03644L13.1007 4.15617Z" fill="#FCFCFC"/>
<path d="M18.5542 28.6383C18.4182 28.6383 18.2898 28.6232 18.1539 28.5855L17.6175 28.4348C17.474 28.3971 17.3909 28.2538 17.4362 28.1105C17.474 27.9673 17.6175 27.8843 17.761 27.9296L18.2974 28.0804C18.5995 28.1633 18.9244 28.0954 19.1661 27.8994L25.7683 22.5687C26.0176 22.3726 26.1535 22.0786 26.1535 21.7619V6.90062C26.1535 6.75736 26.2744 6.63672 26.4179 6.63672C26.5615 6.63672 26.6823 6.75736 26.6823 6.90062V21.7468C26.6823 22.2218 26.4708 22.6667 26.1007 22.9683L19.4985 28.299C19.2265 28.5177 18.8941 28.6383 18.5542 28.6383Z" fill="#FCFCFC"/>
<path d="M19.6493 11.9222H19.6418L6.40717 8.77047C6.38451 8.76293 6.37695 8.74785 6.37695 8.72523C6.38451 8.70261 6.39962 8.69507 6.42228 8.69507L19.6569 11.8468C19.6795 11.8543 19.6871 11.8694 19.6871 11.892C19.6795 11.9071 19.6644 11.9222 19.6493 11.9222Z" fill="#FCFCFC"/>
<path d="M19.4013 12.1636H19.3937L6.15912 9.01192C6.13646 9.00438 6.12891 8.9893 6.12891 8.96669C6.13646 8.94407 6.15157 8.93652 6.17423 8.93652L19.4088 12.0882C19.4315 12.0958 19.439 12.1108 19.439 12.1335C19.4315 12.1485 19.4164 12.1636 19.4013 12.1636Z" fill="#FCFCFC"/>
<path d="M19.038 12.7442H19.0304L5.79584 9.59249C5.77318 9.58495 5.76562 9.56987 5.76562 9.54725C5.77318 9.52463 5.78829 9.51709 5.81095 9.51709L19.0455 12.6688C19.0682 12.6763 19.0758 12.6914 19.0758 12.714C19.0682 12.7367 19.0531 12.7442 19.038 12.7442Z" fill="#FCFCFC"/>
<path d="M18.8427 13.4981H18.8351L5.60053 10.3464C5.57787 10.3389 5.57031 10.3238 5.57031 10.3012C5.57787 10.2785 5.59297 10.271 5.61564 10.271L18.8502 13.4227C18.8729 13.4302 18.8804 13.4453 18.8804 13.4679C18.8729 13.483 18.8578 13.4981 18.8427 13.4981Z" fill="#FCFCFC"/>
<path d="M18.8427 14.1165H18.8351L5.60053 10.9648C5.57787 10.9573 5.57031 10.9422 5.57031 10.9196C5.57787 10.8969 5.59297 10.8894 5.61564 10.8894L18.8502 14.0411C18.8729 14.0486 18.8804 14.0637 18.8804 14.0863C18.8729 14.1014 18.8578 14.1165 18.8427 14.1165Z" fill="#FCFCFC"/>
<path d="M22.9587 6.83279L15.5784 5.15137C15.314 5.09106 15.0421 5.14383 14.823 5.29463L12.0205 7.17209C11.9072 7.24749 11.9449 7.41337 12.0734 7.44353L19.6727 9.2305C19.8615 9.27574 20.0655 9.23804 20.2241 9.1174L23.0191 7.09669C23.1097 7.02129 23.0795 6.86295 22.9587 6.83279ZM20.7529 6.74231L19.1665 7.88838C19.0759 7.95624 18.9626 7.97886 18.8568 7.9487L14.5586 6.93835C14.4831 6.92327 14.468 6.82525 14.5284 6.78001L16.1147 5.71687C16.2432 5.63393 16.3942 5.60377 16.5453 5.64147L20.7227 6.59905C20.7907 6.60659 20.8133 6.69707 20.7529 6.74231Z" fill="#FCFCFC"/>
<path d="M19.8154 9.27583C19.7626 9.27583 19.7021 9.26829 19.6492 9.25321L12.0575 7.47378C11.982 7.4587 11.9291 7.39838 11.914 7.32298C11.8989 7.24758 11.9291 7.17218 11.9971 7.13448L14.7996 5.25704C15.0262 5.10624 15.3133 5.05346 15.5852 5.11378L22.9654 6.80273C23.0334 6.81781 23.0863 6.87058 23.1014 6.94598C23.1165 7.01384 23.0863 7.08924 23.0259 7.12694L20.2233 9.14765C20.11 9.23059 19.959 9.27583 19.8154 9.27583ZM15.3586 5.15902C15.1773 5.15902 14.9884 5.2118 14.8374 5.31735L12.0348 7.1948C11.9895 7.22496 11.982 7.27774 11.9895 7.3079C11.9971 7.3456 12.0197 7.3833 12.0726 7.39838L19.6719 9.18535C19.8532 9.23059 20.0421 9.19289 20.1931 9.07979L22.9957 7.05908C23.0334 7.03646 23.0485 6.99122 23.041 6.95352C23.0334 6.91582 23.0032 6.87812 22.9579 6.87058L15.5625 5.18164C15.4946 5.16656 15.4266 5.15902 15.3586 5.15902Z" fill="#FCFCFC"/>
<path d="M13.0098 9.28331L13.2893 9.10235C13.327 9.07973 13.3724 9.07219 13.4177 9.07973L15.631 9.57737C15.6537 9.58491 15.6537 9.60753 15.6386 9.62261L15.3591 9.82619C15.3364 9.84881 15.2986 9.84881 15.2684 9.84127L13.0173 9.32101C12.9947 9.32101 12.9871 9.29085 13.0098 9.28331Z" fill="#FCFCFC"/>
<path d="M15.2912 9.8789C15.2761 9.8789 15.2686 9.87891 15.2535 9.87137L13.0024 9.35111C12.9797 9.34357 12.957 9.32849 12.957 9.29833C12.9495 9.27571 12.9646 9.24555 12.9873 9.23801L13.2668 9.05705C13.3121 9.02689 13.365 9.01935 13.4178 9.02689L15.6312 9.52453C15.6538 9.53207 15.6765 9.54715 15.6765 9.56977C15.684 9.59239 15.6689 9.61501 15.6538 9.63009L15.3743 9.83367C15.3517 9.87137 15.3214 9.8789 15.2912 9.8789ZM13.0552 9.29833L15.2761 9.81105C15.2988 9.81859 15.3214 9.81105 15.3365 9.79597L15.5934 9.61501L13.4103 9.12491C13.3801 9.11737 13.3423 9.12491 13.3121 9.13999L13.0552 9.29833Z" fill="#FCFCFC"/>
<path d="M25.9199 22.7647L19.0155 28.201C18.9476 28.2538 18.8418 28.2086 18.8418 28.1181V13.8902L19.4008 12.1259L26.4184 6.9082V21.7468C26.4184 22.1389 26.2372 22.5159 25.9199 22.7647Z" fill="#FCFCFC"/>
<path d="M18.9473 28.3369C18.9171 28.3369 18.8793 28.3293 18.8491 28.3143C18.7736 28.2766 18.7207 28.2012 18.7207 28.1182V13.8903C18.7207 13.8752 18.7207 13.8677 18.7283 13.8526L19.2873 12.0883C19.2948 12.0656 19.3099 12.043 19.325 12.0355L26.3427 6.81783C26.3804 6.79521 26.4258 6.78767 26.4635 6.81029C26.5013 6.83291 26.524 6.87061 26.524 6.90831V21.747C26.524 22.1843 26.3276 22.5914 25.9801 22.8629L19.0833 28.2841C19.0455 28.3143 19.0002 28.3369 18.9473 28.3369ZM18.9549 13.9054V28.1031L25.8517 22.6744C26.1387 22.4482 26.3049 22.1089 26.3049 21.7394V7.12697L19.4988 12.1938L18.9549 13.9054Z" fill="#FCFCFC"/>
</svg>
