<svg width="24" height="24" viewBox="0 0 24 24" fill="none" xmlns="http://www.w3.org/2000/svg">
<path d="M12.1276 5C8.15882 5 5 8.15882 5 12.1276C5 16.0964 8.15882 19.2552 12.1276 19.2552C16.0964 19.2552 19.2552 16.0964 19.2552 12.1276C19.2552 8.15882 16.0964 5 12.1276 5ZM15.9344 14.0715C15.9344 14.1525 15.8534 14.2335 15.7724 14.2335H14.3955C14.3145 14.3145 14.3145 14.3145 14.2335 14.3955V15.7724C14.2335 15.8534 14.1525 15.9344 14.0715 15.9344H10.1837C10.1027 15.9344 10.0217 15.8534 10.0217 15.7724V14.3955C9.94072 14.3145 9.94072 14.3145 9.85973 14.2335H8.4828C8.40181 14.2335 8.32081 14.1525 8.32081 14.0715V10.1837C8.32081 10.1027 8.40181 10.0217 8.4828 10.0217H9.85973C9.94072 9.94072 9.94072 9.94072 10.0217 9.85973V8.48281C10.0217 8.40181 10.1027 8.32081 10.1837 8.32081H14.0715C14.1525 8.32081 14.2335 8.40181 14.2335 8.48281V9.85973C14.3145 9.94072 14.3145 9.94072 14.3955 10.0217H15.7724C15.8534 10.0217 15.9344 10.1027 15.9344 10.1837V14.0715Z" fill="#F05355"/>
</svg>
