<svg width="24" height="24" viewBox="0 0 24 24" fill="none" xmlns="http://www.w3.org/2000/svg">
<path d="M15.4687 10.325C15.4687 10.2875 15.4687 10.25 15.4687 10.2125C15.4687 9.9875 15.3937 9.8 15.3187 9.6125L15.7312 9.2C15.9187 9.0125 15.9937 8.7875 15.9562 8.525L15.8437 7.8875C15.8062 7.6625 15.8812 7.4 16.0687 7.2125L16.4062 6.875C16.7062 6.575 16.7062 6.125 16.4062 5.825L15.7312 5.225C15.4312 4.925 14.9812 4.925 14.6812 5.225L14.3437 5.5625C14.1562 5.75 13.9312 5.825 13.6687 5.7875L13.0312 5.675C12.8062 5.6375 12.5437 5.7125 12.3562 5.9L9.01875 9.2375C8.71875 9.5375 8.71875 9.9875 9.01875 10.2875L11.3437 12.6125C11.6437 12.9125 12.0937 12.9125 12.3937 12.6125L13.7437 11.2625C13.9312 11.375 14.1187 11.4125 14.3437 11.4125C14.4937 11.4125 14.6437 11.375 14.7937 11.3375C15.2062 11.825 15.4687 12.425 15.4687 13.1V13.475C15.4687 15.0125 14.1187 16.2875 12.4312 16.2875H7.03125C6.73125 16.2875 6.46875 16.55 6.46875 16.85C6.46875 17.15 6.73125 17.4125 7.03125 17.4125H9.01875C8.60625 17.8625 8.34375 18.4625 8.34375 19.1V19.2125C8.34375 19.325 8.41875 19.4 8.53125 19.4H14.1562C14.2687 19.4 14.3437 19.325 14.3437 19.2125V19.1C14.3437 18.3875 14.0062 17.7125 13.5187 17.2625C15.2812 16.8125 16.5937 15.275 16.5937 13.475V13.1C16.5937 12.0125 16.1437 11.0375 15.4687 10.325Z" fill="#F9F9F7"/>
<path d="M8.94375 13.2124C9.24375 13.5124 9.69375 13.5124 9.99375 13.2124L10.1812 13.0249C10.2562 12.9499 10.2562 12.8374 10.1812 12.7624L8.71875 11.2999C8.64375 11.2249 8.53125 11.2249 8.45625 11.2999L8.26875 11.4874C7.96875 11.7874 7.96875 12.2374 8.26875 12.5374L8.94375 13.2124ZM12.4687 14.3374H8.34375C8.04375 14.3374 7.78125 14.5999 7.78125 14.8999C7.78125 15.1999 8.04375 15.4624 8.34375 15.4624H12.4687C12.7687 15.4624 13.0312 15.1999 13.0312 14.8999C13.0312 14.5999 12.7687 14.3374 12.4687 14.3374Z" fill="#F9F9F7"/>
</svg>
