<svg width="24" height="24" viewBox="0 0 24 24" fill="none" xmlns="http://www.w3.org/2000/svg">
<path d="M12.219 12.2192C13.9336 12.2192 15.3286 10.8243 15.3286 9.10961C15.3286 7.39497 13.9336 6 12.219 6C10.5043 6 9.10938 7.39497 9.10938 9.10961C9.10938 10.8243 10.5043 12.2192 12.219 12.2192Z" fill="#F9F9F7"/>
<path d="M17.8572 16.9272C17.5375 16.9272 17.276 16.6656 17.276 16.3459C17.276 15.2707 16.4041 14.3988 15.3288 14.3988H9.10961C8.03432 14.3988 7.16247 15.2707 7.16247 16.3459C7.16247 16.6656 6.90092 16.9272 6.58124 16.9272C6.26156 16.9272 6 16.6656 6 16.3459C6 14.6313 7.39497 13.2363 9.10961 13.2363H15.2998C17.0144 13.2363 18.4094 14.6313 18.4094 16.3459C18.4384 16.6656 18.1769 16.9272 17.8572 16.9272Z" fill="#F9F9F7"/>
<path d="M12.2199 18.7C11.9002 18.7 11.6387 18.4384 11.6387 18.1187V13.7885C11.6387 13.4688 11.9002 13.2073 12.2199 13.2073C12.5396 13.2073 12.8011 13.4688 12.8011 13.7885V18.1187C12.8011 18.4384 12.5396 18.7 12.2199 18.7Z" fill="#F9F9F7"/>
<path d="M15.3298 16.5204H9.11053C8.79085 16.5204 8.5293 16.2588 8.5293 15.9391C8.5293 15.6195 8.79085 15.3579 9.11053 15.3579H15.3007C15.6204 15.3579 15.8819 15.6195 15.8819 15.9391C15.8819 16.2588 15.6494 16.5204 15.3298 16.5204Z" fill="#F9F9F7"/>
<path d="M13.992 18.7001H10.4465C10.1268 18.7001 9.86523 18.4385 9.86523 18.1188C9.86523 17.7992 10.1268 17.5376 10.4465 17.5376H14.0211C14.3407 17.5376 14.6023 17.7992 14.6023 18.1188C14.6023 18.4385 14.3117 18.7001 13.992 18.7001Z" fill="#F9F9F7"/>
</svg>
