<svg width="24" height="24" viewBox="0 0 24 24" fill="none" xmlns="http://www.w3.org/2000/svg">
<path d="M17.8945 7.99219L16.8867 6.98438C16.7461 6.84375 16.5352 6.75 16.3477 6.75H12.7617V6.375C12.7617 6.1875 12.5742 6 12.3867 6H11.6367C11.4258 6 11.2617 6.1875 11.2617 6.375V6.75H7.32422C6.99609 6.75 6.76172 7.00781 6.76172 7.3125V9.1875C6.76172 9.51562 6.99609 9.75 7.32422 9.75H16.3477C16.5352 9.75 16.7227 9.67969 16.8867 9.53906L17.8945 8.53125C18.0352 8.39062 18.0352 8.13281 17.8945 7.99219ZM11.2617 17.625C11.2617 17.8359 11.4258 18 11.6367 18H12.3867C12.5742 18 12.7617 17.8359 12.7617 17.625V15H11.2617V17.625ZM16.6992 11.25H12.7617V10.5H11.2617V11.25H7.65234C7.46484 11.25 7.27734 11.3438 7.13672 11.4844L6.10547 12.4922C5.96484 12.6328 5.96484 12.8906 6.10547 13.0312L7.13672 14.0391C7.27734 14.1797 7.46484 14.25 7.65234 14.25H16.6992C17.0039 14.25 17.2617 14.0156 17.2617 13.6875V11.8125C17.2617 11.5078 17.0039 11.25 16.6992 11.25Z" fill="#FCFCFC"/>
</svg>
