<svg width="24" height="24" viewBox="0 0 24 24" fill="none" xmlns="http://www.w3.org/2000/svg">
<path d="M6.4 11.1429C7.275 11.1429 8 10.3929 8 9.42857C8 8.49107 7.275 7.71429 6.4 7.71429C5.5 7.71429 4.8 8.49107 4.8 9.42857C4.8 10.3929 5.5 11.1429 6.4 11.1429ZM12 12C13.325 12 14.4 10.875 14.4 9.42857V9H9.6V9.42857C9.6 10.875 10.65 12 12 12ZM18.4 12H16.8C16.35 12 15.95 12.2143 15.65 12.5089C16.675 13.0982 17.375 14.1696 17.55 15.4286H19.2C19.625 15.4286 20 15.0536 20 14.5714V13.7143C20 12.7768 19.275 12 18.4 12ZM8.325 12.5089C8.025 12.2143 7.625 12 7.2 12H5.6C4.7 12 4 12.7768 4 13.7143V14.5714C4 15.0536 4.35 15.4286 4.8 15.4286H6.425C6.6 14.1696 7.3 13.0982 8.325 12.5089ZM17.6 11.1429C18.475 11.1429 19.2 10.3929 19.2 9.42857C19.2 8.49107 18.475 7.71429 17.6 7.71429C16.7 7.71429 16 8.49107 16 9.42857C16 10.3929 16.7 11.1429 17.6 11.1429ZM13.9 12.8571H13.7C13.175 13.125 12.6 13.2857 12 13.2857C11.375 13.2857 10.8 13.125 10.275 12.8571H10.075C8.475 12.8571 7.2 14.25 7.2 15.9643V16.7143C7.2 17.4375 7.725 18 8.4 18H15.6C16.25 18 16.8 17.4375 16.8 16.7143V15.9643C16.8 14.25 15.5 12.8571 13.9 12.8571ZM14.4 6L13.2 6.64286L12 6L10.8 6.64286L9.6 6V8.14286H14.4V6Z" fill="#FCFCFC"/>
</svg>
