<svg width="128" height="128" viewBox="0 0 128 128" fill="none" xmlns="http://www.w3.org/2000/svg">
<path d="M63.7 106.3C84.5211 106.3 101.4 89.4212 101.4 68.6C101.4 47.7789 84.5211 30.9 63.7 30.9C42.8789 30.9 26 47.7789 26 68.6C26 89.4212 42.8789 106.3 63.7 106.3Z" fill="#FF6567" fill-opacity="0.4" stroke="#3E5172" stroke-width="4" stroke-miterlimit="10" stroke-linecap="round" stroke-linejoin="round"/>
<path d="M63.6999 97.4001C79.6057 97.4001 92.4999 84.5058 92.4999 68.6C92.4999 52.6942 79.6057 39.8 63.6999 39.8C47.7941 39.8 34.8999 52.6942 34.8999 68.6C34.8999 84.5058 47.7941 97.4001 63.6999 97.4001Z" fill="white" stroke="#3E5172" stroke-width="2" stroke-miterlimit="10" stroke-linecap="round" stroke-linejoin="round"/>
<path d="M52.6001 22H74.8001" stroke="#3E5172" stroke-width="4" stroke-miterlimit="10" stroke-linecap="round" stroke-linejoin="round"/>
<path d="M69.1 29.6V22H58V29.6" fill="#3E5172"/>
<path d="M69.1 29.6V22H58V29.6" stroke="#3E5172" stroke-width="2" stroke-miterlimit="10" stroke-linecap="round" stroke-linejoin="round"/>
<path d="M63.7002 46.4V48.6" stroke="#3E5172" stroke-width="2" stroke-miterlimit="10" stroke-linecap="round" stroke-linejoin="round"/>
<path d="M63.7002 88.5V90.7" stroke="#3E5172" stroke-width="2" stroke-miterlimit="10" stroke-linecap="round" stroke-linejoin="round"/>
<path d="M43.8001 68.6H41.6001" stroke="#3E5172" stroke-width="2" stroke-miterlimit="10" stroke-linecap="round" stroke-linejoin="round"/>
<path d="M53.3999 63.6L63.9999 70.6L84.7999 47.5" stroke="#3E5172" stroke-width="4" stroke-miterlimit="10" stroke-linecap="round" stroke-linejoin="round"/>
</svg>
